<svg xmlns="http://www.w3.org/2000/svg" width="100.92" height="98.164" viewBox="0 0 0.083 0.08" shape-rendering="geometricPrecision" text-rendering="geometricPrecision" image-rendering="optimizeQuality" fill-rule="evenodd" clip-rule="evenodd"><path d="M.027.06l.001.001H.03v.002l.002.001.002.001h.002l.002.001h.009L.05.063h.002L.053.061h.001V.06h.002V.058h.001V.056H.052L.05.06H.048L.046.061H.034L.033.06.03.059V.058L.028.057H.025V.06zM.029.005l.036.031.013.041H.004L.03.005zM.028 0L0 .08h.083L.067.034.027 0zm.009.04L.035.038.034.037H.03v.006l.001.001h.005V.04zm.009.004h.005V.038L.05.037H.046V.04H.044v.003z" fill="#a42926" id="Layer_x0020_1"/></svg>