<svg xmlns="http://www.w3.org/2000/svg" width="113.519" height="95.472" viewBox="0 0 0.066 0.055" shape-rendering="geometricPrecision" text-rendering="geometricPrecision" image-rendering="optimizeQuality" fill-rule="evenodd" clip-rule="evenodd"><path d="M.036.027V.024H.034V.023H.031v.001L.03.027v.002h.004zM0 .055h.066L.034 0H.016L0 .055zM.062.053h-.06l.016-.05h.014l.03.05zM.039.038L.038.04H.036v.003H.033v.001H.031L.03.045H.023L.021.042.02.041V.04H.018V.038L.016.037V.035H.015V.033H.013v.004l.001.001V.04l.002.001v.001h.001L.02.045l.001.001h.001l.001.001h.011L.035.045h.001L.037.043h.001L.04.042V.04L.042.039V.038L.043.036V.033H.04v.006zM.026.027V.023H.024v.001H.023v.001H.021V.023H.02v.004h.005L.027.026z" fill="#a42926" id="Layer_x0020_1"/></svg>