<svg xmlns="http://www.w3.org/2000/svg" width="100.723" height="79.431" viewBox="0 0 0.059 0.046" shape-rendering="geometricPrecision" text-rendering="geometricPrecision" image-rendering="optimizeQuality" fill-rule="evenodd" clip-rule="evenodd"><path d="M.04.02L.032.025v.002h.001v.001h.004V.024L.041.023V.02H.04zM.016 0L0 .046h.059L.046.001.016 0zm.001.002h.027l.012.042H.003L.017.002zM.03.033H.024v.001H.022v.002H.02v.001L.019.038V.04h.003V.037h.002L.025.036h.001L.027.035h.008l.001.001h.001l.001.001L.04.04h.002V.036H.04V.035H.037V.034H.035L.034.033H.03zM.028.025L.02.02H.018v.002l.004.003v.003h.005V.025z" fill="#a42926" id="Layer_x0020_1"/></svg>