<svg xmlns="http://www.w3.org/2000/svg" width="106.509" height="96.974" viewBox="0 0 0.065 0.059" shape-rendering="geometricPrecision" text-rendering="geometricPrecision" image-rendering="optimizeQuality" fill-rule="evenodd" clip-rule="evenodd"><path d="M.028.03L.03.032h.004V.026H.031L.03.025H.028V.03zM.023 0L0 .06h.065L.055.015.022 0zm.04.057h-.06L.024.003l.028.015.01.039zM.047.04L.046.044H.044v.001L.043.047H.042L.04.048H.03V.045H.028V.043H.027L.025.042V.041H.024V.038H.023V.036H.021v.005l.001.001.001.002h.001v.001l.002.001v.001H.03V.05h.014V.048h.001L.046.047h.001L.048.044H.05V.042L.051.04V.037H.05L.048.04.047.042zM.039.028V.03H.04v.001h.004V.026H.042L.041.025H.04v.002z" fill="#a42926" id="Layer_x0020_1"/></svg>