<svg xmlns="http://www.w3.org/2000/svg" width="106.854" height="93.158" viewBox="0 0 0.076 0.067" shape-rendering="geometricPrecision" text-rendering="geometricPrecision" image-rendering="optimizeQuality" fill-rule="evenodd" clip-rule="evenodd"><path d="M.025.043v.002l.001.001.001.002h.001L.03.05v.001l.002.001.001.001h.001l.002.001h.012V.053H.05L.052.05.055.048.057.046V.043L.058.042V.038H.025v.004l.001.001zm.048.02H.004l.028-.06.029.013.012.048zM.03 0L0 .067h.076L.063.014.03 0zm.008.027V.025H.036L.035.024H.03V.03h.002V.028h.001V.027h.002V.03h.004V.026zm.01 0v.001H.05V.03h.003V.025H.05V.024H.044v.001H.043V.03h.002V.028L.048.027z" fill="#a42926" id="Layer_x0020_1"/></svg>