<svg xmlns="http://www.w3.org/2000/svg" width="106.854" height="93.158" viewBox="0 0 0.093 0.081" shape-rendering="geometricPrecision" text-rendering="geometricPrecision" image-rendering="optimizeQuality" fill-rule="evenodd" clip-rule="evenodd"><path d="M.032.037V.04h.001v.001h.005V.038H.04V.035L.037.034.036.033H.032v.001L.031.036zM.016.017L0 .08h.093L.056 0l-.04.017zm.071.06H.004L.02.02.054.004l.033.073zM.05.041h.003L.055.04V.039L.056.036.053.034.052.033H.049L.048.036V.04H.05v.001zm.008.013H.027v.003h.015v.007h.001v.001h.001l.001.001h.008V.064L.055.063V.062L.056.061V.057H.06V.054H.058z" fill="#a42926" id="Layer_x0020_1"/></svg>