<svg xmlns="http://www.w3.org/2000/svg" width="88.997" height="96.665" viewBox="0 0 0.046 0.05" shape-rendering="geometricPrecision" text-rendering="geometricPrecision" image-rendering="optimizeQuality" fill-rule="evenodd" clip-rule="evenodd"><path d="M.033.026V.024L.031.023H.028v.004h.003V.026L.034.025zm.01.022h-.04l.01-.031.02-.014.01.045zM.046.05L.033 0 .011.016 0 .05h.046zM.028.034H.02v.001H.018v.001H.017V.04h.001L.02.037.023.036h.01l.002.001V.04h.002V.037L.034.036.033.035H.032L.03.034.029.033zM.024.026V.024H.022V.023H.02v.001H.018v.002H.02v.001h.003V.025z" fill="#a42926" id="Layer_x0020_1"/></svg>