<svg xmlns="http://www.w3.org/2000/svg" width="87.929" height="98.489" viewBox="0 0 0.053 0.059" shape-rendering="geometricPrecision" text-rendering="geometricPrecision" image-rendering="optimizeQuality" fill-rule="evenodd" clip-rule="evenodd"><path d="M.036.045V.041H.033v.003H.025V.041H.023V.04H.014L.012.043v.002h.004L.019.042h.005l.001.001h.001v.001h.002l.001.001h.006V.044zm.017.014L.047 0 .008.027 0 .059h.053zM.05.057H.003L.01.028.045.004.05.057zM.021.032V.03H.02V.028H.016V.03H.015v.003h.002v.001H.02V.032h.001V.031zm.01.003h.001V.033h.002V.03H.031L.03.028H.027L.026.03v.005H.03z" fill="#a42926" id="Layer_x0020_1"/></svg>