<svg xmlns="http://www.w3.org/2000/svg" width="112.698" height="96.385" viewBox="0 0 0.065 0.055" shape-rendering="geometricPrecision" text-rendering="geometricPrecision" image-rendering="optimizeQuality" fill-rule="evenodd" clip-rule="evenodd"><path d="M.032.028H.03V.03H.028v.003H.03V.03h.002v.001h.002V.028H.033L.032.027zM.05 0L.02.008 0 .055h.065L.049 0zM.022.01L.047.003l.015.05H.003L.022.01zm.014.012l.007.003.004-.007V.014H.045V.013H.04v.003H.035v.001H.033v.004h.001v.001zM.04.031l.002.004.005-.002V.028H.044L.043.027H.041V.03H.04zM.03.046H.02V.044L.019.043H.017V.04H.016L.015.039V.038L.014.036H.013V.04l.001.002.001.001.001.001.001.001H.02v.003h.001l.001.001h.002L.026.05h.006V.047h.002V.046h.003L.038.043h.001V.041H.04V.037H.038L.037.038V.04L.036.041.035.044v.001H.032v.001H.03zM.025.029H.022V.027H.02V.03H.018v.002H.017v.001H.02V.03h.002l.001.001h.002V.03z" fill="#a42926" id="Layer_x0020_1"/></svg>