<?xml version="1.0" encoding="UTF-8"?>
<svg xmlns="http://www.w3.org/2000/svg" xml:space="preserve" width="936px" height="232px" version="1.1" style="shape-rendering:geometricPrecision; text-rendering:geometricPrecision; image-rendering:optimizeQuality; fill-rule:evenodd; clip-rule:evenodd" viewBox="0 0 480.01 119.18" xmlns:xlink="http://www.w3.org/1999/xlink" xmlns:xodm="http://www.corel.com/coreldraw/odm/2003">
 <defs>
  <style type="text/css">
   <![CDATA[
    .fil1 {fill:black}
    .fil4 {fill:#0093DD}
    .fil5 {fill:#28166F}
    .fil3 {fill:#E6E6E6}
    .fil0 {fill:white}
    .fil2 {fill:white}
    .fil6 {fill:white;fill-rule:nonzero}
   ]]>
  </style>
 </defs>
 <g id="Layer_x0020_1">
  <metadata id="CorelCorpID_0Corel-Layer"/>
  <path class="fil0" d="M56.37 4.92l-15.82 3.46 -15.63 -3.39c-11.15,0.9 -19.99,10.3 -19.99,21.68l0 44.93c0,11.37 8.85,20.78 20.01,21.67l15.61 -2.33 15.82 2.4 99.29 0 318.62 0c-10.77,-16.76 -16.54,-33.76 -15,-51.11 1.09,-12.25 5.82,-24.67 15,-37.3l-417.91 0 0 0 0 -0.01z"/>
  <path class="fil1" d="M40.55 95.92l-15.44 2.3 -0.56 -0.04c-13.8,-1.1 -24.55,-12.73 -24.55,-26.58l0 -44.93c0,-13.85 10.73,-25.48 24.53,-26.58l0.72 -0.06 15.3 3.31 15.29 -3.34 424.17 0 -5.59 7.79c-19.83,27.66 -18.57,54.35 0.12,82.84l5 7.63 -9.12 0c-106.21,0 -208.56,0 -314.77,0l-99.65 0 -15.45 -2.34z"/>
  <path class="fil2" d="M474.28 4.92l-417.91 0 -15.82 3.46 -15.63 -3.39c-11.15,0.9 -20,10.3 -20,21.68l0 44.93c0,11.37 8.86,20.78 20.02,21.67l15.61 -2.33 15.82 2.4 99.28 0c106.21,0 212.42,0 318.63,0 -22.9,-34.9 -17.85,-63.52 0,-88.42z"/>
  <path class="fil3" d="M21.09 17.06l18.11 0 0 -5.92 3.8 0 0 5.92 423.38 0c-0.42,0.83 -0.82,1.67 -1.2,2.52l-422.18 0 0 10.97 418.31 0c-0.21,0.83 -0.41,1.68 -0.6,2.53l-417.71 0 0 9.26 416.27 0c-0.08,0.84 -0.14,1.68 -0.19,2.53l-416.08 0 0 10.1 416.19 0c0.07,0.85 0.14,1.69 0.24,2.53l-416.43 0 0 9.26 418.08 0c0.21,0.85 0.43,1.69 0.67,2.53l-418.75 0 0 10.94 422.9 0c0.41,0.86 0.84,1.7 1.28,2.53l-424.18 0 0 5.82 -3.8 0 0 -5.82 -21.13 0 0 -2.53 21.13 0 0 -10.94 -6.03 0 0 -2.53 6.03 0 0 -9.26 -17.27 0 0 -2.53 17.27 0 0 -10.1 -2.1 0 0 -2.53 2.1 0 0 -9.26 -9.72 0 0 -2.53 9.72 0 0 -10.97 -18.11 0 0 -2.52z"/>
  <g id="_2348593680368">
   <path class="fil4" d="M94.97 37.79l-14.45 0 0 -3.79 14.44 0.36c0.01,0.38 0.01,0.77 0.01,1.17l0 2.26 0 0 0 0zm-14.45 -4.39c-0.01,-1.9 -0.2,-3.13 -0.55,-3.66 -0.37,-0.55 -0.99,-0.81 -1.86,-0.81 -0.93,0 -1.64,0.36 -2.12,1.1 -0.48,0.73 -0.72,1.84 -0.72,3.33l0 0.02 -14.52 -0.06c0.16,-3.37 0.72,-5.92 1.71,-7.62 1.16,-2.04 3.05,-3.62 5.67,-4.77 2.61,-1.14 5.76,-1.72 9.46,-1.72 4.05,0 7.5,0.63 10.34,1.87 2.85,1.26 4.73,2.84 5.67,4.75 0.77,1.6 1.22,4.15 1.34,7.64l-14.42 -0.07 0 0 0 0zm-5.24 0.47c0.04,1.66 0.31,2.94 0.8,3.82 0.52,0.97 1.99,2.14 4.4,3.52 2.88,1.63 5.32,3.15 7.31,4.54l-24.29 -0.04c-0.59,-0.82 -1.11,-1.77 -1.56,-2.85 -0.83,-1.96 -1.24,-4.46 -1.24,-7.51 0,-0.64 0.02,-1.25 0.04,-1.84l14.54 0.36 0 0 0 0zm13.18 12.36c2.44,1.77 4.15,3.33 5.11,4.69 0.35,0.48 0.66,1.02 0.94,1.61l-22.29 -0.04c-3.57,-2.29 -5.96,-3.95 -7.16,-5.01 -0.49,-0.44 -0.95,-0.94 -1.37,-1.51l24.77 0.26 0 0zm6.52 7.44c0.86,2.42 1.3,5.58 1.3,9.49 0,1.82 -0.11,3.44 -0.31,4.83l-15.13 -0.02c0.43,-0.77 0.64,-1.87 0.64,-3.29 0,-3.38 -0.48,-5.59 -1.44,-6.63 -0.87,-0.93 -2.9,-2.41 -6.06,-4.44l7.06 0.08 13.94 -0.02 0 0zm0.92 14.81c-0.25,1.51 -0.63,2.75 -1.13,3.72 -0.12,0.24 -0.25,0.47 -0.4,0.69l-30.63 0.23c-0.5,-0.66 -0.9,-1.37 -1.19,-2.12 -0.32,-0.83 -0.59,-1.79 -0.8,-2.87l14.42 0.15c0.02,0.05 0.05,0.09 0.07,0.13 0.42,0.61 1.14,0.92 2.17,0.92 0.96,0 1.69,-0.33 2.2,-1.01l15.29 0.16 0 0 0 0zm-1.78 4.77c-0.06,0.09 -0.13,0.18 -0.2,0.27l-29.95 -0.11 -0.1 -0.12 30.25 -0.04 0 0 0 0zm-1.05 1.18c-1.04,1 -2.4,1.88 -4.08,2.65 -2.86,1.31 -6.18,1.97 -9.98,1.97 -4.17,0 -7.73,-0.76 -10.67,-2.27 -1.65,-0.85 -2.97,-1.82 -3.98,-2.92l28.71 0.58 0 -0.01zm-31.36 -6.5c-0.35,-1.92 -0.53,-4.22 -0.53,-6.9l0 -3.76 14.46 0 0 6.99c0,1.73 0.13,2.96 0.39,3.7l-14.32 -0.03 0 0 0 0zm75.8 -22.47l-15.56 0 0 -10.01 0 -0.43 15.43 0.39c0.09,1.39 0.13,2.92 0.13,4.58l0 5.47zm-15.59 -11.88c-0.06,-1.83 -0.23,-3.02 -0.48,-3.57 -0.32,-0.72 -1.06,-1.08 -2.19,-1.08 -1.29,0 -2.1,0.44 -2.45,1.31 -0.24,0.61 -0.4,1.72 -0.47,3.32l-15.39 -0.07c0.06,-0.8 0.13,-1.51 0.22,-2.13 0.3,-2.07 1.17,-4.06 2.65,-5.98 1.46,-1.91 3.5,-3.42 6.1,-4.53 2.6,-1.09 5.59,-1.64 8.96,-1.64 4.59,0 8.38,0.86 11.36,2.55 2.98,1.71 4.93,3.83 5.88,6.37l0.05 0.15 -9.39 0.07 9.41 -0.01c0.48,1.37 0.83,3.15 1.05,5.31l-15.31 -0.07 0 0 0 0zm-5.63 1.3c-0.01,0.33 -0.01,0.68 -0.01,1.04l0 9.88 -15.56 -0.02 0 -5.11c0,-2.41 0.05,-4.46 0.15,-6.17l15.42 0.38 0 0zm-0.01 11.64l0 6.05 -15.56 -0.02 0 -6.19 15.56 0.16zm0 7.13l0 8.94c0,2.78 0.18,4.59 0.51,5.44l-15.21 -0.03c-0.57,-2.67 -0.86,-6.18 -0.86,-10.56l0 -3.77 15.56 -0.02 0 0 0 0zm0.95 15.06c0.43,0.41 1.06,0.62 1.9,0.62 0.79,0 1.39,-0.19 1.8,-0.58l15.52 0.16c-0.08,0.29 -0.16,0.56 -0.25,0.81 -0.35,1.01 -0.89,1.96 -1.59,2.87l-31.07 0.23c-0.58,-0.83 -1.05,-1.74 -1.38,-2.73 -0.17,-0.47 -0.32,-0.99 -0.45,-1.54l15.52 0.16 0 0 0 0zm16.87 4.49c-0.13,0.15 -0.27,0.3 -0.42,0.45l-29.58 -0.1c-0.08,-0.1 -0.17,-0.21 -0.25,-0.31l30.25 -0.04 0 0zm-2.2 2.01c-0.47,0.36 -0.97,0.7 -1.51,1.03 -2.99,1.87 -6.69,2.81 -11.07,2.81 -4.57,0 -8.33,-0.8 -11.28,-2.38 -1.08,-0.58 -2.03,-1.25 -2.85,-1.99l26.71 0.53 0 0zm-10.49 -7.17c0.35,-0.85 0.54,-2.85 0.54,-5.99l0 -7.19 15.56 0 0 2.23c0,4.77 -0.28,8.43 -0.85,10.98l-15.25 -0.03 0 0 0 0zm57.48 -47.62l0 7.54 -15.56 0.11 0 -7.65 15.56 0zm0 7.86l0 5.54 -15.56 -0.06 0 -5.46 15.56 -0.02 0 0 0 0zm0 8.15l0 9.49 -35.8 -0.07 0 -10.3 15.58 0.38 0 5.02 4.66 0 0 -4.9 15.56 0.38 0 0 0 0zm0 10.64l0 5.62 -35.8 -0.07 0 -5.82 25.94 0.28 9.86 -0.01 0 0 0 0zm0 6.52l0 4.77 -4.17 0 4.17 0.04 0 9.74 -15.56 -0.03 0 -14.39 -4.66 0 0 14.39 -15.58 -0.03 0 -14.45 35.8 -0.03 0 0 0 -0.01zm0 15.72l0 2.99 -5.56 0 -10 0.08 0 -3.19 11.66 0.12 3.9 0zm0 3.83l0 0.67 -15.56 -0.06 0 -0.59 15.56 -0.02 0 0zm0 2.89l0 1.81 -15.56 0 0 -2 10 0.2 5.56 -0.01 0 0zm-20.22 -6.89l0 3.27 -15.58 0.12 0 -3.55 15.58 0.16 0 0 0 0zm0 4.02l0 0.58 -15.58 -0.06 0 -0.5 15.58 -0.02zm0 2.59l0 2.09 -15.58 0 0 -2.4 15.58 0.31zm-15.58 -42.08l0 -5.34 15.58 -0.02 0 5.43 -15.58 -0.07 0 0 0 0zm0 -5.44l0 -7.81 15.58 0 0 7.69 -15.58 0.12 0 0zm77.62 25.81c0,1.6 -0.01,3.06 -0.03,4.4l-15.54 -0.03 0 -4.84 15.57 -0.01 0 0.48 0 0 0 0zm-15.57 -1.31l0 -5.69 15.57 -0.01 0 5.77 -12.07 -0.06 -3.5 -0.01 0 0 0 0zm15.53 6.11c-0.06,3.3 -0.19,5.78 -0.38,7.45 -0.08,0.66 -0.2,1.3 -0.37,1.93l-15.3 -0.03c0.03,-0.07 0.06,-0.13 0.08,-0.2 0.29,-0.91 0.44,-3.04 0.44,-6.43l0 -2.89 15.53 0.17 0 0 0 0zm-1.08 10.43c-0.39,1.07 -0.91,2.09 -1.57,3.06l-30.62 -0.02c-0.66,-0.97 -1.19,-1.97 -1.57,-3.01l16.28 -0.01c0.17,0.03 0.36,0.04 0.56,0.04 0.19,0 0.37,-0.01 0.54,-0.04l16.38 -0.02 0 0zm-2.12 3.82c-0.23,0.29 -0.48,0.57 -0.73,0.85l-28.14 -0.1c-0.21,-0.23 -0.41,-0.47 -0.6,-0.71l29.47 -0.04 0 0zm-3.12 2.88c-0.84,0.57 -1.76,1.06 -2.77,1.48 -2.53,1.07 -5.5,1.6 -8.87,1.6 -3.21,0 -6.08,-0.51 -8.64,-1.51 -1.07,-0.42 -2.05,-0.93 -2.95,-1.53l23.23 -0.04 0 0 0 0zm-28.88 -7.82c-0.15,-0.55 -0.26,-1.11 -0.33,-1.69 -0.21,-1.73 -0.35,-4.39 -0.41,-8l15.53 0.16 0 3.36c0,3.34 0.15,5.4 0.43,6.18l0.01 0.02 -15.23 -0.03 0 0zm-0.74 -9.78c-0.02,-1.32 -0.03,-2.76 -0.03,-4.33l0 -0.45 15.56 -0.02 0 4.83 -15.53 -0.03 0 0 0 0zm-0.03 -5.67l0 -5.64 15.56 -0.01 0 5.67 -15.56 -0.02zm0 -6.77l0 -1.71 0 -1.35 15.56 -0.07 0 3.16 -15.56 -0.03 0 0 0 0zm20.44 0.03l0 -3.18 15.56 -0.07c0.01,0.49 0.01,0.99 0.01,1.51l0 1.77 -15.57 -0.03 0 0zm-20.44 -3.15c0.01,-2.4 0.05,-4.48 0.11,-6.23l2.42 0.06 13.03 -0.03 0 5.8 -15.56 0.4 0 0 0 0zm20.44 -0.52l0 -5.69 15.46 -0.04c0.05,1.53 0.08,3.3 0.1,5.33l-15.56 0.4 0 0 0 0zm-20.19 -8.44c0.05,-0.72 0.11,-1.35 0.18,-1.89 0.15,-1.29 0.47,-2.52 0.97,-3.69l33.19 -0.04c0.5,1.14 0.83,2.33 0.98,3.57 0.08,0.61 0.14,1.35 0.2,2.2l-15.34 -0.07c-0.04,-1.97 -0.19,-3.26 -0.45,-3.89 -0.3,-0.74 -0.94,-1.11 -1.89,-1.11 -0.83,0 -1.44,0.3 -1.87,0.91 -0.38,0.5 -0.59,1.86 -0.65,4.07l-15.32 -0.06 0 0 0 0zm1.31 -5.95c0.41,-0.87 0.92,-1.71 1.53,-2.52 1.49,-1.98 3.5,-3.51 6.05,-4.58 2.53,-1.06 5.49,-1.59 8.87,-1.59 3.21,0 6.08,0.5 8.63,1.51 2.55,1 4.61,2.51 6.16,4.52 0.6,0.77 1.11,1.58 1.52,2.41l-32.76 0.25 0 0 0 0zm75.82 26.14c0,1.62 -0.01,3.11 -0.03,4.47l-15.53 -0.03 0 -4.95 3.16 0 12.4 -0.01 0 0.52 0 0 0 0zm-15.56 -1.11l0 -5.93 15.56 -0.01 0 6.02 -15.56 -0.08 0 0zm15.52 6.34c-0.06,3.09 -0.19,5.43 -0.37,7.02 -0.08,0.68 -0.22,1.35 -0.39,2l-15.31 -0.03c0.04,-0.09 0.08,-0.18 0.11,-0.27 0.29,-0.91 0.44,-3.04 0.44,-6.43l0 -2.45 15.52 0.16 0 0zm-1.06 9.96c-0.39,1.09 -0.92,2.13 -1.6,3.13l-30.59 -0.02c-0.68,-0.99 -1.21,-2.01 -1.6,-3.08l16.11 -0.01c0.22,0.05 0.47,0.08 0.75,0.08 0.26,0 0.5,-0.03 0.72,-0.08l16.21 -0.02 0 0zm-2.09 3.8c-0.29,0.37 -0.59,0.72 -0.91,1.05l-27.87 -0.1c-0.27,-0.29 -0.53,-0.59 -0.78,-0.91l29.56 -0.04 0 0 0 0zm-3.05 2.87c-0.87,0.59 -1.83,1.11 -2.88,1.55 -2.54,1.07 -5.5,1.6 -8.87,1.6 -3.21,0 -6.09,-0.51 -8.64,-1.51 -1.12,-0.44 -2.14,-0.97 -3.06,-1.6l23.45 -0.04 0 0zm-28.97 -7.67c-0.16,-0.58 -0.28,-1.17 -0.35,-1.77 -0.21,-1.66 -0.34,-4.18 -0.41,-7.57l15.53 0.16 0 2.93c0,3.34 0.15,5.4 0.43,6.17l0.03 0.1 -15.23 -0.02 0 0zm-0.76 -9.78c-0.03,-1.34 -0.04,-2.81 -0.04,-4.41l0 -0.49 15.57 -0.01 0 4.93 -15.53 -0.02zm-0.04 -5.62l0 -5.81 15.57 -0.01 0 5.9 -15.57 -0.08zm0 -6.83l0 -1.78c0,-0.52 0,-1.04 0,-1.53l15.57 -0.07 0 3.41 -15.57 -0.03 0 0 0 0zm20.45 0.04l0 -3.44 15.56 -0.07c0,0.55 0,1.11 0,1.69l0 1.85 -15.56 -0.03 0 0zm-20.44 -4.29c0.02,-1.97 0.05,-3.7 0.11,-5.2l15.45 -0.03 0 4.83 -15.56 0.4 0 0zm20.44 -0.53l0 -4.71 15.45 -0.04c0.05,1.28 0.08,2.73 0.1,4.36l-15.55 0.4 0 -0.01zm-20.2 -7.2c0.05,-0.79 0.11,-1.48 0.18,-2.06 0.15,-1.31 0.48,-2.56 1,-3.74l33.14 -0.05c0.51,1.16 0.85,2.37 1,3.63 0.09,0.65 0.16,1.45 0.22,2.37l-15.35 -0.06c-0.04,-2.07 -0.18,-3.42 -0.46,-4.07 -0.3,-0.74 -0.93,-1.11 -1.89,-1.11 -0.82,0 -1.44,0.3 -1.87,0.91 -0.38,0.51 -0.6,1.93 -0.64,4.25l-15.34 -0.07 0.01 0zm1.47 -6.43c0.38,-0.76 0.84,-1.5 1.38,-2.21 1.49,-1.98 3.49,-3.51 6.04,-4.58 2.54,-1.06 5.49,-1.59 8.88,-1.59 3.2,0 6.08,0.51 8.63,1.51 2.55,1 4.61,2.51 6.16,4.52 0.53,0.68 0.98,1.38 1.36,2.11l-32.45 0.24 0 0 0 0zm55.68 -7.17l0 6.92 -15.58 -0.01 0 -6.91 15.58 0 0 0 0 0zm0 7.73l0 6.11 -15.58 -0.06 0 -6.03 15.58 -0.02 0 0zm0 8.27l0 3.86 -15.58 0.4 0 -4.22 15.58 -0.04 0 0zm0 6.02l0 3.66 -15.58 -0.02 0 -3.57 15.58 -0.07zm0 4.53l0 6.15 -15.58 -0.08 0 -6.06 15.58 -0.01 0 0zm0 6.52l0 5.06 -15.58 -0.03 0 -5.01 15.58 -0.02 0 0zm0 6l0 6.86 9.46 0 0 2 -25.04 -0.05 0 -8.97 15.58 0.16 0 0zm9.46 9.71l0 3.18 -25.04 -0.02 0 -3.14 25.04 -0.02zm0 3.79l0 1.21 -25.04 -0.09 0 -1.09 25.04 -0.03zm0 2.84l0 2.01 -25.04 0 0 -1.97 25.04 -0.04zm19.34 -55.41l0 6.94 -15.57 -0.01 0 -6.93 15.57 0zm0 7.69l0 6.28 -15.57 -0.07 0 -6.19 15.57 -0.02 0 0zm0 8.25l0 3.18 -15.57 0.4 0 -3.55 15.57 -0.03 0 0 0 0zm0 5.95l0 3.9 -15.57 -0.08 0 -3.75 15.57 -0.07 0 0zm0 4.63l0 6.34c-2.43,-0.02 -5.82,-0.04 -10.36,-0.07l-5.21 -0.02 0 -6.23 15.57 -0.02 0 0 0 0zm0 6.47l0 5.19 -15.57 -0.03 0 -5.1c6.3,-0.02 11.85,-0.04 15.57,-0.06l0 0zm0 6.37l0 8.63 -9.68 -0.04 -5.89 -0.02 0 -8.72 13.82 0.15 1.75 0 0 0 0 0zm0 9.4l0 3.21 -15.57 -0.01 0 -3.18 15.57 -0.02 0 0 0 0zm0 3.76l0 1.4 -11.35 -0.11 -4.22 -0.02 0 -1.22 4.22 -0.01 11.35 -0.04 0 0zm0 2.86l0 2.04 -15.57 0 0 -2.02 15.57 -0.02 0 0zm32.29 -55.38l0 6.96 -27.3 -0.02 0 -6.94 27.3 0 0 0zm0 7.65l0 3.84 -0.96 2.83 -16.6 -0.19 0.84 -2.64 -10.58 0 0 -3.81 27.3 -0.03 0 0 0 0zm-1.48 8.22l-1.07 3.17 -16.57 -0.04 0.99 -3.09 16.65 -0.04 0 0 0 0zm-1.98 5.89l-1.41 4.17 -16.43 -0.09 1.28 -4 16.56 -0.08 0 0 0 0zm-1.6 4.74l-3.95 11.73 -16.22 -0.03 3.72 -11.69 14.62 -0.01 1.83 0 0 0zm-4.33 12.83l-2.22 6.6 11.61 0 0 2.23 -28.36 -0.15 2.76 -8.66 16.21 -0.02 0 0 0 0zm9.39 9.4l0 3.26 -2.6 0 -26.1 -0.01 0 -2.89 0.1 -0.33 27.67 -0.03 0.93 0 0 0 0 0zm0 3.67l0 1.83 -28.7 -0.28 0 -1.44 28.7 -0.11 0 0zm0 2.92l0 2.1 -28.7 0 0 -2.05 26.1 -0.05 2.6 0 0 0 0 0zm4.03 -55.32l25.96 0 0 6.98 -25.96 -0.01 0 -6.97 0 0zm25.96 7.61l0 3.88 -10.39 0 0 3.08 -15.57 -0.19 0 -6.74 25.96 -0.03 0 0 0 0zm-10.39 8.22l0 3.26 -15.57 -0.03 0 -3.2 7.28 -0.01 8.29 -0.02 0 0 0 0zm0 5.83l0 0.71 9.72 0 0 3.73 -25.29 -0.13 0 -4.24 15.57 -0.07 0 0zm9.72 4.8l0 6.85 -9.72 0 0 4.97 -15.57 -0.03 0 -11.76c7.17,-0.01 16.39,-0.02 25.29,-0.03l0 0zm-9.72 12.85l0 6.62 11.43 0 0 2.39 -27 -0.14 0 -8.86 15.57 -0.01 0 0 0 0zm11.43 9.39l0 3.32c-10,-0.01 -20.08,-0.02 -27,-0.02l0 -3.27c6.54,-0.01 16.73,-0.01 27,-0.03l0 0zm0 3.59l0 2.25 -27 -0.27 0 -1.88 27 -0.1 0 0 0 0zm0 2.96l0 2.17 -27 0 0 -2.11c6.92,-0.01 17,-0.03 27,-0.06l0 0zm4.46 -55.25l11.02 0c7.35,0 12.32,0.26 14.92,0.81 2.6,0.55 4.72,1.94 6.37,4.16 0.43,0.59 0.8,1.27 1.12,2.04l-33.42 -0.02 0 -6.99 0 0 -0.01 0zm33.62 7.5c0.72,2 1.11,4.56 1.14,7.69 -1.89,-0.03 -4.1,-0.06 -6.71,-0.09l-7.74 -0.09 0 -0.75c0,-1.83 -0.34,-3.01 -1.02,-3.58 -0.68,-0.57 -1.92,-0.86 -3.71,-0.86l0 5.13 -15.58 -0.19 0 -7.16 10.12 -0.01 23.5 -0.09 0 0 0 0zm1.15 8.12l0 0.06c0,1.3 -0.05,2.48 -0.15,3.53l-14.38 -0.03c0.05,-0.52 0.07,-1.11 0.07,-1.77l0 -1.69c5.48,-0.03 10.51,-0.06 14.46,-0.1l0 0zm-0.47 5.82c-0.29,1.42 -0.72,2.5 -1.28,3.25 -1.14,1.53 -3.43,2.45 -6.84,2.76 3.08,0.73 5.17,1.71 6.23,2.95 1.04,1.22 1.71,2.35 1.97,3.38 0.18,0.7 0.29,2.23 0.35,4.59l-14.42 -0.03 0 0c0,-3.07 -0.26,-4.97 -0.77,-5.71 -0.5,-0.73 -1.83,-1.1 -3.96,-1.1l0 6.8 -15.58 -0.02 0 -11.86c22.05,-0.04 38.45,-0.12 9.85,-0.27l-9.85 -0.05 0 -4.54 15.58 -0.07 0 1.07c1.74,0 2.97,-0.23 3.67,-0.69 0.14,-0.09 0.27,-0.22 0.38,-0.39l14.67 -0.07 0 0 0 0zm0.44 17.82c0.02,0.9 0.03,1.91 0.03,3.02l0 15.14 -14.46 0 0 -2.28c10.32,-0.08 13.82,-0.19 0,-0.36l0 -2.58c13.82,-0.07 10.32,-0.11 0,-0.14l0 -3.41c11.99,-0.05 16.54,-0.11 0,-0.21l0 -9.17 14.43 -0.01 0 0 0 0zm-19.16 0.02l0 9.14 -15.58 -0.08 0 -9.05 15.58 -0.01 0 0 0 0zm0 9.38l0 3.39c-4.6,-0.01 -9.99,-0.02 -15.58,-0.03l0 -3.33c5.51,0 10.89,-0.02 15.58,-0.03l0 0zm0 3.56l0 2.51 -1.43 -0.01 -14.15 -0.14 0 -2.31 14.15 -0.05 1.43 0 0 0 0 0zm0 2.95l0 2.25 -15.58 0 0 -2.18c5.59,-0.02 10.98,-0.04 15.58,-0.07l0 0 0 0zm-15.58 -36.04l0 -3.34c5.1,-0.01 10.45,-0.03 15.58,-0.05l0 3.43 -15.58 -0.04 0 0 0 0z"/>
   <polygon class="fil5" points="141.34,18.94 180.41,18.94 180.41,119.18 161.65,96.07 141.34,119.18 "/>
   <polygon class="fil6" points="174.61,25.34 174.61,66.11 162.4,66.11 162.4,48.98 158.75,48.98 158.75,66.11 146.53,66.11 146.53,25.34 158.75,25.34 158.75,39.92 162.4,39.92 162.4,25.34 "/>
   <polygon id="_1" class="fil0" points="144.1,70.8 177.07,70.8 177.07,73.14 144.1,73.14 "/>
  </g>
 </g>
</svg>