<?xml version="1.0" encoding="UTF-8"?>
<!DOCTYPE svg PUBLIC "-//W3C//DTD SVG 1.1//EN" "http://www.w3.org/Graphics/SVG/1.1/DTD/svg11.dtd">
<!-- Creator: CorelDRAW -->
<svg xmlns="http://www.w3.org/2000/svg" xml:space="preserve" width="0.975425in" height="0.835858in" style="shape-rendering:geometricPrecision; text-rendering:geometricPrecision; image-rendering:optimizeQuality; fill-rule:evenodd; clip-rule:evenodd"
viewBox="0 0 0.484618 0.415277"
 xmlns:xlink="http://www.w3.org/1999/xlink">
 <defs>
  <style type="text/css">
   <![CDATA[
    .fil0 {fill:#C2C1C1}
   ]]>
  </style>
 </defs>
 <g id="Layer_x0020_1">
  <metadata id="CorelCorpID_0Corel-Layer"/>
  <path class="fil0" d="M0.0301011 0.0948647l0.178031 0 0.124453 0 0.121913 0 0 0.290314 -0.424396 0 0 -0.290314zm0.193098 -0.0647636l0.0943386 0 0 0.0346508 -0.0943386 0 0 -0.0346508zm-0.208151 0.385176l0.454523 0c0.00830524,0 0.0150476,-0.00674238 0.0150476,-0.0150672l0 -0.320411c0,-0.00830719 -0.00674238,-0.0150476 -0.0150535,-0.0150476l-0.121928 0 0 -0.049718c0,-0.0083111 -0.00672673,-0.0150281 -0.0150515,-0.0150281l-0.124453 -5.86804e-006c-0.0083111,0 -0.0150535,0.00672869 -0.0150535,0.0150339l0 0.049718 -0.0546491 0 0 -0.00579176c0,-0.0083248 -0.00674238,-0.0150476 -0.0150515,-0.0150476l-0.0421502 0c-0.0083248,0 -0.0150535,0.00672282 -0.0150535,0.0150476l0 0.00579176 -0.0511263 0c-0.00830524,0 -0.0150476,0.00674043 -0.0150476,0.0150476l0 0.320407c0,0.00832871 0.00674238,0.0150711 0.0150476,0.0150711z"/>
  <path class="fil0" d="M0.309193 0.327227c-0.0474157,0 -0.0859942,-0.0385785 -0.0859942,-0.0859942 0,-0.0474197 0.0385785,-0.0859942 0.0859942,-0.0859942 0.0473962,-5.86804e-006 0.0859883,0.0385785 0.0859883,0.0859942 5.86804e-006,0.0474099 -0.0385922,0.0859942 -0.0859883,0.0859942zm0 -0.202113c-0.0640164,0 -0.116115,0.0521024 -0.116115,0.116119 0,0.0640067 0.0520984,0.116093 0.116115,0.116093 0.0640106,-3.91203e-006 0.116089,-0.0520808 0.116089,-0.116093 3.91203e-006,-0.0640223 -0.0520789,-0.116113 -0.116089,-0.116119z"/>
  <path class="fil0" d="M0.309193 0.273032c-0.0175376,0 -0.0318048,-0.0142652 -0.0318048,-0.0317989 0,-0.0175435 0.0142672,-0.0318028 0.0318048,-0.0318028 0.0175181,0 0.0317989,0.0142652 0.0317989,0.0318028 3.91203e-006,0.0175337 -0.0142809,0.0317989 -0.0317989,0.0317989zm0 -0.0937068c-0.034154,0 -0.0619079,0.0277871 -0.0619079,0.0619079 3.91203e-006,0.0341285 0.0277539,0.0619039 0.0619079,0.0619039 0.0341344,-5.86804e-006 0.0618981,-0.0277695 0.0618981,-0.0619039 3.91203e-006,-0.0341246 -0.0277637,-0.0619039 -0.0618981,-0.0619079z"/>
  <path class="fil0" d="M0.13242 0.161127l-0.054209 0 0 -0.0207377 0.054209 0 0 0.0207377zm0.0150339 -0.0508564l-0.0842905 0c-0.0083248,0 -0.0150672,0.00674629 -0.0150672,0.0150574l0 0.0508505c0,0.00830524 0.00674238,0.0150672 0.0150672,0.0150672l0.0842905 -3.91203e-006c0.0083248,0 0.0150672,-0.00675216 0.0150672,-0.0150633l0 -0.0508564c0,-0.00830915 -0.00674238,-0.0150476 -0.0150672,-0.0150515z"/>
 </g>
</svg>
