<?xml version="1.0" encoding="UTF-8"?>
<!DOCTYPE svg PUBLIC "-//W3C//DTD SVG 1.1//EN" "http://www.w3.org/Graphics/SVG/1.1/DTD/svg11.dtd">
<!-- Creator: CorelDRAW -->
<svg xmlns="http://www.w3.org/2000/svg" xml:space="preserve" width="0.166669in" height="0.166764in" style="shape-rendering:geometricPrecision; text-rendering:geometricPrecision; image-rendering:optimizeQuality; fill-rule:evenodd; clip-rule:evenodd"
viewBox="0 0 0.166669 0.166764"
 xmlns:xlink="http://www.w3.org/1999/xlink">
 <defs>
  <style type="text/css">
   <![CDATA[
    .fil1 {fill:#969594}
    .fil0 {fill:#DEDEDD}
   ]]>
  </style>
 </defs>
 <g id="Layer_x0020_1">
  <metadata id="CorelCorpID_0Corel-Layer"/>
  <path class="fil0" d="M0.0441142 0.00568898l0.0840276 0c0.021189,0 0.0385236,0.0173346 0.0385236,0.0385236l0 0.0840276c0,0.021189 -0.0173346,0.0385276 -0.0385236,0.0385276l-0.0840276 0c-0.021189,0 -0.0385236,-0.0173386 -0.0385236,-0.0385276l0 -0.0840276c0,-0.021189 0.0173346,-0.0385236 0.0385236,-0.0385236zm0.0080315 0.0153976l0.0679606 0c0.0171457,0 0.0311614,0.0140197 0.0311614,0.0311614l0 0.0679606c0,0.0171457 -0.0140157,0.0311575 -0.0311614,0.0311575l-0.0679606 0c-0.0171378,0 -0.0311575,-0.0140118 -0.0311575,-0.0311575l0 -0.0679606c0,-0.0171417 0.0140197,-0.0311614 0.0311575,-0.0311614z"/>
  <path class="fil1" d="M0.0385276 -3.93701e-006l0.0840276 0c0.021189,0 0.0385236,0.0173386 0.0385236,0.0385276l0 0.0840276c0,0.021189 -0.0173346,0.0385236 -0.0385236,0.0385236l-0.0840276 0c-0.021189,0 -0.0385236,-0.0173346 -0.0385236,-0.0385236l0 -0.0840276c0,-0.021189 0.0173346,-0.0385276 0.0385236,-0.0385276zm0.00803543 0.0154016l0.0679606 0c0.0171378,0 0.0311575,0.0140118 0.0311575,0.0311575l0 0.0679606c0,0.0171417 -0.0140197,0.0311614 -0.0311575,0.0311614l-0.0679606 0c-0.0171457,0 -0.0311614,-0.0140197 -0.0311614,-0.0311614l0 -0.0679606c0,-0.0171457 0.0140157,-0.0311575 0.0311614,-0.0311575z"/>
 </g>
</svg>
