<?xml version="1.0" encoding="UTF-8"?>
<!DOCTYPE svg PUBLIC "-//W3C//DTD SVG 1.1//EN" "http://www.w3.org/Graphics/SVG/1.1/DTD/svg11.dtd">
<!-- Creator: CorelDRAW -->
<svg xmlns="http://www.w3.org/2000/svg" xml:space="preserve" width="0.173339in" height="0.173441in" style="shape-rendering:geometricPrecision; text-rendering:geometricPrecision; image-rendering:optimizeQuality; fill-rule:evenodd; clip-rule:evenodd"
viewBox="0 0 0.173339 0.173441"
 xmlns:xlink="http://www.w3.org/1999/xlink">
 <defs>
  <style type="text/css">
   <![CDATA[
    .fil0 {fill:#1F1A17}
    .fil2 {fill:#64BDAA}
    .fil1 {fill:white}
   ]]>
  </style>
 </defs>
 <g id="Layer_x0020_1">
  <metadata id="CorelCorpID_0Corel-Layer"/>
  <path class="fil0" d="M0.045878 0.00591732l0.0873898 0c0.0220394,0 0.0400709,0.0180315 0.0400709,0.0400669l0 0.0873898c0,0.0220394 -0.0180315,0.0400669 -0.0400709,0.0400669l-0.0873898 0c-0.0220354,0 -0.0400669,-0.0180276 -0.0400669,-0.0400669l0 -0.0873898c0,-0.0220354 0.0180315,-0.0400669 0.0400669,-0.0400669zm0.00835433 0.0160157l0.0706811 0c0.0178307,0 0.0324094,0.0145787 0.0324094,0.0324094l0 0.0706811c0,0.0178268 -0.0145787,0.0324016 -0.0324094,0.0324016l-0.0706811 0c-0.0178268,0 -0.0324055,-0.0145748 -0.0324055,-0.0324016l0 -0.0706811c0,-0.0178307 0.0145787,-0.0324094 0.0324055,-0.0324094z"/>
  <path class="fil1" d="M0.0400709 0l0.0873898 0c0.0220354,0 0.0400669,0.0180276 0.0400669,0.0400669l0 0.0873898c0,0.0220354 -0.0180315,0.0400669 -0.0400669,0.0400669l-0.0873898 0c-0.0220394,0 -0.0400709,-0.0180315 -0.0400709,-0.0400669l0 -0.0873898c0,-0.0220394 0.0180315,-0.0400669 0.0400709,-0.0400669z"/>
  <path class="fil2" d="M0.0484252 0.0160157l0.0706811 0c0.0178268,0 0.0324055,0.0145748 0.0324055,0.0324016l0 0.0706811c0,0.0178307 -0.0145787,0.0324094 -0.0324055,0.0324094l-0.0706811 0c-0.0178307,0 -0.0324094,-0.0145787 -0.0324094,-0.0324094l0 -0.0706811c0,-0.0178268 0.0145787,-0.0324016 0.0324094,-0.0324016z"/>
 </g>
</svg>
