<?xml version="1.0" encoding="UTF-8"?>
<!DOCTYPE svg PUBLIC "-//W3C//DTD SVG 1.1//EN" "http://www.w3.org/Graphics/SVG/1.1/DTD/svg11.dtd">
<!-- Creator: CorelDRAW -->
<svg xmlns="http://www.w3.org/2000/svg" xml:space="preserve" width="323px" height="144px" style="shape-rendering:geometricPrecision; text-rendering:geometricPrecision; image-rendering:optimizeQuality; fill-rule:evenodd; clip-rule:evenodd"
viewBox="0 0 422.268 188.368"
 xmlns:xlink="http://www.w3.org/1999/xlink">
 <defs>
  <style type="text/css">
   <![CDATA[
    .fil2 {fill:#1F1A17}
    .fil3 {fill:white}
    .fil1 {fill:#1F1A17}
    .fil0 {fill:#1F1A17;fill-rule:nonzero}
   ]]>
  </style>
 </defs>
 <g id="Layer_x0020_1">
  <metadata id="CorelCorpID_0Corel-Layer"/>
  <g id="_115180360">
   <path id="_115529088" class="fil0" d="M0 176.241l0 -44.1144 14.2875 0c5.41338,0 8.94667,0.225365 10.5891,0.668376 2.52841,0.657571 4.65393,2.09466 6.35806,4.3128 1.70567,2.21814 2.55773,5.0846 2.55773,8.58701 0,2.71209 -0.492406,4.99198 -1.47876,6.8304 -0.986356,1.84922 -2.22895,3.29712 -3.74939,4.35602 -1.50963,1.04656 -3.05014,1.7458 -4.61071,2.08385 -2.12707,0.421401 -5.20808,0.637504 -9.24458,0.637504l-5.80391 0 0 16.6399 -8.90499 0 0 -0.00154359zm8.90499 -36.648l0 12.5108 4.86849 0c3.51322,0 5.86565,-0.225365 7.0465,-0.688443 1.18085,-0.461534 2.10546,-1.18085 2.7831,-2.16721 0.668376,-0.984813 1.00642,-2.12553 1.00642,-3.42986 0,-1.60225 -0.47234,-2.92665 -1.41702,-3.97475 -0.935418,-1.03729 -2.13633,-1.69487 -3.57496,-1.9511 -1.06662,-0.206842 -3.2045,-0.299457 -6.409,-0.299457l-4.30354 0 0 0z"/>
   <path id="_1155290881" class="fil0" d="M39.2983 154.457c0,-4.49803 0.666832,-8.26749 2.01285,-11.3192 1.00642,-2.23821 2.3725,-4.26186 4.1075,-6.04934 1.73654,-1.77668 3.63671,-3.10108 5.70203,-3.96395 2.75223,-1.17159 5.91505,-1.7458 9.51008,-1.7458 6.50162,0 11.6989,2.01285 15.6026,6.04934 3.9022,4.02569 5.85485,9.63511 5.85485,16.8128 0,7.12986 -1.94184,12.6961 -5.81472,16.7233 -3.87133,4.01489 -9.04854,6.02928 -15.5193,6.02928 -6.56336,0 -11.7807,-2.00358 -15.6536,-5.99995 -3.87133,-4.00562 -5.80237,-9.52088 -5.80237,-16.5365l0 0zm9.17203 -0.297914c0,4.99198 1.16078,8.78305 3.46074,11.3608 2.31076,2.5778 5.23896,3.86207 8.79231,3.86207 3.54409,0 6.46148,-1.27346 8.74137,-3.842 2.26908,-2.55773 3.4098,-6.38893 3.4098,-11.5029 0,-5.05372 -1.10984,-8.82472 -3.31873,-11.3192 -2.21814,-2.48673 -5.16641,-3.72932 -8.83244,-3.72932 -3.67684,0 -6.63591,1.2642 -8.88492,3.78026 -2.23821,2.51606 -3.36812,6.30558 -3.36812,11.3902z"/>
   <polygon id="_11552908812" class="fil0" points="89.2768,176.241 89.2768,132.488 98.1818,132.488 98.1818,168.806 120.326,168.806 120.326,176.241 "/>
   <polygon id="_115529088123" class="fil0" points="126.92,176.241 126.92,132.488 135.825,132.488 135.825,168.806 157.97,168.806 157.97,176.241 "/>
   <polygon id="_1155290881234" class="fil0" points="231.821,176.241 231.821,132.127 240.726,132.127 240.726,151.715 258.723,132.127 270.698,132.127 254.089,149.312 271.601,176.241 260.079,176.241 247.957,155.534 240.726,162.911 240.726,176.241 "/>
   <polygon id="_11552908812345" class="fil0" points="276.295,176.241 276.295,132.127 284.966,132.127 303.02,161.585 303.02,132.127 311.304,132.127 311.304,176.241 302.351,176.241 284.575,147.475 284.575,176.241 "/>
   <path id="_115529088123456" class="fil0" d="M318.909 154.457c0,-4.49803 0.666832,-8.26749 2.01285,-11.3192 1.00642,-2.23821 2.3725,-4.26186 4.1075,-6.04934 1.73654,-1.77668 3.63671,-3.10108 5.70049,-3.96395 2.75377,-1.17159 5.91659,-1.7458 9.51162,-1.7458 6.50162,0 11.6989,2.01285 15.6026,6.04934 3.9022,4.02569 5.85485,9.63511 5.85485,16.8128 0,7.12986 -1.94184,12.6961 -5.81472,16.7233 -3.87133,4.01489 -9.04854,6.02928 -15.5193,6.02928 -6.56336,0 -11.7807,-2.00358 -15.6536,-5.99995 -3.87133,-4.00562 -5.80237,-9.52088 -5.80237,-16.5365l0 0zm9.17203 -0.297914c0,4.99198 1.16078,8.78305 3.46074,11.3608 2.31076,2.5778 5.23896,3.86207 8.79231,3.86207 3.54409,0 6.46148,-1.27346 8.74137,-3.842 2.26908,-2.55773 3.4098,-6.38893 3.4098,-11.5029 0,-5.05372 -1.10984,-8.82472 -3.31873,-11.3192 -2.21814,-2.48673 -5.16641,-3.72932 -8.83244,-3.72932 -3.67684,0 -6.63591,1.2642 -8.88492,3.78026 -2.23821,2.51606 -3.36812,6.30558 -3.36812,11.3902z"/>
   <polygon id="_1155290881234567" class="fil0" points="374.914,176.241 364.384,132.127 373.492,132.127 380.148,162.428 388.209,132.127 398.798,132.127 406.533,162.94 413.302,132.127 422.268,132.127 411.561,176.241 402.109,176.241 393.326,143.261 384.563,176.241 "/>
   <g>
    <path id="_115456184" class="fil1" d="M301.268 29.4888c-11.6727,-19.2826 -36.6218,-29.1724 -61.7715,-29.4888 -25.9586,-0.321067 -52.1642,9.51162 -64.2829,29.6956 -1.3491,4.06737 -2.70129,6.77946 -4.03495,18.9816l0.222277 112.949 -0.656027 20.6054 40.0732 -73.9798c7.38609,-0.0123487 29.5845,-0.0478514 29.5845,-0.0478514 35.4733,-0.0586565 66.3915,-14.9065 66.3282,-54.3252 -0.0154359,-8.48359 -1.63312,-16.7665 -5.46278,-24.3903l0 0zm-37.6791 13.4092c-4.64776,-6.17437 -14.7892,-9.34646 -24.9398,-9.29552 -13.917,0.0710053 -27.8958,6.23303 -27.8758,19.0726l0.0355026 23.776 29.0597 -0.0540258c10.5705,-0.0185231 17.6078,-2.67042 21.1241,-6.19753 4.3977,-3.52402 6.15431,-8.81083 6.14041,-14.9744 -0.00463078,-5.28063 -0.892197,-8.80466 -3.54409,-12.3271z"/>
    <path id="_115456760" class="fil2" d="M176.632 178.583c1.09132,2.06224 1.06817,4.63695 -0.287108,6.7347 -1.99278,3.09182 -6.1188,3.98247 -9.20908,1.98815 -3.09182,-1.99432 -3.98093,-6.1188 -1.98815,-9.21062 0.09879,-0.151272 0.202211,-0.297914 0.310262,-0.438381l-0.83354 0.057113 1.76278 -4.39924c2.49908,-6.23612 5.44734,-12.4352 8.20574,-18.5663 0.444555,-0.986356 -2.27217,-6.25773 -2.7476,-7.28113 -1.6856,-3.63516 -3.26933,-7.87233 -1.55594,-11.8008 1.83842,-4.21092 7.74575,-7.83682 11.347,-10.6014 5.06607,-3.8914 9.32022,-8.07608 11.7946,-14.0992l0.103421 -0.251606 0.146641 -0.228452c7.38146,-11.4457 -1.69641,-23.7837 -11.4072,-30.0924 -6.62356,-4.30971 -16.1722,-7.6732 -23.9689,-4.79131 -4.38998,1.62849 -7.11905,4.38535 -9.61967,8.26749 -3.05786,4.7234 -2.95752,10.4162 -1.44635,15.6613 1.59762,4.72031 1.39695,8.77842 -2.02056,12.6467l-0.438381 0.495493 -0.608176 0.263954c-4.32824,1.87238 -8.57466,1.36454 -12.0416,-1.86003 -4.7944,-3.69073 -7.88622,-9.82188 -8.71204,-15.7416 -1.24877,-8.96056 2.30458,-17.2327 8.00508,-23.9905 3.06558,-4.70024 6.91839,-8.76915 11.7437,-11.6881l0.126575 -0.0771797 0.132749 -0.0617437c15.03,-7.17462 33.9282,-1.89862 47.3544,6.4939 13.7905,8.6256 27.0947,23.8007 27.0283,40.9222l-0.00154359 0.379724 -0.0972464 0.368919c-1.14535,4.32052 -2.53612,7.77971 -4.5181,11.7822l-0.27476 0.55415 -25.6036 21.6057 1.5652 19.2532 -10.6554 18.1434 -1.59144 -0.438381 0 0z"/>
    <path id="_115456088" class="fil3" d="M172.748 178.605c-1.71339,-1.10521 -3.99945,-0.612807 -5.10466,1.10213 -1.10676,1.71339 -0.612807,3.99945 1.10058,5.10466 1.71339,1.10521 4.00099,0.612807 5.10621,-1.10213 1.10521,-1.71339 0.611263,-3.99945 -1.10213,-5.10466zm-28.044 -116.407c14.0668,-6.71309 32.0002,-1.48185 44.5018,6.33336 12.8566,8.03903 25.6962,22.3497 25.6329,38.3923 -1.13763,4.29119 -2.23049,7.02798 -4.30817,11.2266l-26.3013 22.1922 1.61306 19.8429 -9.02539 15.3696c-1.84305,-0.507842 -3.07947,-1.4587 -7.6732,-1.13454 1.68715,-4.21247 4.35602,-10.0025 8.15635,-18.4521 1.99124,-4.42548 -6.92456,-13.0727 -4.28965,-19.1128 2.76921,-6.34571 17.3315,-10.5613 23.1662,-24.7592 8.34775,-12.9477 -1.12065,-26.9388 -12.2839,-34.1906 -7.46019,-4.85306 -17.8779,-8.31688 -26.6193,-5.08614 -5.00742,1.85849 -8.22581,5.00587 -11.0815,9.43907 -3.51631,5.43036 -3.60429,11.9088 -1.78748,18.165 1.42937,4.18159 1.06354,6.9863 -1.41239,9.78947 -3.42832,1.48339 -6.40746,1.01414 -8.93895,-1.40158 -6.81805,-5.15097 -13.6191,-19.9756 -0.242344,-35.6894 2.83867,-4.39307 6.39974,-8.20574 10.8931,-10.924l0 0z"/>
   </g>
  </g>
 </g>
</svg>
