<?xml version="1.0" encoding="UTF-8"?>
<!DOCTYPE svg PUBLIC "-//W3C//DTD SVG 1.1//EN" "http://www.w3.org/Graphics/SVG/1.1/DTD/svg11.dtd">
<!-- Creator: CorelDRAW -->
<svg xmlns="http://www.w3.org/2000/svg" xml:space="preserve" width="2.84457in" height="1.26892in" style="shape-rendering:geometricPrecision; text-rendering:geometricPrecision; image-rendering:optimizeQuality; fill-rule:evenodd; clip-rule:evenodd"
viewBox="0 0 2.84457 1.26892"
 xmlns:xlink="http://www.w3.org/1999/xlink">
 <defs>
  <style type="text/css">
   <![CDATA[
    .fil3 {fill:#1F1A17}
    .fil1 {fill:#28B293}
    .fil2 {fill:white}
    .fil0 {fill:#28B293;fill-rule:nonzero}
   ]]>
  </style>
 </defs>
 <g id="Layer_x0020_1">
  <metadata id="CorelCorpID_0Corel-Layer"/>
  <g id="_115180360">
   <path id="_115529088" class="fil0" d="M0 1.18723l0 -0.297173 0.0962441 0c0.0364646,0 0.0602677,0.00151969 0.0713346,0.00449606 0.0170236,0.00442913 0.0313465,0.0141142 0.0428307,0.0290591 0.0114843,0.0149449 0.0172283,0.034252 0.0172283,0.0578425 0,0.0182677 -0.0033189,0.0336299 -0.00996457,0.0460118 -0.00664173,0.0124567 -0.0150118,0.0222126 -0.025252,0.0293386 -0.0101732,0.00705906 -0.0205512,0.0117638 -0.0310669,0.0140472 -0.0143228,0.00283465 -0.0350787,0.0042874 -0.0622717,0.0042874l-0.0390945 0 0 0.112091 -0.0599882 0zm0.0599882 -0.246874l0 0.0842756 0.0327953 0c0.0236654,0 0.0395079,-0.00152362 0.0474685,-0.0046378 0.00795669,-0.00311024 0.0141811,-0.00795669 0.018748,-0.0145984 0.0045,-0.00664173 0.00678346,-0.0143228 0.00678346,-0.0231102 0,-0.0107913 -0.00318504,-0.0197165 -0.00955118,-0.0267756 -0.00629528,-0.00698819 -0.0143898,-0.0114173 -0.0240787,-0.0131457 -0.00719291,-0.00138583 -0.0215866,-0.00200787 -0.0431732,-0.00200787l-0.0289921 0z"/>
   <path id="_1155290881" class="fil0" d="M0.264724 1.04048c0,-0.0303031 0.00449606,-0.0556969 0.013563,-0.076248 0.00677953,-0.0150827 0.0159803,-0.0287126 0.0276732,-0.040752 0.0116929,-0.0119685 0.0244961,-0.0208937 0.0384016,-0.0267087 0.0185433,-0.00788583 0.0398543,-0.0117598 0.0640709,-0.0117598 0.0437992,0 0.078811,0.0135591 0.105102,0.040752 0.0262913,0.027122 0.039437,0.0649016 0.039437,0.113264 0,0.0480197 -0.0130748,0.0855236 -0.0391614,0.112646 -0.0260827,0.0270512 -0.0609567,0.0406142 -0.104547,0.0406142 -0.0442126,0 -0.0793622,-0.0134921 -0.105445,-0.0404094 -0.0260866,-0.0269843 -0.0390945,-0.0641378 -0.0390945,-0.111398zm0.0617874 -0.00200394c0,0.033626 0.0078189,0.0591575 0.0233189,0.0765236 0.0155669,0.0173661 0.0352874,0.0260157 0.0592244,0.0260157 0.023874,0 0.0435236,-0.00857874 0.0588819,-0.025878 0.0152913,-0.0172283 0.0229724,-0.0430354 0.0229724,-0.0774921 0,-0.0340433 -0.00747244,-0.059437 -0.0223504,-0.076248 -0.0149449,-0.0167441 -0.0348031,-0.0251181 -0.0595039,-0.0251181 -0.0247677,0 -0.0446969,0.00851181 -0.0598504,0.0254646 -0.0150827,0.0169488 -0.0226929,0.0424803 -0.0226929,0.0767323z"/>
   <polygon id="_11552908812" class="fil0" points="0.601402,1.18723 0.601402,0.892484 0.661386,0.892484 0.661386,1.13714 0.810563,1.13714 0.810563,1.18723 "/>
   <polygon id="_115529088123" class="fil0" points="0.85498,1.18723 0.85498,0.892484 0.914969,0.892484 0.914969,1.13714 1.06415,1.13714 1.06415,1.18723 "/>
   <polygon id="_1155290881234" class="fil0" points="1.56163,1.18723 1.56163,0.890063 1.62162,0.890063 1.62162,1.02201 1.74285,0.890063 1.82353,0.890063 1.71164,1.00582 1.82961,1.18723 1.75198,1.18723 1.67033,1.04774 1.62162,1.09743 1.62162,1.18723 "/>
   <polygon id="_11552908812345" class="fil0" points="1.86123,1.18723 1.86123,0.890063 1.91963,0.890063 2.04127,1.0885 2.04127,0.890063 2.09704,0.890063 2.09704,1.18723 2.03676,1.18723 1.917,0.993441 1.917,1.18723 "/>
   <path id="_115529088123456" class="fil0" d="M2.1483 1.04048c0,-0.0303031 0.00449606,-0.0556969 0.013563,-0.076248 0.00677953,-0.0150827 0.0159803,-0.0287126 0.0276732,-0.040752 0.0116929,-0.0119685 0.0244961,-0.0208937 0.0384016,-0.0267087 0.0185433,-0.00788583 0.0398543,-0.0117598 0.0640709,-0.0117598 0.0437992,0 0.078811,0.0135591 0.105102,0.040752 0.0262913,0.027122 0.039437,0.0649016 0.039437,0.113264 0,0.0480197 -0.0130748,0.0855236 -0.0391614,0.112646 -0.0260827,0.0270512 -0.0609567,0.0406142 -0.104547,0.0406142 -0.0442126,0 -0.0793622,-0.0134921 -0.105445,-0.0404094 -0.0260866,-0.0269843 -0.0390945,-0.0641378 -0.0390945,-0.111398zm0.0617874 -0.00200394c0,0.033626 0.0078189,0.0591575 0.0233189,0.0765236 0.0155669,0.0173661 0.0352874,0.0260157 0.0592244,0.0260157 0.023874,0 0.0435236,-0.00857874 0.0588819,-0.025878 0.0152913,-0.0172283 0.0229724,-0.0430354 0.0229724,-0.0774921 0,-0.0340433 -0.00747244,-0.059437 -0.0223504,-0.076248 -0.0149449,-0.0167441 -0.0348031,-0.0251181 -0.0595039,-0.0251181 -0.0247677,0 -0.0446969,0.00851181 -0.0598504,0.0254646 -0.0150827,0.0169488 -0.0226929,0.0424803 -0.0226929,0.0767323z"/>
   <polygon id="_1155290881234567" class="fil0" points="2.52554,1.18723 2.45461,0.890063 2.51598,0.890063 2.56081,1.09417 2.61513,0.890063 2.68647,0.890063 2.73857,1.09763 2.78416,0.890063 2.84457,0.890063 2.77241,1.18723 2.70874,1.18723 2.64959,0.965059 2.59056,1.18723 "/>
   <g>
    <path id="_115456184" class="fil1" d="M2.02946 0.198646c-0.0786339,-0.12989 -0.246697,-0.196516 -0.416122,-0.198642 -0.174858,-0.00216535 -0.351394,0.0640669 -0.433031,0.200039 -0.00908661,0.0273976 -0.0182008,0.0456732 -0.0271811,0.12787l0.00149606 0.760866 -0.00441339 0.138799 0.269941 -0.49835c0.0497559,-8.66142e-005 0.199299,-0.000322835 0.199299,-0.000322835 0.238953,-0.000397638 0.447232,-0.100421 0.446803,-0.365957 -0.000102362,-0.0571496 -0.0109961,-0.112945 -0.0367913,-0.164303zm-0.253819 0.0903346c-0.0313189,-0.0415906 -0.099626,-0.0629646 -0.168012,-0.0626181 -0.093752,0.000480315 -0.187917,0.0419882 -0.18778,0.128476l0.00023622 0.160161 0.19576 -0.000358268c0.0712047,-0.000122047 0.11861,-0.0179921 0.142295,-0.041752 0.029626,-0.0237362 0.0414646,-0.0593543 0.0413701,-0.10087 -2.75591e-005,-0.0355709 -0.00600787,-0.059311 -0.0238701,-0.0830394z"/>
    <path id="_115456760" class="fil2" d="M1.18986 1.203c0.00735039,0.0138898 0.00719291,0.0312402 -0.00193307,0.045374 -0.0134291,0.0208189 -0.0412205,0.0268189 -0.0620354,0.0133858 -0.0208268,-0.0134291 -0.0268228,-0.0412205 -0.0133898,-0.0620433 0.000661417,-0.00101969 0.00135827,-0.00200787 0.00208661,-0.00295669l-0.00561417 0.000393701 0.011878 -0.0296378c0.0168307,-0.0420079 0.0366929,-0.0837677 0.0552756,-0.125075 0.00298819,-0.00664173 -0.015311,-0.0421535 -0.0185079,-0.0490433 -0.0113622,-0.0244882 -0.0220236,-0.0530354 -0.0104803,-0.0794921 0.012378,-0.0283701 0.0521693,-0.0527913 0.0764291,-0.0714213 0.0341339,-0.0262126 0.0627835,-0.0544016 0.0794567,-0.0949724l0.000692913 -0.00169291 0.000992126 -0.00153937c0.0497165,-0.0771102 -0.0114331,-0.16022 -0.0768465,-0.20272 -0.044622,-0.0290236 -0.108945,-0.051685 -0.161461,-0.0322756 -0.0295709,0.0109724 -0.0479567,0.0295472 -0.0648031,0.0556929 -0.0206024,0.0318189 -0.0199291,0.0701693 -0.00974409,0.105504 0.0107598,0.0317953 0.00940551,0.0591299 -0.0136142,0.085189l-0.00295276 0.00334252 -0.00409449 0.00177165c-0.0291575,0.0126142 -0.0577677,0.00919291 -0.0811142,-0.0125276 -0.0323031,-0.0248622 -0.0531299,-0.0661575 -0.058685,-0.106035 -0.00841732,-0.0603622 0.0155157,-0.116091 0.0539213,-0.16161 0.0206535,-0.0316654 0.0466063,-0.0590748 0.0791102,-0.0787402l0.000846457 -0.000511811 0.000893701 -0.000425197c0.101252,-0.0483268 0.228555,-0.0127874 0.319004,0.043752 0.0928976,0.0581024 0.18252,0.160323 0.182067,0.275665l-7.87402e-006 0.00256299 -0.00065748 0.00248425c-0.00771654,0.0290984 -0.0170866,0.0523976 -0.0304331,0.0793661l-0.00184646 0.00372835 -0.172484 0.145543 0.0105433 0.129697 -0.0717717 0.122228 -0.0107205 -0.00296063z"/>
    <path id="_115456088" class="fil3" d="M1.1637 1.20314c-0.0115433,-0.00744488 -0.0269449,-0.00412205 -0.0343937,0.0074252 -0.00744882,0.0115433 -0.00412205,0.0269449 0.00742126,0.0343898 0.0115433,0.00744882 0.0269449,0.00412598 0.0343937,-0.00742126 0.00744488,-0.0115433 0.00411811,-0.0269449 -0.00742126,-0.0343937zm-0.188921 -0.784157c0.0947638,-0.0452244 0.215567,-0.00998425 0.299783,0.0426614 0.0866024,0.0541614 0.173098,0.150563 0.172673,0.25863 -0.00766535,0.0289094 -0.0150276,0.0473386 -0.0290236,0.075622l-0.177177 0.1495 0.010874 0.133661 -0.0608031 0.103543c-0.0124134,-0.00342913 -0.0207441,-0.00982677 -0.051689,-0.00764567 0.0113701,-0.028378 0.0293425,-0.0673819 0.0549488,-0.124303 0.0134134,-0.0298071 -0.0466496,-0.0880551 -0.0288976,-0.128748 0.0186535,-0.042748 0.116748,-0.0711417 0.156051,-0.166783 0.0562362,-0.0872244 -0.00755118,-0.181469 -0.082752,-0.230323 -0.050252,-0.032689 -0.120429,-0.0560315 -0.179319,-0.0342677 -0.0337283,0.0125197 -0.0554055,0.0337244 -0.0746457,0.0635906 -0.023685,0.0365827 -0.0242756,0.0802205 -0.0120354,0.122366 0.00962598,0.0281654 0.00716142,0.047063 -0.00951575,0.0659449 -0.0230984,0.00998819 -0.0431693,0.00683465 -0.0602165,-0.00944094 -0.0459331,-0.0346969 -0.0917441,-0.134567 -0.0016378,-0.240417 0.0191299,-0.0295984 0.0431181,-0.0552795 0.0733819,-0.0735906z"/>
   </g>
  </g>
 </g>
</svg>
