<?xml version="1.0" encoding="UTF-8"?>
<!DOCTYPE svg PUBLIC "-//W3C//DTD SVG 1.1//EN" "http://www.w3.org/Graphics/SVG/1.1/DTD/svg11.dtd">
<!-- Creator: CorelDRAW -->
<svg xmlns="http://www.w3.org/2000/svg" xml:space="preserve" width="2.76654in" height="2.76654in" style="shape-rendering:geometricPrecision; text-rendering:geometricPrecision; image-rendering:optimizeQuality; fill-rule:evenodd; clip-rule:evenodd"
viewBox="0 0 2.15155 2.15155"
 xmlns:xlink="http://www.w3.org/1999/xlink">
 <defs>
  <style type="text/css">
   <![CDATA[
    .fil1 {fill:none}
    .fil0 {fill:#82C8BE}
   ]]>
  </style>
 </defs>
 <g id="Layer_x0020_1">
  <metadata id="CorelCorpID_0Corel-Layer"/>
  <path class="fil0" d="M1.10831 1.41501c0.0802656,-0.00133495 0.136217,0.0119044 0.16791,0.0397087 0.027143,0.0238332 0.0413468,0.0735235 0.0426083,0.149062 0.000520509,0.0310224 -0.000563375,0.0549903 -0.00324553,0.0718915 -0.0027342,0.016938 -0.00982538,0.0359213 -0.021347,0.0570141 -0.0115706,0.0211235 -0.0325043,0.0363101 -0.0628071,0.045566 -0.0303243,0.00930487 -0.0700054,0.0143385 -0.119047,0.015156 -0.0787837,0.00131352 -0.135473,-0.0119135 -0.17013,-0.0396597 -0.025655,-0.0225044 -0.038931,-0.0614017 -0.0398526,-0.116738l-0.000541942 -0.0323696c-0.000511324,-0.031004 0.000220451,-0.0546504 0.00218308,-0.070875 0.00194426,-0.0162185 0.00868638,-0.0348527 0.0202356,-0.0559854 0.0115492,-0.0210929 0.0324522,-0.0366408 0.0627887,-0.0465733 0.0302722,-0.00994479 0.0707188,-0.0153458 0.121245,-0.016197zm-0.047697 -1.05686c0.142972,-0.0023821 0.260408,0.041555 0.352336,0.131762 0.0918699,0.0902287 0.138866,0.196018 0.14089,0.317419 0.000967535,0.0580153 -0.00861596,0.111821 -0.0286892,0.16137 -0.0201162,0.0496229 -0.0447607,0.0887989 -0.0739399,0.117608 -0.0292098,0.028827 -0.0588145,0.053291 -0.0888417,0.0733459 -0.0300364,0.0200733 -0.0550913,0.0342985 -0.0751891,0.0427216l-0.0321981 0.0106521c0.000382727,0.0229606 -0.000330676,0.0404987 -0.00215246,0.0526786 -0.00182178,0.0121769 -0.0076821,0.0254162 -0.0175626,0.0397547 -0.00988661,0.0143201 -0.0265919,0.0247089 -0.0500699,0.0311846 -0.0235178,0.00645431 -0.0548188,0.0100275 -0.0939305,0.0106827 -0.0391392,0.000646044 -0.0705657,-0.00218002 -0.094255,-0.00857309 -0.0237322,-0.00632878 -0.0404619,-0.017532 -0.0501434,-0.0335453 -0.00971821,-0.0160378 -0.0156796,-0.0304284 -0.0179208,-0.0432206 -0.00224125,-0.012777 -0.0035762,-0.0326482 -0.00402629,-0.059635 -2.14327e-005,-0.00132271 0.00023576,-0.00371705 0.000884866,-0.00710954 0.000609302,-0.00335882 0.000900175,-0.00639002 0.000854248,-0.00912422 -0.000967535,-0.0579786 0.0147855,-0.104126 0.0472745,-0.138391 0.0324951,-0.0342679 0.0681867,-0.0571305 0.107139,-0.0685756 0.0389402,-0.0114512 0.0747023,-0.0302508 0.107344,-0.0564293 0.0326053,-0.0261816 0.0485849,-0.0601709 0.0478899,-0.101995 -0.000777702,-0.0458538 -0.0138333,-0.080734 -0.0391882,-0.104592 -0.0253733,-0.0238699 -0.0690838,-0.0352844 -0.131107,-0.0342556 -0.0377767,0.000624611 -0.068352,0.0089252 -0.0916739,0.024813 -0.0233617,0.0159061 -0.0376083,0.0319868 -0.0427154,0.0482665l-0.00565824 0.0243905c-0.0115553,0.0352813 -0.0252814,0.0621396 -0.0411539,0.0806146 -0.0158939,0.018472 -0.03868,0.0279697 -0.0683398,0.0284565 -0.021595,0.000361295 -0.0486676,-0.0052449 -0.0812423,-0.0168492 -0.05161,-0.0193783 -0.0873353,-0.038337 -0.1072,-0.05691 -0.0198835,-0.0185363 -0.0300058,-0.0392893 -0.0303824,-0.0622345 -0.000208204,-0.0121401 0.0047795,-0.0358049 0.0150121,-0.0710893l0.00386402 -0.0101836c0.00255356,-0.00812607 0.0064237,-0.0193354 0.0115859,-0.0335943 0.00514386,-0.0142375 0.0192466,-0.0390811 0.0422807,-0.0745553 0.0229943,-0.0354528 0.0494759,-0.0666129 0.0794052,-0.0934222 0.0299017,-0.0268001 0.0723018,-0.0517968 0.127265,-0.0749717 0.0549229,-0.023181 0.116104,-0.0353365 0.183556,-0.0364632z"/>
  <rect class="fil1" width="2.15155" height="2.15155"/>
 </g>
</svg>
