<?xml version="1.0" encoding="UTF-8"?>
<!DOCTYPE svg PUBLIC "-//W3C//DTD SVG 1.1//EN" "http://www.w3.org/Graphics/SVG/1.1/DTD/svg11.dtd">
<!-- Creator: CorelDRAW -->
<svg xmlns="http://www.w3.org/2000/svg" xml:space="preserve" width="6.81432in" height="6.81432in" style="shape-rendering:geometricPrecision; text-rendering:geometricPrecision; image-rendering:optimizeQuality; fill-rule:evenodd; clip-rule:evenodd"
viewBox="0 0 5.18344 5.18344"
 xmlns:xlink="http://www.w3.org/1999/xlink">
 <defs>
  <style type="text/css">
   <![CDATA[
    .fil5 {fill:#1F2E65}
    .fil8 {fill:#212B61}
    .fil13 {fill:#2E498F}
    .fil12 {fill:#3C5699}
    .fil11 {fill:#435B9D}
    .fil19 {fill:#45243F}
    .fil0 {fill:#7BC4A0}
    .fil6 {fill:#9FA8D1}
    .fil7 {fill:#A0732F}
    .fil20 {fill:#E4816E}
    .fil18 {fill:#E87B26}
    .fil10 {fill:#E87D64}
    .fil3 {fill:#E9803E}
    .fil15 {fill:#EB8A79}
    .fil9 {fill:#EC8C7B}
    .fil4 {fill:#EC8E37}
    .fil2 {fill:#ED9482}
    .fil17 {fill:#F2AEAB}
    .fil14 {fill:#F2C0B7}
    .fil16 {fill:#F6C3BB}
    .fil1 {fill:#F9E7CC}
   ]]>
  </style>
 </defs>
 <g id="Layer_x0020_1">
  <metadata id="CorelCorpID_0Corel-Layer"/>
  <polygon class="fil0" points="5.18344,5.18344 0,5.18344 0,0 5.18344,0 "/>
  <path class="fil1" d="M3.15284 1.41912c0.380331,0.316058 0.474232,0.917375 1.16759,1.17534 0.0980633,0.0364672 0.201098,0.0615872 0.288353,0.126151 0.394742,0.292037 0.287506,1.1985 -0.573649,1.35178 -0.838236,0.149199 -1.15667,-0.498771 -1.39632,-0.77451 -0.831953,-0.957193 -1.86117,-0.494437 -1.96331,-0.998494 -0.0563913,-0.278282 0.240299,-0.373842 0.510678,-0.582962 0.408512,-0.315953 1.49328,-0.690675 1.96666,-0.297302z"/>
  <g id="_113516616">
   <path id="_190116624" class="fil1" d="M3.21341 2.93459c0.070805,0.0289743 0.145009,0.0669718 0.178371,0.135818 0.0471405,0.0973116 -0.0128355,0.221414 -0.107494,0.273664 -0.0946703,0.0522465 -0.211163,0.0468051 -0.316055,0.0205351 -0.246525,-0.0617249 -0.454526,-0.225802 -0.635754,-0.403945 -0.235604,-0.231609 0.103142,-0.191644 0.269666,-0.174732 0.209268,0.0212718 0.416355,0.0689064 0.611266,0.14866z"/>
   <path id="_113951672" class="fil2" d="M2.11976 2.83013c0,0 -0.126238,-0.36873 -0.0721826,-0.504338 0.0829158,-0.207983 0.260229,-0.37265 0.260229,-0.37265l0.0596047 0.0305825c0,0 -0.142643,0.217291 -0.183129,0.32014 -0.0207447,0.0526748 -0.018858,0.17914 0.0971829,0.37834 -0.0810142,0.0646358 -0.109869,0.0723803 -0.161705,0.147926z"/>
   <path id="_113434200" class="fil2" d="M2.30781 1.95314c0,0 0.071976,-0.113858 0.0839221,-0.110779 0.00621712,0.00159321 -0.0170042,0.0459246 -0.0170042,0.0459246 2.99476e-006,-2.99476e-006 0.0367367,-0.0528904 0.0436785,-0.0473471 0.0126828,0.0101402 -0.0282795,0.0520728 -0.0282795,0.0520728 0,0 0.0421422,-0.0421931 0.0470716,-0.0362096 0.0087417,0.0105925 -0.0387582,0.0522166 -0.0387582,0.0522166 0,0 0.0437923,-0.0393841 0.0503299,-0.0338258 0.00654354,0.00554629 -0.0516296,0.054828 -0.0516296,0.054828 0,0 0.0390756,-0.0173307 0.041705,-0.00364462 0.00262341,0.0136801 -0.071431,0.0573466 -0.071431,0.0573466l-0.0596047 -0.0305825z"/>
   <path id="_113433816" class="fil2" d="M2.96058 2.82707c0,0 0.119033,-0.358062 0.0692598,-0.490008 -0.0763304,-0.202386 -0.230093,-0.382185 -0.230093,-0.382185l-0.0556186 0.0295642c0,0 0.121285,0.230848 0.158551,0.330933 0.0190946,0.0512613 0.0168275,0.174175 -0.0920139,0.367475 0.0751504,0.0630486 0.101974,0.0706463 0.149915,0.144222z"/>
   <path id="_113430624" class="fil2" d="M2.81333 1.97905c0,0 -0.042828,-0.127708 -0.0551664,-0.127565 -0.00640579,7.48689e-005 0.0056002,0.0486528 0.0056002,0.0486528 2.99476e-006,0 -0.0230956,-0.0601078 -0.0311634,-0.0563763 -0.0147312,0.00681906 0.0150726,0.0572987 0.0150726,0.0572987 0,-2.99476e-006 -0.0308909,-0.0510067 -0.037102,-0.0463708 -0.0110087,0.00821761 0.0252218,0.0599491 0.0252218,0.0599491 2.99476e-006,0 -0.0331609,-0.0486708 -0.0408335,-0.0448345 -0.00767257,0.00382431 0.037102,0.0655373 0.037102,0.0655373 2.99476e-006,0 -0.0338258,-0.0261233 -0.0396296,-0.0134644 -0.00580683,0.0126558 0.0557294,0.0726917 0.0557294,0.0726917l0.0651689 -0.0155188z"/>
   <path id="_113430360" class="fil3" d="M2.51195 0.726007c0.13984,-0.00232992 0.254704,0.0406448 0.344619,0.128876 0.0898577,0.0882525 0.135824,0.191724 0.137804,0.310466 0.000946343,0.0567447 -0.00842725,0.109372 -0.0280609,0.157836 -0.0196756,0.048536 -0.0437804,0.086854 -0.0723204,0.115032 -0.02857,0.0281956 -0.0575263,0.0521238 -0.0868959,0.0717394 -0.0293786,0.0196336 -0.0538847,0.0335473 -0.0735423,0.0417858l-0.0314929 0.0104188c0.000374345,0.0224577 -0.000323434,0.0396117 -0.00210531,0.0515248 -0.00178188,0.0119102 -0.00751385,0.0248595 -0.0171779,0.0388839 -0.00967007,0.0140065 -0.0260095,0.0241677 -0.0489733,0.0305016 -0.0230027,0.00631295 -0.0536181,0.00980783 -0.0918732,0.0104487 -0.038282,0.000631894 -0.0690202,-0.00213227 -0.0921906,-0.00838532 -0.0232124,-0.00619016 -0.0395757,-0.017148 -0.0490451,-0.0328106 -0.00950536,-0.0156865 -0.0153362,-0.0297619 -0.0175283,-0.042274 -0.00219216,-0.0124971 -0.00349788,-0.0319331 -0.00393811,-0.0583289 -2.09633e-005,-0.00129374 0.000230596,-0.00363564 0.000865485,-0.00695383 0.000595957,-0.00328525 0.000880459,-0.00625006 0.000835537,-0.00892438 -0.000946343,-0.0567087 0.0144617,-0.101846 0.0462391,-0.13536 0.0317834,-0.0335173 0.0666932,-0.0558792 0.104793,-0.0670736 0.0380873,-0.0112004 0.0730661,-0.0295882 0.104993,-0.0551934 0.0318912,-0.0256082 0.0475208,-0.058853 0.046841,-0.0997614 -0.000757674,-0.0448495 -0.0135303,-0.0789658 -0.0383299,-0.102301 -0.0248176,-0.0233471 -0.0675707,-0.0345116 -0.128236,-0.0335053 -0.0369493,0.000610931 -0.066855,0.00872972 -0.089663,0.0242695 -0.022853,0.0155578 -0.0367876,0.0312862 -0.0417829,0.0472094l-0.00553431 0.0238562c-0.0113022,0.0345086 -0.0247277,0.0607786 -0.0402525,0.078849 -0.0155458,0.0180674 -0.0378328,0.0273571 -0.066843,0.0278333 -0.021122,0.000353381 -0.0476017,-0.00513002 -0.0794629,-0.0164801 -0.0504796,-0.0189538 -0.0854225,-0.0374974 -0.104852,-0.0556636 -0.019448,-0.0181303 -0.0293486,-0.0384287 -0.029717,-0.0608714 -0.000203644,-0.0118742 0.00467482,-0.0350207 0.0146833,-0.0695323l0.00377938 -0.00996056c0.00249763,-0.00794809 0.006283,-0.0189119 0.0113322,-0.0328585 0.00503119,-0.0139256 0.018825,-0.0382251 0.0413546,-0.0729223 0.0224906,-0.0346763 0.0483923,-0.0651539 0.077666,-0.091376 0.0292468,-0.0262131 0.0707182,-0.0506623 0.124477,-0.0733296 0.05372,-0.0226733 0.113561,-0.0345625 0.179536,-0.0356646z"/>
   <path id="_113436816" class="fil3" d="M2.5586 1.75972c0.0785076,-0.00130571 0.133234,0.0116436 0.164232,0.038839 0.0265485,0.0233112 0.0404412,0.0719131 0.041675,0.145797 0.000509109,0.0303429 -0.000551035,0.0537858 -0.00317444,0.0703169 -0.00267432,0.016567 -0.00960718,0.0351345 -0.0208794,0.0557654 -0.0113172,0.0206608 -0.0317923,0.0355148 -0.0614315,0.044568 -0.0296601,0.00910107 -0.0684721,0.0140244 -0.116439,0.014824 -0.0770581,0.00128475 -0.132506,-0.0116526 -0.166404,-0.0387911 -0.0250931,-0.0220115 -0.0380783,-0.0600569 -0.0389798,-0.114181l-0.000530072 -0.0316606c-0.000500124,-0.0303249 0.000215623,-0.0534534 0.00213526,-0.0693226 0.00190167,-0.0158632 0.00849613,-0.0340893 0.0197924,-0.0547591 0.0112962,-0.0206309 0.0317414,-0.0358383 0.0614135,-0.0455533 0.0296092,-0.00972697 0.0691699,-0.0150097 0.118589,-0.0158423z"/>
   <path id="_186563936" class="fil4" d="M2.44524 3.9764c-0.0579965,-0.00181482 -0.116855,-0.00073671 -0.174855,0.00162915 -0.00427651,0.000164712 -0.00867581,0.000485151 -0.0130871,0.000943349 -0.0237155,0.0208465 -0.0327656,0.0465565 -0.0312024,0.0854135 0.00107811,0.0269109 0.0110686,0.0507971 0.039965,0.0756655 0.0366588,0.00387821 0.18976,0.00670826 0.226368,-0.0187292 0.0163304,-0.0113531 0.0305196,-0.0287287 0.0330801,-0.0497519 0.00583978,-0.047979 -0.0396416,-0.0938946 -0.0802685,-0.0951704z"/>
   <path id="_186563600" class="fil4" d="M2.2261 4.06439c-0.000676815,-0.038869 0.0074839,-0.064567 0.0311994,-0.0854135 -0.0191844,0.00197055 -0.0385186,0.00745395 -0.0483803,0.0247247 -0.00565111,0.00989767 -0.00698377,0.0219965 -0.00755877,0.0336731 -0.00172498,0.0346763 -0.0127068,0.0944816 0.0647017,0.102681 -0.00429149,-0.00508809 -0.0395847,-0.0534834 -0.039962,-0.0756655z"/>
   <path id="_186563288" class="fil5" d="M2.22666 4.04173c-0.00163514,-0.0389289 0.0118862,-0.04629 0.0306334,-0.0627611 0.00441128,-0.000458198 0.00880758,-0.000778637 0.0130871,-0.000943349 0.0579995,-0.00236586 0.116858,-0.00344397 0.174855,-0.00162615 0.0155248,0.000485151 0.0317295,0.00753481 0.0455383,0.0186693 0.0154709,-0.00892737 0.036566,-0.0168156 0.0467991,-0.00165011 0.0172199,0.0255872 0.0153302,0.111582 0.00807686,0.120701 -0.00467781,0.00587871 -0.0255573,0.00577689 -0.0433042,-0.000835537 -0.00315947,0.00291989 -0.00647766,0.00562715 -0.00992163,0.00803493 -0.0366079,0.0254375 -0.189703,0.0226074 -0.226368,0.0187292 -0.0259825,-0.0223589 -0.0366019,-0.0439451 -0.0392852,-0.0676336l-0.000110806 -0.0306843z"/>
   <path id="_186562976" class="fil6" d="M2.59673 4.17749c-0.0321158,0 -0.0650821,-0.000257549 -0.0986832,-0.000775642 -0.334416,-0.00522585 -0.605112,-0.0352483 -0.604618,-0.0670646 0.000335413,-0.0214365 0.123692,-0.0382221 0.306457,-0.0453017 -0.000628899,0.0324781 0.0065705,0.0693945 0.0661752,0.0757075l0 0c5.39056e-005,0 0.000104817,1.1979e-005 0.000155727,1.1979e-005 0.00201547,0.000206638 0.00437534,0.000422261 0.00704367,0.000619915 4.49214e-005,0 8.98427e-005,0 0.000131769,1.1979e-005 2.09633e-005,0 4.49214e-005,0 7.18742e-005,0 0.0122306,0.000910406 0.030831,0.00166808 0.0522166,0.00183279 5.69004e-005,0 0.000107811,0 0.000161717,0 5.98951e-006,0 1.49738e-005,0 2.09633e-005,0 0.00297679,3.29423e-005 0.00600449,4.19266e-005 0.0090801,4.19266e-005l0 0 2.99476e-006 0c0.00259945,0 0.00522885,-8.98427e-006 0.0078852,-2.99476e-005 0.000266533,0 0.000542051,0 0.000811579,0 0.000646868,-1.1979e-005 0.00129074,-1.1979e-005 0.00193761,-2.09633e-005 0.0560229,-0.000518093 0.122477,-0.00530671 0.145976,-0.0206189 0,0 1.1979e-005,-8.98427e-006 2.09633e-005,-8.98427e-006 0.000128775,-8.6848e-005 0.00025156,-0.000167706 0.00036536,-0.00025156 0.000164712,-0.000101822 0.000320439,-0.000215623 0.000485151,-0.000317444l0 -2.99476e-006c0.00345296,-0.00240479 0.00682206,-0.00507911 0.00999351,-0.00800199 0.00918792,0.00341103 0.0192024,0.00507911 0.0273811,0.00507911 0.0075977,0 0.0135992,-0.00144347 0.0158513,-0.00427352 0.00350087,-0.00441427 0.00576191,-0.0268091 0.00520189,-0.0516446 0.310499,0.00729523 0.554078,0.0358802 0.553611,0.0660584 -0.000455203,0.0286209 -0.220181,0.0489493 -0.507737,0.0489493m-0.370574 -0.111827c-2.99476e-005,-0.000437235 -5.09109e-005,-0.000859495 -5.98951e-005,-0.00127277l2.99476e-006 0c1.49738e-005,0.000425256 3.59371e-005,0.000847516 5.69004e-005,0.00127277z"/>
   <path id="_186562952" class="fil7" d="M2.33494 4.14257c-0.00307262,0 -0.00610332,-8.98427e-006 -0.0090801,-4.19266e-005 0.00297679,3.29423e-005 0.00600748,4.19266e-005 0.0090801,4.19266e-005l0 0m0.00788819 -2.99476e-005c0.000266533,0 0.000542051,0 0.000811579,0 -0.000269528,0 -0.000545046,0 -0.000811579,0m-0.0169893 -1.1979e-005c-5.39056e-005,0 -0.000107811,0 -0.000161717,0 5.98951e-005,0 0.000104817,0 0.000161717,0m0.0197384 -8.98427e-006c0.0560199,-0.000518093 0.122477,-0.00530671 0.145976,-0.0206189 -0.0234999,0.0153092 -0.0899535,0.0201008 -0.145976,0.0206189m-0.0721168 -0.00182381c-2.69528e-005,0 -5.09109e-005,0 -7.18742e-005,0 2.09633e-005,0 4.49214e-005,0 7.18742e-005,0m-0.000203644 -1.1979e-005c-0.00266833,-0.000197654 -0.0050282,-0.000413277 -0.00704367,-0.000619915 0.00201547,0.000206638 0.00437534,0.000422261 0.00704367,0.000619915m0.218318 -0.0187951c0.000128775,-8.38532e-005 0.00025156,-0.000164712 0.00036536,-0.000248565 -0.000113801,8.38532e-005 -0.000239581,0.000164712 -0.00036536,0.00025156m0.000850511 -0.000571999c0.00344397,-0.00240479 0.00675917,-0.00511205 0.00992163,-0.00803194 2.99476e-005,8.98427e-006 5.09109e-005,2.09633e-005 7.18742e-005,2.99476e-005 -0.00317145,0.00292288 -0.00654055,0.0055972 -0.00999351,0.00800499m-0.265662 -0.051435c-0.000305465,-0.00147941 -0.000515098,-0.00288994 -0.000610931,-0.0042286 -2.09633e-005,-0.000425256 -4.19266e-005,-0.000847516 -5.98951e-005,-0.00127277l2.99476e-006 0c-5.98951e-006,-0.000332418 -1.1979e-005,-0.000652857 -1.79685e-005,-0.000976291 0.000224607,0 0.000437235,-8.98427e-006 0.000661841,-2.09633e-005l2.39581e-005 0.00649862z"/>
   <path id="_186562856" class="fil7" d="M2.26606 4.14005c-0.0596047,-0.00631295 -0.0668041,-0.0432293 -0.0661752,-0.0757075 0.00859196,-0.000332418 0.0173486,-0.000643873 0.0261951,-0.000934364 5.98951e-006,0.000323434 1.1979e-005,0.000643873 1.49738e-005,0.000976291l2.99476e-006 0c5.98951e-006,0.000413277 2.39581e-005,0.000838532 5.69004e-005,0.00127277 9.58322e-005,0.00133866 0.00030247,0.00274919 0.000610931,0.0042286l8.98427e-006 0.00253057c0.0026833,0.0236885 0.0133027,0.0452747 0.0392852,0.0676336z"/>
   <path id="_186562712" class="fil8" d="M2.33494 4.14257l-2.99476e-006 0c-0.00307262,0 -0.00610332,-8.98427e-006 -0.0090801,-4.19266e-005 -5.98951e-006,0 -1.49738e-005,0 -2.09633e-005,0 -5.69004e-005,0 -0.000101822,0 -0.000161717,0 -0.0213856,-0.000164712 -0.039986,-0.000922385 -0.0522166,-0.00183279 -2.69528e-005,0 -5.09109e-005,0 -7.18742e-005,0 -4.19266e-005,-1.1979e-005 -8.98427e-005,-1.1979e-005 -0.000131769,-1.1979e-005 -0.00266833,-0.000197654 -0.0050282,-0.000413277 -0.00704367,-0.000619915 -4.79161e-005,0 -0.000101822,-1.1979e-005 -0.000155727,-1.1979e-005l0 0c-0.0259825,-0.0223589 -0.0366019,-0.0439451 -0.0392852,-0.0676336l-8.98427e-006 -0.00253057 -2.39581e-005 -0.00649862c0.0540134,-0.00175193 0.112654,-0.00269528 0.174427,-0.00269528 0.0321158,0 0.0650851,0.000257549 0.0986832,0.000778637 0.0171779,0.000266533 0.0341911,0.000598951 0.0510037,0.00100624 0.000563014,0.0248355 -0.00170102,0.0472303 -0.00520189,0.0516446 -0.00224906,0.00283005 -0.00825355,0.00427352 -0.0158513,0.00427352 -0.00817868,0 -0.0181932,-0.00166808 -0.0273811,-0.00507911 -2.09633e-005,-1.1979e-005 -4.19266e-005,-2.09633e-005 -7.18742e-005,-2.99476e-005 -0.00315947,0.00291989 -0.00647766,0.00562715 -0.00992163,0.00803493l0 -2.99476e-006c-0.000164712,0.000104817 -0.000320439,0.000218617 -0.000485151,0.000320439 -0.000113801,8.38532e-005 -0.000239581,0.000164712 -0.00036536,0.00025156 -8.98427e-006,-2.99476e-006 -2.09633e-005,8.98427e-006 -2.09633e-005,8.98427e-006 -0.0234999,0.0153092 -0.0899565,0.0201008 -0.145976,0.0206189 -0.000646868,8.98427e-006 -0.00129374,8.98427e-006 -0.00193761,2.09633e-005 -0.000269528,0 -0.000545046,0 -0.000811579,0 -0.00265635,2.09633e-005 -0.00528575,2.99476e-005 -0.0078852,2.99476e-005z"/>
   <path id="_186563072" class="fil9" d="M2.50609 3.96136c-0.00749288,0.0127816 -0.00629199,0.0284232 0.00212328,0.0406179 0.0041687,0.00601946 0.00772348,0.0126888 0.0112992,0.0189778 0.00806788,0.0141712 0.0198253,0.0290282 0.0361108,0.0297349 0.00627102,0.000278512 0.0124193,-0.00166209 0.0183698,-0.00369254 0.027408,-0.00934065 0.0540314,-0.0209813 0.0795018,-0.0347482 0.00517494,-0.00278812 0.0106464,-0.0060524 0.0129374,-0.0114549 0.00278213,-0.00658547 -5.09109e-005,-0.0141622 -0.00377339,-0.0202595 -0.00968205,-0.0158902 -0.0250871,-0.0274829 -0.0361377,-0.0424716 -0.0173726,-0.0235867 -0.037123,-0.0821462 -0.0743508,-0.0540404 -0.0074839,0.00566009 -0.0297529,0.0495003 -0.0460803,0.0773366z"/>
   <path id="_186563168" class="fil10" d="M2.59614 3.99979c0.00910406,0.0116975 0.00995158,0.0273811 0.0032014,0.040546 -0.00333616,0.00651959 -0.00599251,0.0136022 -0.00872672,0.0203015 -0.00614824,0.0151026 -0.0158513,0.0313671 -0.0319121,0.0341971 -0.00618717,0.00109908 -0.0125331,-2.69528e-005 -0.0186903,-0.00126379 -0.0283933,-0.00569004 -0.0563224,-0.0137459 -0.083374,-0.0240599 -0.00549239,-0.00209633 -0.0113411,-0.00461492 -0.0143149,-0.00968205 -0.00361467,-0.00616022 -0.00179086,-0.0140394 0.00109309,-0.020568 0.00753181,-0.0170372 0.0212927,-0.0305226 0.03028,-0.046841 0.0141502,-0.0256471 0.0260843,-0.086282 0.0666573,-0.0632762 0.0081697,0.00462989 0.035964,0.0451789 0.0557863,0.0706463z"/>
   <path id="_113432640" class="fil11" d="M2.63081 3.86965c0,0 -0.123156,0.16667 -0.204647,0.232768 -0.0180404,0.0146384 -0.0438612,0.0142461 -0.0612697,-0.001141 -0.115505,-0.10204 -0.557786,-0.503931 -0.576009,-0.543201 -0.0551964,-0.118961 0.0666094,-0.206072 0.18752,-0.179928 0.120913,0.0261562 0.654405,0.491503 0.654405,0.491503z"/>
   <path id="_113432832" class="fil12" d="M2.42538 4.10305c-0.0177739,0.0143269 -0.0433581,0.0133626 -0.0604731,-0.00175493 -0.11549,-0.102028 -0.557798,-0.503952 -0.576021,-0.543222 -0.0135782,-0.0292767 -0.0163993,-0.0566039 -0.0111974,-0.0808105 0.0210981,0.00173097 0.0426573,0.00995457 0.0603833,0.0216132 0.0611589,0.0402046 0.094263,0.11074 0.144228,0.164244 0.0589308,0.0630816 0.139678,0.100735 0.219872,0.132707 0.0801816,0.031981 0.163088,0.0603983 0.233669,0.110105 0.0372188,0.0262311 0.0722276,0.061144 0.0796935,0.106416l-9.58322e-005 0.000311455c-0.0306124,0.034832 -0.0627222,0.0683523 -0.0900583,0.0903908z"/>
   <path id="_113432856" class="fil5" d="M3.006 3.58084l-0.109434 -0.118287 -0.723824 -0.0268091 -0.00267731 0.00500424c-0.00212029,-0.000389318 -0.00338408,-0.000628899 -0.00338408,-0.000628899l-0.0313192 0.0586224 0.0127157 0.00911305c0.00421063,0.00150636 0.00870276,0.00237484 0.0132578,0.0028001l0.388845 0.318109 0.45582 -0.247924z"/>
   <path id="_113433216" class="fil13" d="M2.63081 3.86965c0,0 -0.123156,0.16667 -0.204647,0.232768 -0.0180404,0.0146384 -0.0438612,0.0142461 -0.0612697,-0.001141 -0.115505,-0.10204 -0.557786,-0.503931 -0.576009,-0.543201 -0.0551964,-0.118961 0.0666094,-0.206072 0.18752,-0.179928 0.120913,0.0261562 0.654405,0.491503 0.654405,0.491503z"/>
   <path id="_113433264" class="fil2" d="M2.57656 2.61969c0,0 -0.0103978,0.0922265 0.0882944,0.0940264 0.0585954,0.00106913 -0.0646987,0.0978327 -0.0901991,0.112606 -0.0255153,0.0147612 -0.108284,0.0063968 -0.108284,0.0063968l-0.0858297 -0.124372 0.0316127 -0.00141053c0.0584367,0.00271624 0.0786843,-0.0308071 0.0884082,-0.0768874l0.000341402 -0.00160818c0.0109488,-0.0539805 0.0756566,-0.00875068 0.0756566,-0.00875068z"/>
   <path id="_113433312" class="fil14" d="M2.5852 2.6694c-8.38532e-005,-0.00018867 -0.000167706,-0.000374345 -0.000260544,-0.00056002 9.28375e-005,0.000185675 0.00018867,0.000374345 0.000281507,0.000551035 -1.1979e-005,8.98427e-006 -1.1979e-005,8.98427e-006 -2.39581e-005,8.98427e-006m-0.0972697 -0.00132967c0,0 -8.98427e-006,-8.98427e-006 -8.98427e-006,-8.98427e-006 7.18742e-005,-0.00012578 0.000143748,-0.000257549 0.000215623,-0.000392313 -7.18742e-005,0.000134764 -0.000134764,0.000269528 -0.000206638,0.000404292m0.00706164 -0.0169952c0.000557025,-0.00171001 0.00109908,-0.00344996 0.00161417,-0.00521986 1.1979e-005,-2.99476e-006 1.1979e-005,0 2.09633e-005,8.98427e-006 -0.000527077,0.00176092 -0.00106613,0.00350087 -0.00163514,0.00521088z"/>
   <path id="_113433360" class="fil15" d="M2.53998 2.67924c-0.0244552,0 -0.0341672,-0.00344098 -0.0520519,-0.0111645 7.18742e-005,-0.000137759 0.000134764,-0.000269528 0.000206638,-0.000404292 0.00249763,-0.00461492 0.00481258,-0.0103679 0.006855,-0.016588 0.000569004,-0.001713 0.00110806,-0.00345296 0.00163514,-0.00521387 0.0139765,0.00780434 0.0288305,0.0123564 0.0445051,0.012584 0.000407287,0 0.000808584,0 0.00120389,0 0.0130512,0 0.0250571,-0.00299476 0.0360958,-0.00838532 0.00133866,0.0060524 0.00339007,0.0124911 0.0065106,0.0187741 9.28375e-005,0.000185675 0.000176691,0.000374345 0.000257549,0.00056002 -0.00676815,0.00483054 -0.0164292,0.00962815 -0.0430826,0.0098258 -0.000724731,1.1979e-005 -0.00144048,1.1979e-005 -0.00213526,1.1979e-005z"/>
   <path id="_113433384" class="fil2" d="M2.6977 2.3771c0,0 -0.0293187,0.283133 -0.156572,0.281348 -0.127241,-0.00178188 -0.199598,-0.288766 -0.199598,-0.288766l0.222322 -0.108731c0,0 0.0835867,0.0561158 0.085102,0.0595178 0.00152433,0.00339905 0.0487457,0.0566309 0.0487457,0.0566309z"/>
   <path id="_113433480" class="fil16" d="M2.68183 2.43557c0,0 0.0463409,-0.0205351 0.0334425,0.0119431 -0.0128954,0.0324751 -0.0418487,0.0270037 -0.0418487,0.0270037l0.00840628 -0.0389468z"/>
   <path id="_113433528" class="fil17" d="M2.68612 2.44697c0,0 0.0190976,-0.0146054 0.0187951,0.000571999 -0.000197654,0.009712 -0.0220684,0.0141832 -0.0220684,0.0141832l0.00327327 -0.0147552z"/>
   <polygon id="_113433576" class="fil18" points="2.28237,2.98966 2.30601,2.95461 2.27522,3.01422 "/>
   <path id="_113433672" class="fil13" d="M2.91163 3.49618c0,0 0.217788,-0.221313 0.32547,-0.124588 0.0185136,0.0166269 0.0367577,0.0701312 0.026857,0.113411 -0.0386983,0.169105 -0.295091,0.440906 -0.483201,0.623559 2.99476e-006,0 -0.0529503,-0.0450981 -0.171195,-0.172516 -0.084521,-0.0910736 -0.0843144,-0.104436 -0.0843144,-0.104436l0.386384 -0.335431z"/>
   <path id="_113433696" class="fil4" d="M2.66824 3.9764c0.0579905,-0.00181482 0.116855,-0.00073671 0.174846,0.00162915 0.0042855,0.000164712 0.00867881,0.000485151 0.0130931,0.000943349 0.0237095,0.0208465 0.0327626,0.0465565 0.0311964,0.0854135 -0.00108111,0.0269109 -0.0110626,0.0507971 -0.039965,0.0756655 -0.0366588,0.00387821 -0.189757,0.00670826 -0.226359,-0.0187292 -0.0163304,-0.0113531 -0.0305226,-0.0287287 -0.0330831,-0.0497519 -0.00583678,-0.047979 0.0396326,-0.0938946 0.0802715,-0.0951704z"/>
   <path id="_113433840" class="fil4" d="M2.88737 4.06439c0.00067382,-0.038869 -0.00748689,-0.064567 -0.0311964,-0.0854135 0.0191814,0.00197055 0.0385156,0.00745395 0.0483743,0.0247247 0.00566009,0.00989767 0.00697778,0.0219965 0.00756775,0.0336731 0.00172199,0.0346763 0.0126978,0.0944816 -0.0647107,0.102681 0.00429149,-0.00508809 0.0395817,-0.0534834 0.039965,-0.0756655z"/>
   <path id="_113433936" class="fil5" d="M2.88681 4.04173c0.00162915,-0.0389289 -0.0118922,-0.04629 -0.0306364,-0.0627611 -0.00441427,-0.000458198 -0.00881058,-0.000778637 -0.0130931,-0.000943349 -0.0579905,-0.00236586 -0.116855,-0.00344397 -0.174846,-0.00162615 -0.0155308,0.000485151 -0.0317354,0.00753481 -0.0455443,0.0186693 -0.0154739,-0.00892737 -0.036575,-0.0168156 -0.0467931,-0.00165011 -0.0172318,0.0255872 -0.0153362,0.111582 -0.00807686,0.120701 0.00466583,0.00587871 0.0255423,0.00577689 0.0432922,-0.000835537 0.00317444,0.00291989 0.00648066,0.00562715 0.00993361,0.00803493 0.0366019,0.0254375 0.1897,0.0226074 0.226359,0.0187292 0.0259915,-0.0223589 0.0366049,-0.0439451 0.0392912,-0.0676336l0.000113801 -0.0306843z"/>
   <path id="_113434008" class="fil4" d="M2.79131 2.64069c-0.0216371,0 -0.0309568,0.0804572 -0.0823558,0.0690501 -0.0135992,-0.00301572 -0.0273781,-0.00487247 -0.0412827,-0.00566608l-0.0499136 -0.000853506c0,0 0.0114849,0.0836915 -0.0921307,0.0929393 -0.103619,-0.00924781 -0.0919331,-0.0908849 -0.0919331,-0.0908849l-0.0501053 0.00286299c-0.0139047,0.000802595 -0.0276925,0.00265336 -0.0412917,0.00567806 -0.05139,0.011416 -0.0607157,-0.073126 -0.0823498,-0.073126 -0.0905465,0 -0.211181,0.0957993 -0.185118,0.171477 0.0123654,0.0358892 0.190727,0.178631 0.20754,0.177493l-0.127678 0.472893c-0.0254554,-0.00666633 0.13592,0.0640878 0.370553,0.0625036l0.000383329 2.69528e-005 0.000383329 -2.69528e-005c0.282082,-0.00913401 0.370553,-0.0625036 0.370553,-0.0625036l-0.127678 -0.472893c0.0168156,0.00113801 0.195177,-0.141604 0.207546,-0.177493 0.0260604,-0.0756775 -0.0945774,-0.171477 -0.185121,-0.171477z"/>
   <path id="_113434056" class="fil19" d="M2.75018 2.3663c0.00347392,-0.0933316 -0.0379735,-0.12189 -0.0459456,-0.127106 0.00813077,-0.0269139 -0.000703768,-0.0501742 -0.0156087,-0.056559 -0.011434,-0.00490541 -0.0335383,0.00380334 -0.0581792,0.0125121 -0.0300943,0.0106254 -0.063986,0.0212598 -0.0868959,0.00711854 -0.0416631,-0.025719 -0.147007,-0.0631744 -0.195989,-0.0232603 -0.0489852,0.0399111 -0.0272164,0.145135 0.0798223,0.185651 0.0813855,0.0308071 0.198103,0.0219965 0.23696,-0.00623209 0.00889443,-0.00645969 0.0213975,0.0126888 0.0238353,0.023398 0.0128445,0.0564272 -0.0292139,0.143353 -0.0258987,0.150711 0.00556725,0.0123713 0.0859016,-0.112654 0.0878991,-0.166233z"/>
   <path id="_113434080" class="fil19" d="M2.32089 2.30878c0,0 -0.0151056,0.0504976 0.00024557,0.112648 0.00997554,0.0403873 0.0656211,0.119913 0.07598,0.100827 0.00213227,-0.00392912 -0.0359251,-0.0920139 -0.0184717,-0.160582 0.00497729,-0.0195318 0.0380873,-0.0203374 0.0362276,-0.034853 -0.00465984,-0.0364103 -0.0573406,-0.0712632 -0.0667771,-0.065148 -0.0254015,0.0164652 -0.0272044,0.0471075 -0.0272044,0.0471075z"/>
   <path id="_113434104" class="fil2" d="M2.37724 2.42338c0,0 -0.0463409,-0.0205351 -0.0334455,0.0119431 0.0128984,0.0324811 0.0418517,0.0270067 0.0418517,0.0270067l-0.00840628 -0.0389498z"/>
   <path id="_113518632" class="fil20" d="M2.37623 2.44955c0,0 -0.0218737,-0.00447716 -0.0220684,-0.0141922 -0.000104817,-0.00518393 0.0020574,-0.00689393 0.00495333,-0.00689393 0.00556725,0 0.0138418,0.00632493 0.0138418,0.00632493l0.00327327 0.0147612z"/>
   <path id="_113518776" class="fil2" d="M2.68183 2.43557c0,0 0.0463409,-0.0205351 0.0334425,0.0119431 -0.0128954,0.0324751 -0.0418487,0.0270037 -0.0418487,0.0270037l0.00840628 -0.0389468z"/>
   <path id="_113515536" class="fil20" d="M2.68285 2.46173l0.00327327 -0.0147522c0,0 0.00827451,-0.00632193 0.0138418,-0.00632193 0.00288994,-2.99476e-006 0.00505815,0.00169803 0.00495333,0.00689393 -0.000197654,0.009712 -0.0220684,0.0141832 -0.0220684,0.0141802z"/>
  </g>
 </g>
</svg>
