<?xml version="1.0" encoding="UTF-8"?>
<!DOCTYPE svg PUBLIC "-//W3C//DTD SVG 1.1//EN" "http://www.w3.org/Graphics/SVG/1.1/DTD/svg11.dtd">
<!-- Creator: CorelDRAW -->
<svg xmlns="http://www.w3.org/2000/svg" xml:space="preserve" width="6.81432in" height="6.81432in" style="shape-rendering:geometricPrecision; text-rendering:geometricPrecision; image-rendering:optimizeQuality; fill-rule:evenodd; clip-rule:evenodd"
viewBox="0 0 6.87449 6.87449"
 xmlns:xlink="http://www.w3.org/1999/xlink">
 <defs>
  <style type="text/css">
   <![CDATA[
    .fil11 {fill:#1F2D61}
    .fil2 {fill:#1F2E65}
    .fil10 {fill:#28458D}
    .fil5 {fill:#2E498F}
    .fil14 {fill:#45243F}
    .fil8 {fill:#E9D3BF}
    .fil9 {fill:#EB8930}
    .fil13 {fill:#EB8A79}
    .fil3 {fill:#EC8E37}
    .fil4 {fill:#ED9482}
    .fil7 {fill:#EFD9DA}
    .fil12 {fill:#F0BFA8}
    .fil1 {fill:#F9E7CC}
    .fil6 {fill:#FDE9EB}
    .fil0 {fill:#E3AEB4}
   ]]>
  </style>
 </defs>
 <g id="Layer_x0020_1">
  <metadata id="CorelCorpID_0Corel-Layer"/>
  <polygon class="fil0" points="6.87449,6.87449 0,6.87449 0,0 6.87449,0 "/>
  <path class="fil1" d="M4.18142 1.88209c0.504411,0.419169 0.628946,1.21666 1.54851,1.55878 0.130056,0.0483642 0.266704,0.0816795 0.382426,0.167307 0.523523,0.387311 0.381302,1.58949 -0.760797,1.79279 -1.1117,0.197874 -1.53403,-0.66149 -1.85186,-1.02719 -1.10337,-1.26947 -2.46836,-0.655743 -2.60382,-1.32424 -0.0747884,-0.369069 0.318695,-0.495804 0.677282,-0.773149 0.541785,-0.41903 1.98045,-0.916001 2.60827,-0.394294z"/>
  <path class="fil2" d="M3.34537 5.53224c0,0 -0.146634,0.0379463 -0.146634,0.0705466 0,0.0265235 0.0214634,0.047971 0.047983,0.0479591 0.0847536,-3.17742e-005 0.253653,-0.00294308 0.270486,-0.0253955 0.0225755,-0.0300862 0.0223809,-0.102952 0.0223809,-0.102952 0,0 -0.122807,0.0270835 -0.194216,0.00984205z"/>
  <path class="fil2" d="M4.06002 5.53224c0,0 0.146646,0.0379463 0.146646,0.0705466 0,0.0265235 -0.0214754,0.047971 -0.0479869,0.0479591 -0.0847457,-3.17742e-005 -0.253665,-0.00294308 -0.270493,-0.0253955 -0.0225795,-0.0300862 -0.0223849,-0.102952 -0.0223849,-0.102952 3.97177e-006,0 0.122803,0.0270835 0.19422,0.00984205z"/>
  <path class="fil3" d="M3.18042 3.5794c0,0 -0.0795426,0.466349 -0.0542266,0.770023 0.0647001,0.776366 -0.0147273,1.31481 0.413402,1.17298 0.0171739,-0.00567963 0.0264004,-0.0128685 0.0296175,-0.030678 0.0592151,-0.328779 0.0626944,-1.28077 0.124837,-1.28648 0.0619159,-0.00566374 0.0765996,1.23707 0.132252,1.31704 0.0234612,0.0337243 0.155447,0.0470337 0.223476,0.0470337 0.0328664,0 0.049099,-0.0293395 0.0535673,-0.0479274 0.12581,-0.523289 -0.0121099,-1.97093 -0.0121099,-1.97093 0,0 -0.556536,0.184385 -0.910814,0.0289264z"/>
  <path class="fil4" d="M3.73332 2.03926c0,0 -0.0180716,0.225072 0.0719049,0.23727 0.0899566,0.0121933 0.130119,0.123478 0.130119,0.123478l-0.450967 0.00654151 -0.0316352 -0.109359c0,0 0.0975467,-0.0225279 0.104398,-0.0904531 0.0132657,-0.131716 0,-0.126652 0,-0.126652l0.17618 -0.0408258z"/>
  <path class="fil5" d="M3.517 2.27653c0,0 -0.237377,-0.00870612 -0.290023,0.011399 -0.0161294,0.00615624 -0.272781,1.13723 -0.160781,1.2266 0.112012,0.0893688 0.335118,0.169432 0.56558,0.173364 0.230462,0.00394397 0.504367,-0.118144 0.561243,-0.150979 0.0568718,-0.0328307 -0.0820091,-1.12887 -0.0902188,-1.17767 -0.00819376,-0.0488091 -0.272122,-0.0754041 -0.272122,-0.0754041 3.97177e-006,0 -0.0531502,0.129531 -0.16801,0.124019 -0.114872,-0.0055287 -0.145669,-0.131331 -0.145669,-0.131331z"/>
  <path class="fil6" d="M3.55341 2.98406c0.264726,-0.0179723 0.486534,0.0523162 0.665438,0.21077 0.178805,0.158497 0.275927,0.350092 0.291174,0.574878 0.007316,0.107417 -0.005346,0.208033 -0.037851,0.301775 -0.0325685,0.093845 -0.0745223,0.16878 -0.125873,0.224945 -0.0513907,0.0561926 -0.103925,0.104338 -0.157675,0.144338 -0.0537539,0.0400513 -0.0988375,0.068799 -0.135286,0.0863145l-0.0586511 0.022798c0.00288351,0.0425218 0.00321316,0.0750823 0.000988971,0.0978088 -0.00222816,0.0227384 -0.011824,0.0478439 -0.0287794,0.0753564 -0.0169475,0.0274727 -0.0469384,0.0483007 -0.0898216,0.0625316 -0.0429785,0.0142031 -0.100629,0.0237869 -0.173058,0.0286921 -0.072453,0.00493691 -0.130957,0.00266903 -0.175477,-0.00693868 -0.0445871,-0.00947664 -0.0766472,-0.0286563 -0.0961049,-0.057404 -0.0195371,-0.0288073 -0.0319529,-0.0549256 -0.0373148,-0.0784226 -0.00536189,-0.0234454 -0.00972289,-0.0601405 -0.0131148,-0.110117 -0.000170786,-0.00244661 9.53225e-005,-0.00691882 0.000973084,-0.0132419 0.000798326,-0.00628334 0.00104458,-0.0119352 0.000714919,-0.0170031 -0.00729614,-0.107341 0.0175155,-0.194374 0.0744906,-0.260961 0.0569552,-0.0665867 0.120925,-0.112314 0.192035,-0.137225 0.0710669,-0.0249149 0.135564,-0.0631512 0.193568,-0.114764 0.0579442,-0.0516012 0.0843247,-0.116095 0.079074,-0.193544 -0.00577495,-0.0849125 -0.0333033,-0.148298 -0.0825374,-0.190121 -0.0492738,-0.0418227 -0.131354,-0.0588458 -0.246214,-0.0510373 -0.0699429,0.00473038 -0.125818,0.0230323 -0.167521,0.0546674 -0.0417949,0.0317066 -0.0666781,0.0628453 -0.0745978,0.0935034l-0.00815404 0.045719c-0.0180795,0.0664874 -0.0409569,0.11758 -0.0686362,0.153318 -0.0276912,0.03573 -0.0690175,0.0554896 -0.123947,0.0592151 -0.0399798,0.00270478 -0.0906755,-0.00511961 -0.152143,-0.0235248 -0.097495,-0.0310195 -0.1655,-0.06275 -0.204066,-0.0952987 -0.0386056,-0.0324732 -0.0593263,-0.0699667 -0.0622138,-0.112437 -0.00152516,-0.0224921 0.00546913,-0.0668211 0.0210901,-0.133185l0.00620391 -0.0192234c0.00395986,-0.0153151 0.0100605,-0.036445 0.018286,-0.0633537 0.00816596,-0.0268809 0.031937,-0.0742602 0.0712734,-0.142177 0.039253,-0.0678934 0.0853772,-0.128141 0.138285,-0.180664 0.0528802,-0.0524909 0.12909,-0.102841 0.228742,-0.151003 0.0995723,-0.0481617 0.211803,-0.0765003 0.336699,-0.084984z"/>
  <path class="fil7" d="M3.69545 4.81482c0.00283187,-0.000166814 0.00569155,-0.000345544 0.00856314,-0.000552076l0 0c-0.00287159,0.000206532 -0.00573126,0.000385262 -0.00856314,0.000552076z"/>
  <path class="fil8" d="M4.21885 3.19483c-0.00870215,-0.00770921 -0.0175195,-0.0152159 -0.0264282,-0.0225041l3.97177e-006 0c0.00890868,0.0072882 0.017722,0.0147948 0.0264242,0.0225041z"/>
  <path class="fil9" d="M3.96689 4.72305l0 0c0.000853931,-0.00138615 0.00167609,-0.00274847 0.00249427,-0.00411078 -0.000814213,0.00136232 -0.00164034,0.00272463 -0.00249427,0.00411078l0 0z"/>
  <path class="fil10" d="M4.19242 3.17233c-0.155531,-0.127331 -0.342005,-0.191002 -0.559491,-0.191002 -0.0260548,0 -0.0525743,0.000909535 -0.0795228,0.00273655 -0.00694265,0.000484556 -0.0138575,0.00101677 -0.0207207,0.00160857 0.00686322,-0.000603709 0.0137781,-0.0011399 0.0207207,-0.00160857 0.0269485,-0.00182701 0.0534441,-0.00273655 0.0795109,-0.00273655 0.21747,0 0.403973,0.0636715 0.559499,0.191002l3.97177e-006 0z"/>
  <path class="fil7" d="M3.63497 4.81677c-0.0405319,0 -0.0752055,-0.00302252 -0.104152,-0.00905961 -0.034606,-0.00787602 -0.0625673,-0.0213642 -0.0846781,-0.0417949 -0.00496074,-0.00503223 -0.00977453,-0.0101876 -0.0137066,-0.0159903l0 0c-0.0195371,-0.0288073 -0.0319529,-0.0549256 -0.0373148,-0.0784226l3.97177e-006 -3.97177e-006c-0.00527054,-0.0230045 -0.00954814,-0.0589689 -0.0129122,-0.107556 -2.78024e-005,-0.00140203 -0.000154899,-0.00262534 -0.000182701,-0.00405915 0.0810956,0.0656097 0.15704,0.0895515 0.224798,0.0895515 0.182721,-1.58871e-005 0.305652,-0.174146 0.307622,-0.174738 0,0 0.393316,-0.222169 0.400354,-0.511981 0.00702606,-0.289804 -0.0435306,-0.716599 -0.56338,-0.885177 -0.176315,-0.0571697 -0.329919,-0.0376603 -0.436502,-0.0479432 0.0676313,-0.0224087 0.14014,-0.0371758 0.217768,-0.0439278 0.00686322,-0.000591794 0.0137781,-0.00112401 0.0207207,-0.00160857 0.0269485,-0.00182701 0.053468,-0.00273655 0.0795228,-0.00273655 0.217486,0 0.403961,0.0636715 0.559487,0.191002 0.00891265,0.0072882 0.017726,0.0147948 0.0264282,0.0225041l0 0c0.178805,0.158497 0.275927,0.350092 0.291174,0.574878 0.0013504,0.0197119 0.00200972,0.0392093 0.00200972,0.0584684 -1.19153e-005,0.0856592 -0.0133213,0.166767 -0.0398607,0.243307 -0.0325685,0.093845 -0.0745223,0.16878 -0.125873,0.224945 -0.000603709,0.000659314 -0.00120742,0.0013226 -0.00179921,0.00198191 -0.0508307,0.0553347 -0.102774,0.102825 -0.155876,0.142356l0 -3.97177e-006c-0.0239418,0.0178452 -0.0458898,0.0330809 -0.0664159,0.0464618 -0.0394715,0.0225319 -0.081739,0.0435942 -0.127522,0.0626547l0 0c0.00366992,0.0540161 0.00291528,0.0983609 -0.00818185,0.134377 -0.00428951,0.0110971 -0.00996914,0.022651 -0.0171144,0.0346775 -0.000814213,0.00136232 -0.00164034,0.00272463 -0.00249427,0.00411078l0 0c-0.00421802,0.00684733 -0.00926614,0.0132697 -0.0151086,0.0193028l-0.000353488 0.000305826c-0.00489719,0.00501635 -0.0106602,0.00961963 -0.0166814,0.014064 -0.00355871,0.00256974 -0.00743515,0.00498854 -0.0113831,0.00738352 -0.00316153,0.00193425 -0.00638264,0.00384865 -0.00980233,0.00566374 -0.00496471,0.00262534 -0.0102432,0.00512756 -0.015756,0.00751856 -0.00367389,0.00156885 -0.00747884,0.00308209 -0.0113871,0.00455165 -0.00511167,0.00195411 -0.01041,0.00382481 -0.0159745,0.00559622 -0.00705386,0.00218845 -0.0144493,0.00426171 -0.0222459,0.00621582 -0.00288748,0.000742721 -0.00566772,0.00152516 -0.00866243,0.00221228 -0.0114387,0.00265314 -0.0235645,0.00508784 -0.0365045,0.0072604l-0.00191042 0.000341572c-0.0137066,0.00226788 -0.0283505,0.00426568 -0.0437212,0.00600929l-0.00222816 0.000274052c-0.0161532,0.00179921 -0.0331881,0.00330054 -0.0511604,0.00452385l0 0c-0.00287159,0.000206532 -0.00573126,0.000385262 -0.00856314,0.000552076 -0.0148226,0.000905564 -0.0290257,0.00149736 -0.042637,0.00177141l-0.0011399 1.58871e-005c-0.00567963,0.00011121 -0.0112481,0.000162843 -0.0167053,0.000162843z"/>
  <path class="fil6" d="M3.70617 4.94053c0.134889,-0.0091589 0.230323,0.0107238 0.286349,0.0596044 0.047971,0.0419022 0.0767306,0.132784 0.0862192,0.27267 0.00389631,0.0574397 0.00441661,0.101947 0.00155296,0.133487 -0.00291528,0.0316073 -0.0130036,0.0673692 -0.0303284,0.107409 -0.0173924,0.0401189 -0.0511326,0.0699945 -0.101205,0.0896667 -0.050092,0.0197476 -0.116361,0.0323818 -0.198787,0.0379781 -0.132399,0.009004 -0.22904,-0.0108072 -0.290046,-0.0593303 -0.0453576,-0.0395549 -0.07148,-0.110538 -0.0784385,-0.212986l-0.00406709 -0.0599459c-0.00390822,-0.0574 -0.00497663,-0.101272 -0.00326082,-0.131505 0.00168006,-0.0302093 0.0112044,-0.0653078 0.0285729,-0.105431 0.0173646,-0.0400354 0.0510094,-0.0705823 0.101082,-0.0915136 0.0499371,-0.0209511 0.117457,-0.034328 0.202358,-0.040103z"/>
  <path class="fil7" d="M3.69054 5.64346c-1.58871e-005,0 -4.36895e-005,0 -6.75201e-005,0 2.38306e-005,0 5.1633e-005,0 6.75201e-005,0l0 0m2.78024e-005 0c0.0189175,0 0.0387446,-0.000703003 0.0594058,-0.00211695 0.051772,-0.00350707 0.0971654,-0.0098063 0.136188,-0.0188937l0 0c-0.0390226,0.00908741 -0.08442,0.0153866 -0.136188,0.0188937 -0.0206731,0.00141395 -0.0404723,0.00211695 -0.0594058,0.00211695z"/>
  <path class="fil11" d="M3.46191 5.58357c-0.000317742,-0.000250222 -0.000619596,-0.000484556 -0.000937338,-0.000730806 0.000317742,0.00024625 0.000619596,0.000480584 0.000933366,0.000730806m-0.00159268 -0.00125111c-0.000119153,-9.92943e-005 -0.00024625,-0.000206532 -0.000385262,-0.000305826 -0.0117644,-0.0102591 -0.02223,-0.0226311 -0.0314167,-0.0371321l3.97177e-006 0c0.00918273,0.014489 0.0196563,0.026873 0.0314127,0.0371321 0.000139012,9.92943e-005 0.000262137,0.000206532 0.000385262,0.000305826z"/>
  <path class="fil9" d="M3.42852 5.54488c-0.0262057,-0.04137 -0.0418823,-0.0999853 -0.0470258,-0.175854l-0.000520302 -0.00769729 0.000524274 0.00769729c0.00513947,0.0758688 0.0208121,0.134484 0.0470178,0.175854l3.97177e-006 0m0.653602 -0.185438c7.94354e-006,-0.0245535 -0.00112004,-0.0534402 -0.003376,-0.0866402 -0.00911124,-0.134413 -0.0360359,-0.223603 -0.0806905,-0.267546 0.0446546,0.0439437 0.0715792,0.133118 0.0806905,0.267531 0.00225994,0.0332159 0.00337998,0.0621026 0.00337203,0.0866601m-0.0895912 -0.359314c-0.000206532,-0.00017873 -0.000413064,-0.000361431 -0.000631512,-0.000540161 0.000218447,0.00017873 0.000424979,0.000361431 0.000631512,0.000540161z"/>
  <path class="fil7" d="M3.69054 5.64346c-1.58871e-005,0 -4.36895e-005,0 -6.75201e-005,0 -0.100947,-1.58871e-005 -0.177129,-0.0199939 -0.228567,-0.0598903 -0.00031377,-0.000250222 -0.000615624,-0.000484556 -0.000933366,-0.000730806 -0.000218447,-0.00017873 -0.000440867,-0.000341572 -0.000659314,-0.000520302 -0.000119153,-9.92943e-005 -0.00024625,-0.000206532 -0.000385262,-0.000305826 -0.0117564,-0.0102591 -0.02223,-0.0226431 -0.0314167,-0.0371321 -0.0262018,-0.04137 -0.0418783,-0.0999853 -0.0470218,-0.175854l-0.000520302 -0.00769729c0.0462791,0.0653475 0.122775,0.11988 0.239053,0.11988 0.0202123,-3.97177e-006 0.0416162,-0.00165226 0.064291,-0.00517125 0.338141,-0.0525664 0.291107,-0.343066 0.267292,-0.50258 0.0149736,0.00757417 0.0286682,0.0161016 0.0402857,0.0261342 0.000218447,0.00017873 0.000424979,0.000361431 0.000631512,0.000540161l0 0c0.0018707,0.0016324 0.00370963,0.00334026 0.0055287,0.00512358 0.0446546,0.0439437 0.0715792,0.133134 0.0806905,0.267546 0.00225994,0.0332 0.00337998,0.0620867 0.00337203,0.0866442 3.97177e-006,0.0146002 -0.000405121,0.0276753 -0.00119947,0.0392133 -0.000194617,0.00262137 -0.000385262,0.00516727 -0.000619596,0.00762977 -0.00291528,0.0316073 -0.0130036,0.0673692 -0.0303284,0.107409 -0.00905961,0.0209074 -0.0225755,0.0390465 -0.040516,0.0543894 -0.0164868,0.0141038 -0.036715,0.0258602 -0.0606887,0.0352773 -0.0186316,0.0073438 -0.0394993,0.0137106 -0.0625991,0.0190844 -0.0390226,0.00908741 -0.08442,0.0153866 -0.136188,0.0188937 -0.0206611,0.00141395 -0.0404882,0.00211695 -0.0594058,0.00211695 -1.58871e-005,0 -1.58871e-005,0 -2.78024e-005,0z"/>
  <path class="fil4" d="M3.62262 3.03833c0.0109422,-0.020816 0.0817867,0.0259595 0.0817867,0.0259595 0,0 -0.0715356,-0.0483801 -0.0643705,-0.0570307 0.0116889,-0.0141196 0.0736684,0.0322667 0.0834429,0.0397336 -0.00936146,-0.0071889 -0.0660664,-0.0512954 -0.0604662,-0.0612209 0.00610461,-0.0108231 0.0921173,0.0584168 0.0921173,0.0584168 0,0 -0.0353329,-0.0508307 -0.0166099,-0.0583096 0.016046,-0.00640647 0.078645,0.0610064 0.0963115,0.0805276l0.000607681 -0.00111607c0.0631075,0.0319847 0.461782,0.142789 0.485871,0.0804601 0.0264123,-0.0683462 -0.273039,-0.429777 -0.320061,-0.573262 -0.0470218,-0.143476 0.015057,-0.154883 0.115579,-0.118776 0.0649186,0.0233302 0.310171,0.247823 0.434821,0.561052 0.102694,0.258066 -0.0931221,0.384229 -0.281976,0.337811 -0.0861517,-0.0211735 -0.38826,-0.137213 -0.45692,-0.188675l-0.000289939 0.000988971c0,0 -0.181625,-0.07119 -0.180525,-0.0890272 0.000579878,-0.00926614 0.0699707,0.0116214 0.0699707,0.0116214 0,0 -0.085262,-0.0377676 -0.0792885,-0.0491546z"/>
  <path class="fil2" d="M4.02809 2.33764c0.0183734,-0.0122489 0.042061,-0.0145168 0.0623012,-0.00570743 0.030245,0.0131744 0.0807183,0.0453179 0.161591,0.121175 0.0467319,0.0438404 0.0789866,0.0915255 0.0789866,0.111599 0,0.0227503 -0.0236479,0.0494128 -0.0365165,0.0633418 -0.0605377,0.0655263 -0.154097,0.205877 -0.203776,0.140144 -0.140485,-0.18593 -0.193338,-0.343352 -0.0625872,-0.430552z"/>
  <path class="fil4" d="M2.88475 3.10475c0.00452782,-0.0171739 0.0126263,-0.0380853 0.0228258,-0.0591913 0.0208836,-0.042637 0.0481339,-0.086521 0.0776958,-0.129392 0.0297406,-0.0429626 0.0618444,-0.0853653 0.0951676,-0.127124 0.0333589,-0.0417711 0.0681556,-0.0828472 0.1036,-0.123363 0.0353249,-0.0401149 0.072457,-0.0810837 0.108175,-0.118081l-0.192635 -0.167382c-0.036445,0.0470218 -0.0691128,0.0920776 -0.102265,0.13902 -0.0327472,0.0467477 -0.0647677,0.0940436 -0.0956085,0.142547 -0.030813,0.0485191 -0.0605933,0.0980749 -0.0885824,0.149632 -0.0278699,0.0517482 -0.0541193,0.105276 -0.0756503,0.165003 -0.0105014,0.0301894 -0.0199383,0.0621582 -0.0250063,0.0995405 -0.000981027,0.00980233 -0.0025459,0.0184211 -0.00238306,0.0296016 5.95766e-005,0.0108866 -0.000631512,0.0205261 0.0013226,0.0331325 0.000754636,0.00596957 0.00162048,0.0119233 0.00259754,0.0178372 0.000949253,0.00588219 0.00342367,0.0130036 0.00536189,0.0193703l0.00331643 0.00970701c0.00109621,0.00309401 0.00251016,0.00701017 0.00312976,0.00798723l0.00478598 0.00986985c0.0254511,0.0526895 0.0523996,0.102202 0.0798802,0.15142 0.0551758,0.0981822 0.114173,0.183468 0.173157,0.278735 0.0172017,0.0505964 0.0561211,0.160503 0.0698873,0.16046 0.00929394,-2.78024e-005 -0.00747884,-0.0705307 -0.00747884,-0.0705307 0,0 0.0326797,0.0873472 0.0444044,0.0820409 0.0214237,-0.00969112 -0.0210861,-0.0831649 -0.0210861,-0.0831649 0,-3.97177e-006 0.0440787,0.0742562 0.0531224,0.0676154 0.0147948,-0.0108191 -0.0278699,-0.0754438 -0.034745,-0.0856314 0.00663286,0.00977453 0.0473117,0.0689698 0.0575589,0.0639654 0.0111607,-0.00544927 -0.052896,-0.09539 -0.052896,-0.09539 3.97177e-006,0 0.0486582,0.038276 0.0572372,0.0200138 0.00733189,-0.0156448 -0.056276,-0.0820925 -0.074713,-0.100891l0.00114387 -0.000548104c-0.0474229,-0.0990043 -0.0900043,-0.201559 -0.132951,-0.301982 -0.0213403,-0.0501714 -0.042073,-0.100696 -0.0596322,-0.150081l-0.00332834 -0.00925423c-0.000889677,-0.00214873 -0.000258165,-0.00162445 -0.000150927,-0.0018429l0.000401149 -0.000250222 0.000162843 -0.000687116 0.000468669 -0.00281599c-0.000369375,-0.00115976 0.000849959,-0.00538969 0.00114387,-0.00831689 0,-0.00274052 0.00177141,-0.00767346 0.00256576,-0.0115777z"/>
  <path class="fil2" d="M3.29636 2.27746c0,0 -0.0510373,-0.00911521 -0.0988693,-0.000162843 -0.0746415,0.0139528 -0.111603,0.0303562 -0.21942,0.17581 -0.0524075,0.0706816 -0.0305231,0.117838 0.0148902,0.144386 0.0736406,0.0430619 0.243839,0.146157 0.287933,0.0765559 0.067961,-0.107258 0.193362,-0.377143 0.0154661,-0.396589z"/>
  <path class="fil12" d="M3.7457 2.20661c-0.0197,-0.0683859 -0.0127454,-0.162592 -0.0123999,-0.167172 -0.000345544,0.00456356 -0.0072882,0.098774 0.0123999,0.167176l0 -3.97177e-006m-0.188401 -0.00162048c0,0 0,0 -1.58871e-005,0 0.0120464,-0.120702 0.00155296,-0.12494 3.17742e-005,-0.12494 -4.36895e-005,0 -8.73789e-005,0 -0.000115181,0l3.97177e-006 0c2.78024e-005,0 6.75201e-005,0 0.00011121,0 0.00156488,0 0.0120265,0.0043332 -1.58871e-005,0.12494m0.176001 -0.165551c0,-2.78024e-005 0,-3.97177e-005 0,-5.56048e-005 0,1.58871e-005 0,2.78024e-005 0,5.56048e-005m0 -5.56048e-005c1.58871e-005,-1.19153e-005 1.58871e-005,-1.19153e-005 1.58871e-005,-2.78024e-005 0,1.58871e-005 0,1.58871e-005 -1.58871e-005,2.78024e-005m1.58871e-005 -3.97177e-005c0,-1.58871e-005 0,-2.78024e-005 0,-2.78024e-005 0,-3.97177e-006 0,1.19153e-005 0,2.78024e-005m0 -5.95766e-005c0,0 0,-1.19153e-005 0,-1.19153e-005 0,0 0,1.58871e-005 0,1.58871e-005m0 -1.58871e-005c0,0 0,0 0,0 0,0 0,0 0,0m0 -1.58871e-005c0,0 0,3.97177e-006 0,3.97177e-006 0,-3.97177e-006 0,0 0,-3.97177e-006z"/>
  <path class="fil13" d="M3.6496 2.23248c-0.0253677,0 -0.0577178,-0.0109105 -0.092296,-0.0274926 0.0120464,-0.120607 0.00158076,-0.12494 1.58871e-005,-0.12494 -4.36895e-005,0 -8.73789e-005,0 -0.000115181,0l0.176116 -0.0407941c0,0 0,3.97177e-006 0,3.97177e-006 0,-3.97177e-006 0,0 0,0 0,-3.97177e-006 0,0 0,1.19153e-005 0,0 0,0 0,0 0,0 0,0 0,0 0,0 0,1.58871e-005 0,1.58871e-005 0,-3.97177e-006 0,1.19153e-005 0,2.78024e-005 0,-3.97177e-006 0,1.19153e-005 0,2.78024e-005 0,0 0,1.19153e-005 0,1.19153e-005 0,1.58871e-005 0,1.58871e-005 -1.58871e-005,2.78024e-005 0,0 0,0 0,0 0,1.58871e-005 0,2.78024e-005 0,5.56048e-005 0,0 0,0 0,0 -0.000345544,0.00457945 -0.00730011,0.0987898 0.0123999,0.167176 -0.0247203,0.0134842 -0.0557239,0.0244145 -0.0929156,0.0258205 -0.00105649,2.38306e-005 -0.00211695,5.1633e-005 -0.00318933,4.76612e-005z"/>
  <path class="fil13" d="M3.55714 2.08008c0,0 2.38306e-005,-1.19153e-005 6.35483e-005,-2.78024e-005l-6.35483e-005 2.78024e-005z"/>
  <path class="fil4" d="M3.91154 1.77266c0.00677981,0.174281 -0.0383594,0.365026 -0.165825,0.385321 -0.20845,0.0331563 -0.366424,-0.290547 -0.373203,-0.464828 -0.00679173,-0.174285 0.136323,-0.127097 0.265302,-0.132113 0.128979,-0.00502032 0.266963,0.0373426 0.273726,0.21162z"/>
  <path class="fil14" d="M3.58715 1.48551c0.072322,-0.0221267 0.148365,-0.0314445 0.222475,-0.016324 0.0703123,0.0143699 0.141216,0.0477407 0.14354,0.123768 0.00465889,0.152075 -0.405502,0.107822 -0.448345,0.138535 -0.0428514,0.0307137 -0.0321118,0.0596838 -0.0215707,0.200161 0.00532217,0.0710073 0.0162247,0.094123 0.0162247,0.094123 -0.0751221,-0.0066964 -0.194478,-0.224894 -0.201532,-0.343407 -0.00490911,-0.0827598 0.126493,-0.147075 0.289208,-0.196857z"/>
 </g>
</svg>
