<?xml version="1.0" encoding="UTF-8"?>
<!DOCTYPE svg PUBLIC "-//W3C//DTD SVG 1.1//EN" "http://www.w3.org/Graphics/SVG/1.1/DTD/svg11.dtd">
<!-- Creator: CorelDRAW -->
<svg xmlns="http://www.w3.org/2000/svg" xml:space="preserve" width="5.69162in" height="5.69162in" style="shape-rendering:geometricPrecision; text-rendering:geometricPrecision; image-rendering:optimizeQuality; fill-rule:evenodd; clip-rule:evenodd"
viewBox="0 0 5.66192 5.66192"
 xmlns:xlink="http://www.w3.org/1999/xlink">
 <defs>
  <style type="text/css">
   <![CDATA[
    .fil8 {fill:#49392E}
    .fil3 {fill:#4C3C2F}
    .fil9 {fill:#A89585}
    .fil7 {fill:#CED1D3}
    .fil4 {fill:#DDE0E4}
    .fil6 {fill:#E4E6E8}
    .fil5 {fill:#E7C5A7}
    .fil2 {fill:#F3F5F6}
    .fil1 {fill:#F8D2B1}
    .fil0 {fill:white}
   ]]>
  </style>
 </defs>
 <g id="Layer_x0020_1">
  <metadata id="CorelCorpID_0Corel-Layer"/>
  <polygon class="fil0" points="5.66192,0 0,0 0,5.66192 5.66192,5.66192 "/>
  <path class="fil1" d="M2.21236 5.04857c0,0 0.0227821,-2.18178 -1.24181,-1.27869 0,0 -0.249138,0.177854 -0.372777,1.3202 0.653603,1.04405 1.61458,-0.0415145 1.61458,-0.0415145z"/>
  <path class="fil2" d="M0.597774 5.09008c0,0 0.889472,0.106763 1.61185,-0.167452l0.0400341 0.73895 -1.61387 0 -0.0380132 -0.571498z"/>
  <path class="fil3" d="M1.90831 2.88094c0,0 0.677822,1.00238 -1.00545,1.18129l0.0121175 0.346658c0,0 -0.160974,-0.145211 -0.211971,0.0341359 -0.0519127,0.182597 0.205736,0.0985382 0.205736,0.0985382 -0.0227233,0.0486503 -0.161769,0.381068 -0.310963,0.54852 -0.0111384,0.0124974 -0.620097,-1.31825 -0.110335,-1.33303 -0.0250771,-0.308363 0.197006,-0.512743 0.519213,-0.587438 0.498667,-0.11561 0.702774,0.385987 0.901656,-0.288675z"/>
  <path class="fil4" d="M0.931166 5.66158c-0.0169074,-0.141298 -0.0416085,-0.268282 -0.0540002,-0.434289l-0.223317 0.0207847c0.00636425,0.128883 0.0215601,0.28685 0.0353461,0.413504l0.241971 0z"/>
  <path class="fil4" d="M1.80516 5.66158l0.126294 0c0.0241998,-0.042286 0.0535341,-0.0835029 0.0863032,-0.124453l-0.0498017 -0.285424 0.0469858 -0.0810003 -0.0386907 -0.0656517 -0.140507 0.0218421 -0.0286724 0.0561777 0.0623109 0.0809298 -0.0642221 0.39758z"/>
  <polygon class="fil3" points="1.8425,5.66158 2.07724,5.66158 1.96796,5.2517 2.01494,5.1707 1.97625,5.10505 1.83574,5.12689 1.80707,5.18307 1.86938,5.264 "/>
  <path class="fil1" d="M0.964797 5.66158c-0.0339792,-0.150141 -0.0592874,-0.27633 -0.0907758,-0.456213l-0.220172 0.042709c0.0197664,0.132478 0.0462299,0.2843 0.0736491,0.413504l0.237298 0z"/>
  <path class="fil3" d="M1.37975 4.33089c0.0224492,0.0701517 0.0106802,0.11626 -0.0189988,0.125754 -0.0296672,0.00948959 -0.0660081,-0.0212272 -0.0884494,-0.0913867 -0.0224413,-0.0701478 -0.0106802,-0.116256 0.018987,-0.12575 0.029675,-0.00948959 0.0660237,0.0212272 0.0884611,0.0913828z"/>
  <path class="fil3" d="M1.98483 4.15529c0.0224335,0.0701478 0.0106724,0.11626 -0.0190027,0.12575 -0.029675,0.00949742 -0.0660198,-0.0212233 -0.0884611,-0.091375 -0.0224413,-0.0701595 -0.0106724,-0.116268 0.0189948,-0.125754 0.029675,-0.00949742 0.0660198,0.0212272 0.088469,0.0913789z"/>
  <path class="fil2" d="M0.874021 5.20537l-0.220172 0.042709c0.0100966,0.0676686 0.0219479,0.140382 0.0347743,0.212558l0.224084 -0.0452195c-0.0125327,-0.0641477 -0.025034,-0.132044 -0.0386868,-0.210048z"/>
  <path class="fil3" d="M1.45627 4.80115c0,0 0.0298513,-0.0341711 0.0794141,-0.0808671 0.0123643,-0.0116985 0.0260445,-0.0240706 0.0407743,-0.0368931 0.0146632,-0.0129008 0.0307442,-0.0258017 0.0475811,-0.0389179 0.0168447,-0.0131123 0.0347782,-0.0260249 0.0534832,-0.0385067 0.0186776,-0.0125209 0.0382443,-0.0244818 0.0586138,-0.0351855 0.020299,-0.0108173 0.0413618,-0.0204361 0.062961,-0.0282651 0.0216502,-0.0077076 0.0441072,-0.0128538 0.0665094,-0.0146241l0.00836556 -0.000536555c0.00280027,5.87469e-005 0.00559662,0.000113577 0.00836948,0.000176241 0.0027846,6.65799e-005 0.00554179,0.000137076 0.00829507,0.000207572l0.00102611 3.52482e-005 0.000939951 7.04963e-005 0.000481725 6.26634e-005 0.00191123 0.000227155 0.00381072 0.000458226c0.00479767,0.000403396 0.0108134,0.00177024 0.0162259,0.00281202 0.00528722,0.00153525 0.0104883,0.00286685 0.0154661,0.00501307 0.00998698,0.00391646 0.019363,0.00907836 0.0272899,0.0155875 0.00789559,0.00651308 0.0144439,0.0140014 0.0196097,0.0217559 0.00527547,0.0077311 0.00887079,0.0158734 0.0115849,0.023675 0.00268669,0.00782901 0.00462926,0.0153643 0.00563579,0.0225197 0.00225197,0.0142755 0.00218539,0.0267338 0.00140993,0.0368304 -0.000759794,0.0101084 -0.00189165,0.0179335 -0.00305876,0.023209 -0.00112011,0.00527156 -0.00193082,0.00805225 -0.00193082,0.00805225l-0.00227546 -0.000411229c0,0 0.00019974,-0.0027846 0.000172324,-0.00806008 -5.48305e-005,-0.00527156 -5.0914e-005,-0.012987 -0.00104961,-0.0226841 -0.0010457,-0.009658 -0.00277286,-0.0213369 -0.00648174,-0.0339988 -0.00366581,-0.0126188 -0.00951309,-0.0263069 -0.0190379,-0.0383226 -0.009564,-0.0119139 -0.0229035,-0.0218695 -0.0395367,-0.0271215 -0.0163904,-0.00564362 -0.0357965,-0.0066384 -0.0556608,-0.00549088 -0.0199387,0.000986948 -0.0406098,0.00525589 -0.0613475,0.0111737 -0.0207063,0.00617234 -0.0412403,0.0146358 -0.0613279,0.0241763 -0.0200836,0.00958358 -0.0396268,0.0205027 -0.0583944,0.0320758 -0.0187951,0.0115261 -0.036944,0.0235614 -0.054055,0.035867 -0.0342769,0.0245523 -0.0651543,0.0491829 -0.0909677,0.071072 -0.0516072,0.0438722 -0.0831152,0.0764063 -0.0831152,0.0764063l-0.00169191 -0.00157833z"/>
  <path class="fil5" d="M1.90075 5.01639c0.00843606,-0.024521 0.0162886,-0.0493357 0.0234322,-0.074311 0,0 -0.0819285,-0.0800877 -0.0640302,-0.110374 0.00262795,-0.00443735 0.00590994,-0.00628984 0.00968149,-0.00628984 0.00945826,0 0.0219283,0.0116436 0.0345393,0.0232912 0.0126071,0.0116436 0.0253513,0.0232912 0.0353422,0.0232912 0.00319192,0 0.00610968,-0.00118669 0.00864363,-0.00393996 0.045337,-0.0492338 0.0196411,-0.17167 0.0402573,-0.201815 0.000274152,0.0054008 0.000289818,0.00988907 0.000325066,0.0133356 2.74152e-005,0.00527547 -0.000172324,0.008064 -0.000172324,0.008064l0.00227546 0.000407312c0,0 0.000810708,-0.00278069 0.00193082,-0.00805225 0.00102611,-0.00464492 0.00202481,-0.0112598 0.00277286,-0.0196763 0.000990865,-0.000368147 0.00204439,-0.000622717 0.0031645,-0.000755877 0.000665799,-7.83292e-005 0.00131593,-0.00012141 0.00195431,-0.00012141 0.0365602,0 0.0349544,0.128013 0.0261855,0.152695 0.0072807,-0.0111619 0.0162768,-0.016316 0.0241332,-0.016316 0.0127559,0 0.0225079,0.0135823 0.0170209,0.0370536 0.00654832,-0.0100927 0.0146985,-0.0143343 0.0223982,-0.0143343 0.0163591,0 0.0306894,0.0191163 0.0233343,0.0418787 0.00712796,-0.00752352 0.0144322,-0.0109778 0.0209296,-0.0109778 0.0180157,0 0.0298748,0.0265184 0.0149844,0.0662665 0,0 -0.00368147,0.0116358 -0.0106959,0.0323069 -0.0783723,0.0267808 -0.158284,0.0493709 -0.238407,0.0683736z"/>
  <path class="fil6" d="M1.54121 5.66158c0,0 0.158491,-0.195768 0.282318,-0.457122l0.04585 0.059542 -0.0606621 0.375534c-0.00510707,0.00715538 -0.0102768,0.0142403 -0.0154661,0.0211841l-0.25204 0.000861622m0.446246 -0.336718l-0.019504 -0.0731595 0.0469858 -0.0810003 -0.0386907 -0.0656517 -0.116346 0.0180823c0.0146358,-0.034833 0.0283709,-0.0704767 0.0408448,-0.106743 0.080123,-0.0190027 0.160031,-0.0415928 0.238407,-0.0683736 -0.0217403,0.0640812 -0.0755916,0.215139 -0.151696,0.376846z"/>
  <path class="fil7" d="M1.80872 5.63953l0.0606621 -0.375534 -0.0214661 0.317527c-0.0127833,0.019923 -0.0258408,0.0392939 -0.039196,0.0580067z"/>
  <path class="fil8" d="M1.84792 5.58153l0.0214661 -0.317527 -0.04585 -0.059542c0.0125483,-0.0264753 0.0247442,-0.0536438 0.0363722,-0.0813253l0.116346 -0.0180823 0.0386907 0.0656517 -0.0469858 0.0810003 0.019504 0.0731595c-0.0406568,0.0863893 -0.0876739,0.175814 -0.139544,0.256665z"/>
  <path class="fil8" d="M1.99104 4.68805l-0.00227546 -0.000411229c0,0 0.00019974,-0.0027846 0.000172324,-0.00806008 -3.52482e-005,-0.00344649 -5.0914e-005,-0.00793475 -0.000325066,-0.0133356 0.00193082,-0.00283552 0.00428069,-0.0048525 0.00713188,-0.00592169 -0.000748044,0.00841648 -0.00174674,0.0150314 -0.00277286,0.0196763 -0.00112011,0.00527156 -0.00193082,0.00805225 -0.00193082,0.00805225z"/>
  <path class="fil1" d="M2.16782 4.91779c0,0 -0.148238,0.463455 -0.359128,0.743791l-0.252048 0c0,0 0.275198,-0.337556 0.385419,-0.718193 3.91646e-006,0 -0.0816582,-0.0803697 -0.0636503,-0.110581 0.018004,-0.0302233 0.0664114,0.0600237 0.0880812,0.0366463 0.0512626,-0.0552965 0.0126854,-0.203824 0.0512626,-0.208324 0.0385811,-0.00450001 0.0366268,0.127598 0.0276228,0.152675 0.0192102,-0.0292246 0.0500641,-0.0170092 0.0410798,0.0208787 0.0205653,-0.0314531 0.0565694,-0.0057337 0.0456424,0.0276972 0.0270001,-0.0282964 0.056166,0.00140209 0.0357181,0.0554101z"/>
  <path class="fil9" d="M2.17504 4.87432c-0.0006423,-0.00276894 -0.000983032,-0.00561229 -0.00218147,-0.00824415 -0.000826374,-0.00276111 -0.00244387,-0.00519323 -0.00394779,-0.00769585 -0.00191515,-0.00222847 -0.00392038,-0.00440994 -0.00657966,-0.00589428 -0.00257703,-0.00145692 -0.00554963,-0.00248304 -0.0085653,-0.00251829 -0.00151959,-0.000250654 -0.00299218,-2.34988e-005 -0.00446477,0.000270236 -0.00149217,0.000211489 -0.00297259,0.00044256 -0.00430419,0.00110053 -0.00134335,0.000579636 -0.00278852,0.00103003 -0.00405354,0.00174283l-0.00368147 0.00234204c-0.000650133,0.000411229 -0.00119844,0.000932118 -0.00178591,0.00141384 0.000301568,-0.00149217 0.000340732,-0.00304309 0.000548305,-0.00455485 0.000289818,-0.00182115 7.04963e-005,-0.00365798 -4.30811e-005,-0.0054948 -1.95823e-005,-0.00184465 -0.000399479,-0.00365014 -0.000857705,-0.0054478 -0.000317233,-0.00182507 -0.000939951,-0.0035679 -0.00170366,-0.00526373 -0.000607052,-0.00177024 -0.00154309,-0.00337991 -0.0025692,-0.00494258 -0.00088512,-0.00165666 -0.00215405,-0.00304309 -0.00340732,-0.00444518 -0.00113577,-0.00150784 -0.00275719,-0.0025457 -0.00420236,-0.00376372 -0.00144126,-0.00122585 -0.00327416,-0.00191123 -0.00491908,-0.00287468 -0.00177416,-0.000665799 -0.00363056,-0.00126502 -0.00549871,-0.00166841 -0.00192298,-8.61622e-005 -0.00386555,-0.000603135 -0.0057807,-0.000262403 -0.00191123,0.000270236 -0.00389296,0.000325066 -0.0056632,0.00112402 -0.0018329,0.000614885 -0.00366581,0.0012376 -0.00521673,0.00234988 -0.001641,0.000979116 -0.00329766,0.00193865 -0.00459401,0.00329766l-0.00100261 0.000904703 5.87469e-005 -0.000485641c6.65799e-005,-0.00170758 0.000356398,-0.00338382 0.000144909,-0.00511882 -0.000152742,-0.00172716 -0.000117494,-0.0034504 -0.000458226,-0.00517365 -0.000610968,-0.00344649 -0.001641,-0.00689297 -0.00347782,-0.0100614 -0.0010457,-0.00151567 -0.0018799,-0.00317233 -0.00334858,-0.00440994l-0.00203264 -0.00195431 -0.00242821 -0.00151175c-0.00155092,-0.00115536 -0.00352482,-0.00143343 -0.00530289,-0.00211881 -0.00185249,-0.000184074 -0.00379505,-0.000610968 -0.00563971,-0.000368147 -0.0018564,0.000207572 -0.00374414,0.000332899 -0.00545172,0.00101828 -0.00178199,0.000489558 -0.00346999,0.00116319 -0.00500132,0.00209531 -0.001641,0.000771543 -0.00312142,0.00175458 -0.00448043,0.0028786 -0.000654049,0.000469975 -0.00118277,0.00104961 -0.00179374,0.00155875 0.000372064,-0.00242037 0.00069713,-0.00483291 0.000986948,-0.00725329 0.000755877,-0.00661099 0.00121802,-0.0132141 0.00151567,-0.0198173 0.000587469,-0.0132141 0.000520889,-0.0264322 -0.00025457,-0.0396463 -0.000795042,-0.0132063 -0.00221672,-0.0264283 -0.0051619,-0.0395132 -0.00150784,-0.00653266 -0.00336032,-0.0130536 -0.00618018,-0.0193787 -0.00289818,-0.00617234 -0.00650916,-0.0128147 -0.0135823,-0.0168643l-0.00274544 -0.00129635c-0.00101828,-0.000332899 -0.00217364,-0.000544388 -0.00326633,-0.000771543 -0.00260445,-0.000446477 -0.00298043,-0.000246737 -0.00579245,-0.000105744 -0.00415145,0.000579636 -0.00800133,0.00287468 -0.0107233,0.00581986 -0.00512273,0.00609793 -0.00689297,0.0130614 -0.00843606,0.0196646 -0.00274152,0.013363 -0.00313317,0.0265771 -0.00375589,0.0397286 -0.000983032,0.0262481 -0.00114752,0.0523983 -0.00465667,0.0780747 -0.00180941,0.0127912 -0.00423761,0.0255432 -0.00864755,0.0375119 -0.00212272,0.00601569 -0.00483683,0.0117611 -0.00800133,0.017205 -0.00170366,0.00264753 -0.00319192,0.00510315 -0.00526373,0.00765668l-0.003141 0.00377939c-0.000798958,0.00076371 -0.00176241,0.00177807 -0.00278069,0.00220105 -0.00397129,0.00218539 -0.00998698,-0.000140993 -0.0150745,-0.00350915 -0.00521673,-0.00333291 -0.0101632,-0.00753136 -0.0150118,-0.0118199 -0.00978724,-0.00854964 -0.0188773,-0.0181254 -0.0304622,-0.0255588 -0.00298826,-0.00174674 -0.00619193,-0.00338774 -0.00998698,-0.00409662 -0.00375589,-0.000783292 -0.00838123,0.000207572 -0.011393,0.00317233 -0.00568279,0.00522848 -0.00696347,0.0136606 -0.00581595,0.0203343 0.00229113,0.0138055 0.00930943,0.0254296 0.01641,0.0365171 0.00727679,0.0110562 0.0154779,0.0213956 0.024098,0.0313239 0.00847914,0.00975199 0.017299,0.0191672 0.0265419,0.0282142l-0.0203264 0.067935 0.0227155 -0.0679154 -0.000258486 -0.00113186 -2.74152e-005 -2.74152e-005c-0.00908228,-0.00937209 -0.0177651,-0.019175 -0.0260484,-0.0292599 -0.00823632,-0.0101123 -0.0161711,-0.0204988 -0.0231345,-0.0314374 -0.00678723,-0.0109073 -0.0133316,-0.0225862 -0.0151097,-0.0348487 -0.000865538,-0.00603527 0.00037598,-0.0121724 0.00457834,-0.0159126 0.0035444,-0.00350915 0.00968933,-0.00142168 0.0148199,0.00188382 0.0104413,0.00690864 0.0194766,0.016598 0.0292246,0.0254453 0.00488774,0.00444127 0.00984207,0.00892562 0.0156619,0.0126815 0.00288643,0.00188382 0.00601569,0.00361489 0.00967366,0.00467234 0.00355223,0.00108094 0.00810316,0.00128068 0.0119452,-0.000751961 0.00198956,-0.000939951 0.00339166,-0.00229896 0.004876,-0.00383422l0.0031645 -0.0037598c0.00207572,-0.00250654 0.0040927,-0.00562796 0.00591777,-0.00847131 0.00345432,-0.00586686 0.006376,-0.012004 0.00864755,-0.018329 0.00472717,-0.0126306 0.00729245,-0.025786 0.00922327,-0.0388826 0.0037363,-0.0262795 0.00403396,-0.0526803 0.00515798,-0.0787601 0.000646216,-0.012987 0.00125327,-0.0260915 0.0037598,-0.0384362 0.00129635,-0.00605093 0.00315667,-0.0122037 0.00656007,-0.0162063 0.00177024,-0.00184074 0.00376372,-0.00303134 0.00614885,-0.00343474l0.00397129 0.00012141 0.0015 0.000360315 0.00169974 0.000806791c0.00452351,0.00242821 0.00791125,0.00782117 0.010453,0.0133395 0.00254962,0.00563579 0.00435119,0.0117651 0.00581595,0.0179766 0.00289035,0.0124739 0.00436686,0.0253943 0.00520889,0.0383187 0.000838123,0.0129361 0.000979116,0.0259583 0.000469975,0.0389257 -0.000638383,0.0127951 -0.00134726,0.0262912 -0.00477417,0.0379074 -0.000379897,0.00128852 5.87469e-005,0.00274544 0.00120627,0.00360315 0.00146476,0.00108878 0.0035444,0.000779376 0.00463709,-0.000689297l0.00269453 -0.00363056c0.000822457,-0.00128852 0.0019739,-0.00222063 0.00297259,-0.00333291 0.000983032,-0.00113186 0.00209531,-0.00207572 0.00327025,-0.00292951 0.00110836,-0.000971283 0.00229896,-0.00178199 0.00357965,-0.00239687 0.00121802,-0.000795042 0.00250654,-0.00131985 0.00384597,-0.00169583 0.00129243,-0.000583553 0.00265144,-0.00063055 0.00398696,-0.000834206 0.00134726,-0.000227155 0.0026397,0.000129243 0.00396738,0.000172324 0.00118669,0.000520889 0.00259661,0.000560054 0.00364231,0.00140601l0.00170758 0.000990865 0.00145692 0.00138643c0.00108486,0.000806791 0.00169974,0.00210314 0.0025222,0.00319975 0.00144126,0.00239296 0.00233813,0.00515798 0.00290601,0.00804833 0.00032115,0.00142951 0.000289818,0.00296085 0.000466059,0.00443735 0.000231071,0.00147259 -2.74152e-005,0.00301568 -5.48305e-005,0.00452351 2.74152e-005,0.00304309 -0.00083029,0.00606268 -0.00125327,0.00910577l-7.83292e-006 7.83292e-005c-0.00013316,0.0009517 0.000242821,0.00193473 0.00105744,0.00254962 0.00120235,0.000912536 0.00291385,0.000669715 0.00381855,-0.000532639l0.00294126 -0.00389296c0.000877288,-0.00140601 0.00222455,-0.00227938 0.00333291,-0.00343865 0.00108878,-0.00121802 0.00244779,-0.00198956 0.00377547,-0.00281594 0.00126893,-0.000975199 0.00273369,-0.00146476 0.00418278,-0.00198173 0.00140993,-0.00070888 0.00296476,-0.000712796 0.00447652,-0.000975199 0.00151959,-0.000348565 0.00304701,0.000125327 0.00458618,0.000109661 0.00149217,0.000313317 0.00299218,0.000771543 0.0044491,0.00126893 0.00133943,0.000798958 0.00286685,0.00128068 0.00408487,0.00230288 0.00120235,0.00101828 0.00259661,0.00181724 0.00357181,0.00310184 0.00108094,0.00117886 0.00220105,0.00231855 0.00297259,0.00374414 0.000908619,0.00132376 0.00174283,0.00269061 0.00228721,0.00422978 0.000693214,0.00146476 0.00127285,0.00296476 0.00156658,0.00457834 0.000438644,0.00156267 0.000806791,0.003141 0.000838123,0.004782 0.00012141,0.00162925 0.000368147,0.00325066 0.00012141,0.00489166 -0.000203656,0.00162142 -7.04963e-005,0.00328983 -0.000536555,0.00488383l-0.00113969 0.00482508 0.000450393 0.00180549c0.000744128,0.000834206 0.00202481,0.000912536 0.00285902,0.000168408 0.0019974,-0.00171149 0.00377547,-0.00377939 0.00594127,-0.00523631l0.00325066 -0.00221672c0.00110836,-0.000665799 0.00233813,-0.00105353 0.00350523,-0.00160575 0.00115536,-0.000634467 0.00240862,-0.000842039 0.00365406,-0.00106136 0.00124543,-0.000281985 0.0024987,-0.000532639 0.00374414,-0.000332899 0.00251829,-5.48305e-005 0.00497391,0.000736295 0.00718279,0.00189165 0.0010222,0.000740211 0.0022363,0.00122977 0.00312925,0.0021658l0.00269453 0.00277286c0.00139426,0.00221672 0.00294518,0.00435119 0.0037833,0.00691647 0.00118669,0.00239687 0.00157442,0.00509532 0.00226372,0.00769193 0.000466059,0.00264753 0.000657966,0.00536947 0.000889037,0.00806791 -8.22457e-005,0.00271802 7.83292e-006,0.00545172 -0.000211489,0.00816974 -0.000352482,0.00270236 -0.000614885,0.00543213 -0.0010457,0.00813058l-0.00177807 0.00803658c-0.000720629,0.00264753 -0.00162925,0.00524806 -0.00243604,0.00787209l-0.00991257 0.0316724 0.0110758 -0.0312573c0.000889037,-0.00263186 0.0018799,-0.00523631 0.00268278,-0.00789559l0.00203656 -0.00810316c0.000516973,-0.00273761 0.000865538,-0.0055183 0.00129635,-0.0082794 0.000313317,-0.00277677 0.000297651,-0.00559271 0.000462143,-0.00839689 -0.000164491,-0.00280027 -0.000285902,-0.00563187 -0.00069713,-0.00842039z"/>
  <path class="fil2" d="M5.30861 2.04614c0,0.794388 -0.505141,1.43837 -1.5207,1.43837 -1.01556,0 -1.5207,-0.64398 -1.5207,-1.43836 0,-0.794392 0.505141,-1.43837 1.5207,-1.43837 1.01556,-3.91646e-006 1.5207,0.643984 1.5207,1.43837z"/>
  <path class="fil3" d="M4.2899 1.46641c-0.05382,-0.259618 -0.284876,-0.484149 -0.563551,-0.452355 -0.243118,0.0277325 -0.48579,0.22007 -0.471307,0.483064 0.00698305,0.126929 0.0746517,0.24915 0.195424,0.298936 0.115802,0.0477456 0.257069,0.0262364 0.340901,-0.0704062 0.0302547,-0.0348761 -0.0204988,-0.0860525 -0.0509453,-0.0509493 -0.069995,0.0806909 -0.18978,0.0950212 -0.282855,0.045431 -0.1056,-0.0562717 -0.145532,-0.186843 -0.12658,-0.299523 0.0421411,-0.25054 0.356014,-0.395046 0.582253,-0.310615 0.210467,0.0785446 0.375973,0.340979 0.302938,0.56766 -0.0350328,0.108737 -0.0899533,0.165463 -0.174619,0.244344 -0.0805185,0.0750159 -0.159588,0.161049 -0.21371,0.239155 -0.127179,0.183521 -0.13307,0.3004 -0.0989572,0.583819 0.0054713,0.0454662 0.077589,0.0460184 0.0720551,0 -0.0373004,-0.309933 -0.0438409,-0.420467 0.187461,-0.670972 0.0893658,-0.0967758 0.152249,-0.156345 0.234267,-0.260782 0.0790107,-0.10059 0.0926557,-0.224123 0.0672261,-0.346807z"/>
  <path class="fil3" d="M3.77161 2.89348c-0.00507965,0 -0.0102337,0.000313317 -0.0154974,0.00136685 -0.0305915,0.00609402 -0.0570159,0.0305249 -0.0624323,0.0615746 -0.00366581,0.0209883 0.00265536,0.0422508 0.0153369,0.0587117 0.0038538,0.00946217 0.00972458,0.0183604 0.0183095,0.0258956 0.0231306,0.0203186 0.0569806,0.0265144 0.085606,0.0151685 0.030004,-0.0118825 0.0478239,-0.0403983 0.0501307,-0.0720198 0.00392821,-0.0537104 -0.0425602,-0.0937249 -0.0914533,-0.0906974z"/>
  <path class="fil2" d="M2.69666 3.39638c0,0.0486699 -0.0394544,0.0881321 -0.0881321,0.0881321 -0.0486777,0 -0.0881361,-0.0394623 -0.0881361,-0.0881321 0,-0.0486777 0.0394584,-0.0881361 0.0881361,-0.0881361 0.0486777,0 0.0881321,0.0394584 0.0881321,0.0881361z"/>
  <path class="fil2" d="M2.40943 3.53691c0,0.0231541 -0.0187755,0.0419414 -0.0419375,0.0419414 -0.0231659,0 -0.0419414,-0.0187834 -0.0419414,-0.0419414 0,-0.0231659 0.0187755,-0.0419375 0.0419414,-0.0419375 0.023162,-3.91646e-006 0.0419375,0.0187755 0.0419375,0.0419375z"/>
 </g>
</svg>
