<?xml version="1.0" encoding="UTF-8"?>
<!DOCTYPE svg PUBLIC "-//W3C//DTD SVG 1.1//EN" "http://www.w3.org/Graphics/SVG/1.1/DTD/svg11.dtd">
<!-- Creator: CorelDRAW -->
<svg xmlns="http://www.w3.org/2000/svg" xml:space="preserve" width="6.81432in" height="6.81432in" style="shape-rendering:geometricPrecision; text-rendering:geometricPrecision; image-rendering:optimizeQuality; fill-rule:evenodd; clip-rule:evenodd"
viewBox="0 0 1.85335 1.85335"
 xmlns:xlink="http://www.w3.org/1999/xlink">
 <defs>
  <style type="text/css">
   <![CDATA[
    .str0 {stroke:#D96E55;stroke-width:0.00298641;stroke-linecap:round}
    .fil5 {fill:none}
    .fil7 {fill:#192548}
    .fil4 {fill:#1F2E65}
    .fil2 {fill:#45243F}
    .fil9 {fill:#E9803E}
    .fil6 {fill:#EB8A79}
    .fil3 {fill:#ED9482}
    .fil1 {fill:#F9E7CC}
    .fil8 {fill:white}
    .fil0 {fill:#EEE200}
   ]]>
  </style>
 </defs>
 <g id="Layer_x0020_1">
  <metadata id="CorelCorpID_0Corel-Layer"/>
  <polygon class="fil0" points="1.85335,1.85335 0,1.85335 0,0 1.85335,0 "/>
  <path class="fil1" d="M1.1273 0.50741c0.135988,0.113007 0.169563,0.32801 0.417475,0.420245 0.0350628,0.0130389 0.0719031,0.0220207 0.103101,0.0451057 0.141141,0.104418 0.102798,0.428525 -0.20511,0.483332 -0.299713,0.0533464 -0.413572,-0.178337 -0.499259,-0.276928 -0.297467,-0.342247 -0.665466,-0.176787 -0.701986,-0.357014 -0.0201628,-0.0995004 0.0859196,-0.133668 0.182594,-0.20844 0.146064,-0.11297 0.533926,-0.246953 0.703184,-0.106301z"/>
  <path class="fil1" d="M1.47071 0.826995c0.0118686,0.00470823 0.0250788,0.00758757 0.0373918,0.0042221 0.0123215,-0.00336654 0.023175,-0.0144181 0.0229298,-0.0271818 -0.000111361,-0.00588181 -0.00244995,-0.0114638 -0.00478854,-0.0168648 -0.00772142,-0.0178178 -0.0166924,-0.0364741 -0.0331525,-0.0467793 -0.0194486,-0.0121759 -0.0729482,-0.0188372 -0.0827341,0.00643541 -0.0118204,0.0305323 0.038016,0.0713024 0.0603536,0.0801685z"/>
  <path class="fil2" d="M1.42183 0.469816c-0.025414,-0.00965525 -0.0711289,-0.000269837 -0.0536259,0.0663072 0.00946787,0.0360019 -0.030876,0.0279335 -0.0385461,0.0464452 -0.00767216,0.0185106 0.00561947,0.048635 -0.00308814,0.0671456 -0.00871296,0.0185106 -0.0392977,0.0188458 -0.0184881,0.0587378 0.0112357,0.0215484 0.0356292,0.00967024 0.0613859,-0.00220581 0.0219339,-0.0101135 0.0448583,-0.0202239 0.0615069,-0.00970879 0.0361989,0.0228666 0.0507883,0.0925574 0.0984864,0.06098 0.0476948,-0.0315785 0.0749195,-0.0581703 0.0542287,-0.0933316 -0.0206865,-0.0351624 0.0415003,-0.0656529 0.0431429,-0.0928755 0.00163509,-0.0272215 -0.0170073,-0.0762237 -0.0551229,-0.0860246 -0.0381124,-0.00980088 -0.0526793,-0.0332382 -0.070116,-0.0370223 -0.0240926,-0.00523078 -0.0338871,0.00316524 -0.042145,0.0115612 -0.00893676,0.00908452 -0.0160832,0.0181744 -0.0376188,0.00999148z"/>
  <path class="fil3" d="M1.67797 0.884423c-0.000159547,-0.00180534 -0.000427243,-0.00345113 -0.000638187,-0.00520508 -0.00185674,-0.0137478 -0.00557557,-0.0248422 -0.0097709,-0.0353541 -0.00201628,-0.00541602 -0.00435166,-0.0103491 -0.00652749,-0.015446 -0.00238678,-0.00488598 -0.00472215,-0.00993044 -0.00727276,-0.0146515 -0.0100857,-0.0193244 -0.0209178,-0.0368928 -0.0337607,-0.0547299l-0.0473008 0.035036c0.00525647,0.00737555 0.0112529,0.0155007 0.016565,0.0234105 0.00546421,0.00796234 0.0108792,0.0159761 0.0159247,0.0240455 0.00509693,0.00801695 0.00992295,0.0160874 0.0141183,0.0239941 0.0028697,0.00547063 0.00546742,0.0109381 0.00737984,0.0158754 -0.00212336,-0.000637116 -0.00435166,-0.00133098 -0.0065821,-0.00202057 -0.0169184,-0.00565695 -0.0348208,-0.0136589 -0.0520979,-0.0217315l0.00189743 0.0344118c0.0105194,0.00841421 0.0216063,0.0161956 0.0340081,0.0232606 0.00493738,0.00276048 0.0100857,0.00536034 0.0158722,0.00764325 0.00589466,0.00228398 0.0120506,0.00461829 0.0213407,0.00514833 0.00101189,0.000107078 0.00254953,0 0.00376809,-5.24684e-005 0.00143271,-0.000107078 0.002496,-5.56807e-005 0.00419747,-0.000373703 0.00159011,-0.000263413 0.00318344,-0.000633904 0.00472108,-0.00106008 0.001543,-0.000319093 0.00361068,-0.00127102 0.00531216,-0.00206768 0.00339545,-0.00148839 0.00732094,-0.00467504 0.0101382,-0.0077514 0.0013781,-0.00170147 0.00265447,-0.0035036 0.00382163,-0.00536355 0.00106008,-0.00174966 0.00164151,-0.00339545 0.00238999,-0.00514833 0.000687443,-0.00180534 0.00127102,-0.00361068 0.00148411,-0.00493738 0.000319093,-0.00148732 0.000584648,-0.00297249 0.000795592,-0.00445981l0.000160617 -0.00111147 0 -0.000745265 5.56807e-005 -0.00153764 4.81852e-005 -0.00302925 -4.81852e-005 -0.00604885z"/>
  <path class="fil3" d="M1.35602 0.868795c-0.00303139,-0.00186102 -0.00511834,-0.00354001 -0.00639365,-0.00593 -0.0013192,-0.00240177 -0.00239106,-0.00553381 -0.00304317,-0.00957816 -0.000555737,-0.004145 -0.000511834,-0.00909309 -0.000141343,-0.0142564 0.000634974,-0.00532608 0.00142414,-0.0107935 0.00284293,-0.0164911 0.00262984,-0.0113235 0.00676521,-0.0230325 0.0114981,-0.0345392 0.00238892,-0.00576403 0.00500056,-0.0114938 0.00772998,-0.0171507l0.00421782 -0.00838745c0.00138345,-0.00266625 0.00301961,-0.00570192 0.00422852,-0.0077257l-0.0542652 -0.0279228c-0.00186423,0.00407112 -0.00315132,0.00720316 -0.00458295,0.0107528 -0.00139202,0.0034597 -0.00271979,0.00690227 -0.00399509,0.0103727 -0.00253883,0.00693439 -0.00492667,0.0139138 -0.00708002,0.0210248 -0.004266,0.0142446 -0.00792058,0.0288191 -0.00996257,0.0444054 -0.00110184,0.00772891 -0.00157191,0.0158786 -0.00162117,0.0241826 0.000225935,0.00847632 0.000956209,0.0172321 0.00330979,0.0264548 0.00249278,0.00922908 0.00669882,0.0189411 0.0135818,0.0274849 0.00687015,0.00869583 0.0164954,0.0148496 0.0257909,0.0185974 0.00581007,0.00214585 0.011422,0.00346505 0.0168809,0.00429919l0.00619876 -0.0434941c-0.00194347,-0.000597497 -0.00370705,-0.00129029 -0.00519437,-0.00209874z"/>
  <path class="fil3" d="M1.37106 1.20915c0,0 0.00968202,0.122355 0.0183928,0.161557 0.00871082,0.0391992 0.0163316,0.105624 0.0163316,0.105624 1.07078e-006,-1.07078e-006 -0.0480493,0.0283147 -0.031103,0.0283147 0.0169473,0 0.0790195,-0.0196018 0.0790195,-0.0196018 0,0 -0.00871403,-0.271145 0,-0.289655 0.00870761,-0.0185128 -0.0826409,0.0137617 -0.0826409,0.0137617z"/>
  <path class="fil3" d="M1.48011 1.15296c0,0 0.0130625,0.110088 0.0114317,0.194193 -0.000775247,0.0398728 -0.00571584,0.134019 -0.00571584,0.134019 0,0 -0.0334855,0.0223226 -0.0236857,0.0242275 0.00980088,0.00190492 0.077589,-0.00299391 0.0824856,-0.0144299 0.0048999,-0.0114349 0.0147008,-0.344216 0.0147008,-0.344216l-0.0792165 0.00620626z"/>
  <path class="fil4" d="M1.62968 0.764015c-0.0372333,-0.0546303 -0.0752611,-0.0795902 -0.09355,-0.0839644l6.74593e-005 5.88931e-005c-0.0233292,-0.00543422 -0.0387174,-0.00522221 -0.0467044,-0.00487421 -0.00206126,8.8875e-005 -0.00389979,0.00117893 -0.00494916,0.0029575 -0.0036428,0.00617092 -0.0136664,0.0206104 -0.0278896,0.0209285 -0.0223205,0.000504339 -0.0297603,-0.0146708 -0.0320882,-0.0223215 -0.000777389,-0.0025581 -0.0032434,-0.00426707 -0.00592036,-0.0041964 -0.0527007,0.00135989 -0.101093,0.0175523 -0.121342,0.124438 -0.000563232,0.00298106 0.00117144,0.00595784 0.00405184,0.00690976 0.01661,0.00548562 0.0384679,0.0133023 0.0482463,0.0168316 0.0029318,0.00105686 0.006157,-0.000270908 0.00753189,-0.00306137l0.00759935 -0.0154054 0.0036685 -0.00744623c-0.000558949,0.0576199 -0.0177846,0.134224 -0.02251,0.191084 -0.0110194,0.132559 -0.00597925,0.185742 -0.00413001,0.223947 0.000309456,0.00634653 0.00527147,0.0114103 0.0116062,0.0118761 0.0395847,0.00292859 0.177121,0.0159033 0.244931,-0.0256945 0.00648788,-0.00398438 -0.0132103,-0.0818667 -0.023463,-0.218991 -0.00319843,-0.0428174 -0.00602744,-0.119908 -0.0111276,-0.184649l0.012026 0.0135658c0.00209659,0.00236536 0.0056259,0.00276583 0.00817543,0.000897316 0.0130271,-0.00955674 0.0496619,-0.0371787 0.0457706,-0.0428902z"/>
  <path class="fil5 str0" d="M1.38016 1.30554c0,0 0.011301,0.0146826 0.0226032,-0.000348005"/>
  <path class="fil5 str0" d="M1.4913 1.3052c0,0 0.00795378,0.0112272 0.0185288,0"/>
  <path class="fil3" d="M1.51096 0.606068l-0.0214574 0.0691672c0,0 -0.0391982,0.0659495 -0.0449183,0.0655384 -0.00571584,-0.000406898 -0.0227509,-0.0673512 -0.0227509,-0.0673512 0.00122283,-0.00163402 0,0 0,0 0,-1.07078e-006 0.0211158,-0.0183993 0.023978,-0.031465 0.00285471,-0.0130711 0.0651486,-0.0358884 0.0651486,-0.0358894z"/>
  <path class="fil6" d="M1.43442 0.672603c-0.00265875,0 -0.00528324,-0.000299819 -0.00785205,-0.000941218 -0.000721708,-0.000182033 -0.00137489,-0.000455083 -0.00204305,-0.000707788 0.0021844,-0.00205805 0.0054353,-0.00524898 0.00875151,-0.00896674 0.00501983,-0.00561519 0.0102014,-0.0124543 0.0120966,-0.0184335 0,-4.28313e-006 0,-3.21235e-006 0,-7.49548e-006 3.21235e-006,-1.17786e-005 7.49548e-006,-2.14157e-005 9.63705e-006,-3.31943e-005 4.28313e-006,-7.49548e-006 4.28313e-006,-1.4991e-005 7.49548e-006,-2.24864e-005 4.28313e-006,-1.4991e-005 7.49548e-006,-2.4628e-005 1.17786e-005,-3.9619e-005 4.28313e-006,-1.28494e-005 7.49548e-006,-2.35572e-005 1.07078e-005,-3.10527e-005 4.28313e-006,-6.4247e-006 4.28313e-006,-1.39202e-005 7.49548e-006,-2.14157e-005 4.28313e-006,-1.92741e-005 1.17786e-005,-3.42651e-005 1.60617e-005,-5.13976e-005 0,0 0,-4.28313e-006 0,-7.49548e-006 6.4247e-006,-1.60617e-005 9.63705e-006,-3.31943e-005 1.71325e-005,-5.24684e-005 1.07078e-006,0 0,-3.21235e-006 0,-3.21235e-006 0.000130636,-0.000427243 0.000241997,-0.000849131 0.000334084,-0.00126781 0,0 0,-3.21235e-006 0,-3.21235e-006 7.49548e-006,-1.92741e-005 1.07078e-005,-4.17605e-005 1.4991e-005,-5.56807e-005l0 -1.07078e-006c0.00285471,-0.01307 0.0651486,-0.0358873 0.0651486,-0.0358873l-0.00706074 0.0227659c-0.0108899,0.0120913 -0.0420336,0.0437683 -0.0694703,0.0437683z"/>
  <path class="fil3" d="M1.41982 0.554781c0,0 -0.0285396,0.0977432 0.00675557,0.106569 0.0353027,0.0088254 0.0813506,-0.0474614 0.0813506,-0.0474614 1.07078e-006,0 0.0384133,-0.102105 0.00840672,-0.116953 -0.023388,-0.0115762 -0.0579936,-9.31581e-005 -0.0721237,0.00553381 -0.00398438,0.0015869 -0.00710251,0.00477462 -0.00856734,0.00880719l-0.0158219 0.0435049z"/>
  <path class="fil3" d="M1.51999 0.569623c0,0 0.0129704,-0.0123986 0.0110173,0.00154621 -0.00195739,0.0139395 -0.0165029,0.0185299 -0.0165029,0.0185299l0.00548562 -0.0200761z"/>
  <path class="fil2" d="M1.40892 0.5258c0,0 0.0396714,-0.0217808 0.0574679,0 0.0177996,0.0217765 0.0631644,0.0217776 0.0756016,0 0.0124329,-0.0217808 -0.0574657,-0.0468232 -0.0756016,-0.0375674 -0.0181337,0.00925478 -0.0574689,0.0375674 -0.0574679,0.0375674z"/>
  <path class="fil7" d="M1.35924 0.813458l0.0161902 -0.0453263c0,0 -0.00272086,0.0234534 -0.00503375,0.0416535 -0.000748477,0.00588181 -0.00277654,0.0052372 -0.00277654,0.0052372l0.000784884 -0.0201532 -0.00916483 0.0185888z"/>
  <polygon class="fil7" points="1.56991,0.799432 1.55824,0.769493 1.56407,0.804884 1.56371,0.792441 "/>
  <path class="fil8" d="M1.47261 1.06109c-0.00118643,-0.00431097 -0.00451871,-0.00898173 -0.00853735,-0.0111051 -0.00847632,-0.00447802 -0.0207089,-0.0025838 -0.0254193,0.00666348 -0.000275191,0.000540746 -0.000553595,0.00108363 -0.000830928,0.00162759 -0.00226792,0.00445232 -0.00322841,0.00939398 -0.00187173,0.0143153 0.00118643,0.00431097 0.00451763,0.00898173 0.00853521,0.0111062 0.00847846,0.00447694 0.02071,0.00257952 0.0254247,-0.00666455l0.000826645 -0.00162759c0.00227327,-0.00445232 0.00322948,-0.00939291 0.0018728,-0.0143153z"/>
  <path class="fil8" d="M1.40552 1.03647c-0.00118857,-0.00430776 -0.00451763,-0.00897745 -0.0085395,-0.0111019 -0.00847632,-0.00447802 -0.02071,-0.00257952 -0.0254215,0.00666455 -0.00027305,0.000540746 -0.000551453,0.00108684 -0.000825574,0.00162759 -0.0022722,0.00445125 -0.00322948,0.00939291 -0.00187601,0.0143196 0.00118643,0.0043099 0.00452299,0.00897745 0.00854057,0.0111008 0.00847739,0.00448123 0.0207089,0.00258059 0.0254204,-0.00666455l0.000830928 -0.00162759c0.00226792,-0.00445125 0.00322734,-0.00939291 0.00187066,-0.0143185z"/>
  <path class="fil8" d="M1.51196 0.774871c-0.0239106,0 -0.0239534,0.0371605 0,0.0371605 0.0239117,0 0.0239491,-0.0371605 0,-0.0371605z"/>
  <path class="fil8" d="M1.39939 0.72648c-0.0239084,0 -0.0239502,0.0371626 -1.07078e-006,0.0371626 0.0239127,0 0.0239534,-0.0371626 1.07078e-006,-0.0371626z"/>
  <path class="fil8" d="M1.54924 1.12708c-0.00440627,-0.00829536 -0.0139213,-0.0111201 -0.0225882,-0.00928476 -0.00952248,0.00200879 -0.0159386,0.0137071 -0.0129768,0.0228548 0.00172396,0.00531537 0.00518902,0.00918946 0.00955888,0.011391 0.00579829,0.00355821 0.0136257,0.00414393 0.0193416,0.000460437 0.00873759,-0.00563553 0.0115505,-0.0162288 0.00666455,-0.0254215z"/>
  <path class="fil8" d="M1.40661 1.13993l-0.000819149 0c-0.00971522,0 -0.0190278,0.00854378 -0.0185792,0.0185781 0.000449729,0.0100675 0.00816151,0.0185813 0.0185781,0.0185813l0.00082022 0c0.00971843,0 0.0190257,-0.00854699 0.018577,-0.0185813 -0.000451871,-0.0100675 -0.00816258,-0.0185781 -0.018577,-0.0185781z"/>
  <path class="fil8" d="M1.52666 0.942291c-0.0239106,0 -0.0239534,0.0371605 0,0.0371605 0.0239084,0 0.0239491,-0.0371605 0,-0.0371605z"/>
  <path class="fil8" d="M1.42702 0.806723l-0.000811654 0c-0.00971843,0 -0.019031,0.00854485 -0.0185824,0.0185781 0.000452941,0.0100675 0.00816151,0.0185813 0.0185824,0.0185813l0.000811654 0c0.0097195,0 0.01903,-0.00854699 0.0185813,-0.0185813 -0.000447587,-0.0100643 -0.00816258,-0.0185781 -0.0185813,-0.0185781z"/>
  <path class="fil8" d="M1.33579 0.731995l0.000819149 0c0.0097195,0 0.01903,-0.00854699 0.018577,-0.0185813 -0.00032873,-0.00736485 -0.00456903,-0.0138591 -0.0108867,-0.0168359 -0.00828679,0.00718388 -0.0159311,0.0164547 -0.0227552,0.0283897 0.00333977,0.0042221 0.00832641,0.00702862 0.0142457,0.00702755z"/>
  <path class="fil8" d="M1.53319 0.694837c-0.0239117,0 -0.0239524,0.0371594 0,0.0371594 0.0239084,-1.07078e-006 0.0239491,-0.0371594 0,-0.0371594z"/>
  <path class="fil8" d="M1.44602 0.942291l-0.000810583 0c-0.0097195,0 -0.0190321,0.00854806 -0.0185834,0.0185824 0.000452941,0.0100632 0.00816151,0.0185781 0.0185824,0.0185781l0.000811654 0c0.0097195,0 0.01903,-0.00854378 0.0185813,-0.0185781 -0.000447587,-0.0100675 -0.00816258,-0.0185824 -0.0185813,-0.0185824z"/>
  <path class="fil8" d="M1.57971 1.03213c-0.00262449,-0.00150873 -0.00562697,-0.00244995 -0.00895175,-0.00244995l-0.000819149 0c-0.00971522,0 -0.01903,0.00854806 -0.0185781,0.0185824 0.000449729,0.0100664 0.00816258,0.018577 0.018577,0.018577l0.000821291 0c0.00448123,0 0.00882432,-0.00186745 0.0122166,-0.00480675 -0.00110719,-0.00949678 -0.0022026,-0.0194679 -0.00326589,-0.0299027z"/>
  <path class="fil8" d="M1.36393 0.967406c-0.000381199,-0.00847418 -0.00593856,-0.0157801 -0.0138891,-0.0179003 -0.00172289,0.0127209 -0.00319522,0.0249792 -0.00414393,0.0364216 0.00951498,-0.00031481 0.0184699,-0.00867334 0.0180331,-0.0185213z"/>
  <path class="fil9" d="M1.70565 0.53266c0.0322284,0.0187783 0.0524973,0.0444471 0.0608258,0.0769925 0.00831891,0.0325432 0.00451121,0.0624984 -0.0114317,0.0898655 -0.00761969,0.0130764 -0.0170276,0.0237896 -0.0282001,0.0321374 -0.0111897,0.00835318 -0.0219843,0.013766 -0.0323848,0.0162534 -0.0104166,0.00248636 -0.0203245,0.00394798 -0.0297324,0.00436987 -0.00941433,0.000418676 -0.016928,0.000210944 -0.0225518,-0.000623196l-0.00862088 -0.00197238c-0.0030164,0.0051751 -0.00554559,0.00899351 -0.00759935,0.0114627 -0.00204841,0.00247137 -0.00514511,0.00463649 -0.00928904,0.00650073 -0.00413536,0.00186102 -0.00927084,0.0019242 -0.0153829,0.000197024 -0.00611953,-0.00173895 -0.0135882,-0.0051676 -0.0224029,-0.0103052 -0.00882218,-0.0051419 -0.0154535,-0.0100193 -0.0198759,-0.0146451 -0.00443947,-0.00461508 -0.00666027,-0.00937364 -0.00665706,-0.0142596 -3.21235e-006,-0.00489348 0.000608205,-0.00890677 0.00183853,-0.0120656 0.00122391,-0.00315024 0.00361068,-0.00776532 0.00715819,-0.0138474 0.000174538,-0.000301961 0.000552524,-0.000800946 0.00115216,-0.00146804 0.000590002,-0.000667098 0.00106436,-0.00130528 0.00142414,-0.00192099 0.00761755,-0.01307 0.017366,-0.021239 0.0292452,-0.0244974 0.0118803,-0.00325839 0.0229298,-0.00354001 0.0331718,-0.00083414 0.0102345,0.00270694 0.0207496,0.00334084 0.0315731,0.00190921 0.0108138,-0.00143806 0.0189711,-0.00686479 0.0244642,-0.0162898 0.00602423,-0.0103395 0.00781458,-0.0198877 0.00538176,-0.0286349 -0.00243389,-0.00875579 -0.0106489,-0.0172064 -0.0246312,-0.025354 -0.00850951,-0.00496308 -0.0164569,-0.00723957 -0.0238078,-0.00684659 -0.00736163,0.000392977 -0.0127134,0.00205805 -0.01605,0.00500377l-0.00455725 0.00467397c-0.00734343,0.00631227 -0.0140348,0.0104573 -0.0200729,0.0124329 -0.00604243,0.0019756 -0.0124061,0.00101617 -0.0190931,-0.00287934 -0.00486992,-0.0028365 -0.01015,-0.0077439 -0.0158572,-0.014735 -0.00889607,-0.0112936 -0.0143121,-0.0203502 -0.016232,-0.0271808 -0.00193491,-0.00682089 -0.00138666,-0.0128173 0.00162331,-0.0179892 0.00159761,-0.00273478 0.0059043,-0.00734664 0.0129543,-0.0138367l0.00223901 -0.00174966c0.00166935,-0.00146911 0.00404435,-0.00344792 0.00712392,-0.00593 0.00307101,-0.00248529 0.00957173,-0.00612381 0.0195022,-0.0109284 0.00992402,-0.00480353 0.0200418,-0.00818078 0.0303428,-0.0101232 0.0102902,-0.00193812 0.02313,-0.00178928 0.0385236,0.000460437 0.0153872,0.00224543 0.0306844,0.00779851 0.0458863,0.0166571z"/>
  <path class="fil9" d="M1.56917 0.772402c0.0164247,0.00957173 0.0259569,0.0194047 0.0286295,0.029514 0.00227649,0.00865835 -0.00154193,0.0215056 -0.0114649,0.0385311 -0.00407647,0.00699329 -0.00752439,0.0122134 -0.0103459,0.0156602 -0.00283008,0.00344685 -0.00682303,0.00681339 -0.0119981,0.0101082 -0.00518902,0.0032948 -0.0114681,0.00411502 -0.0188447,0.00245745 -0.00739055,-0.00165329 -0.0160982,-0.00540424 -0.0261325,-0.0112539 -0.0161164,-0.00939184 -0.0258048,-0.0193148 -0.0290782,-0.0297753 -0.00216084,-0.00817757 0.000391907,-0.0184999 0.00766038,-0.0309703l0.00425636 -0.00729739c0.00407112,-0.00698793 0.00740554,-0.0121802 0.00998934,-0.0155617 0.00257202,-0.00338475 0.00644933,-0.00671595 0.0116351,-0.0100182 0.00517831,-0.00329266 0.0115024,-0.00419319 0.0189786,-0.00268338 0.0074655,0.00150017 0.0163798,0.00526718 0.026715,0.0112893z"/>
  <path class="fil3" d="M1.57139 0.86513l0.00500805 -0.0035989c0,0 -0.0283201,-0.0309146 -0.0331793,-0.0299209 -0.00485493,0.000993687 0.00147875,0.0148271 0.00147875,0.0148271 0,-1.07078e-006 -0.0177879,-0.0204873 -0.0197377,-0.018138 -0.00179035,0.00216191 0.010075,0.0153604 0.0119799,0.0174559 -0.00199059,-0.00217583 -0.0150263,-0.016172 -0.0184742,-0.0132584 -0.00210516,0.00178178 0.0130882,0.016595 0.0130882,0.016595 1.07078e-006,-1.07078e-006 -0.015097,-0.0143945 -0.0186488,-0.00983514 -0.00194133,0.00249171 0.0170372,0.0153358 0.0170372,0.0153358 0,0 -0.0158765,-0.00807049 -0.0164183,-0.00584969 -0.00103973,0.00426279 0.0397924,0.0293834 0.0397924,0.0293834l0.000115645 -8.24503e-005c0.0056698,0.00507872 0.0131867,0.0115131 0.0188212,0.0160211l-0.000863051 -0.0289347z"/>
  <path class="fil3" d="M1.54422 0.848413c-0.00261057,-0.00515582 -0.0201993,0.00606063 -0.0201993,0.00606063 1.07078e-006,0 0.0177632,-0.0116094 0.0160393,-0.0137638 -0.00281295,-0.00351324 -0.0182333,0.00765182 -0.0206608,0.00943788 0.0023236,-0.00172396 0.0164387,-0.0123429 0.015097,-0.0148089 -0.00145627,-0.0026791 -0.0228623,0.0139962 -0.0228623,0.0139962 0,0 0.00888536,-0.0123493 0.0043099,-0.0142618 -0.00323805,-0.00135347 -0.0210762,0.0107078 -0.0312283,0.0178767 -0.00150766,0.000622125 -0.00297999,0.0012828 -0.0045337,0.00187173 -0.00588502,0.00215335 -0.0118943,0.0041889 -0.0181251,0.00584541 -0.0123686,0.00344685 -0.025173,0.00603172 -0.0380974,0.00806193 -0.00644504,0.00107507 -0.0129886,0.00183532 -0.0195022,0.00265019l-0.00983193 0.000986191c-0.00328195,0.000319093 -0.00665813,0.00069708 -0.00943039,0.000704575 -0.00897745,0.000578223 -0.0175737,-0.00021844 -0.0239866,-0.00217583l-0.00619662 0.0434941c0.0124029,0.00188993 0.0239288,0.0009712 0.0345242,-0.000552524 0.00403685,-0.000489348 0.00739804,-0.00121534 0.0108749,-0.00189743l0.010408 -0.00209124c0.00692797,-0.00155692 0.0138517,-0.00306886 0.0207432,-0.00491811 0.0137853,-0.0035807 0.0274849,-0.0077589 0.0409992,-0.012995 0.00676521,-0.0025399 0.013463,-0.00554237 0.0201168,-0.00876329 0.00332907,-0.00165436 0.00663886,-0.00340295 0.00995614,-0.00531858 0.00166078,-0.000994758 0.00330658,-0.00195097 0.00499949,-0.00306994l0.000360854 -0.000233431c0.0132777,-0.00527789 0.0339224,-0.0139705 0.0337854,-0.0169473 -9.95828e-005,-0.0022797 -0.0172353,0.0025838 -0.0172353,0.0025838 0,0 0.0210987,-0.00895175 0.0196756,-0.0117722z"/>
  <path class="fil9" d="M1.37677 1.49594c0,0 -0.00111576,0.00439342 0.0104155,0.00448551 0.0115355,9.20874e-005 0.0571573,-0.0151377 0.0616975,-0.0197688 0.0045337,-0.004629 0.00443733,-0.00793879 0.00443733,-0.00793879 1.07078e-006,0 0.00468468,0.00465148 0.00430348,0.0119981 -0.000377986,0.00734664 -0.077711,0.0324383 -0.0865664,0.025596 -0.00885431,-0.00684659 0.00260307,-0.0118739 0.00571263,-0.0143721z"/>
  <path class="fil9" d="M1.46666 1.49594c0,0 -0.00111576,0.00439342 0.0104187,0.00448551 0.0115366,9.20874e-005 0.0566134,-0.00775782 0.0611503,-0.0123879 0.00453798,-0.00463007 0.00786919,-0.00793986 0.00786919,-0.00793986 0,0 0.00125282,0.00465577 0.00087483,0.0119981 -0.000381199,0.00734664 -0.0771703,0.0250585 -0.0860214,0.0182162 -0.00885859,-0.00684659 0.00259879,-0.0118739 0.00570835,-0.0143721z"/>
 </g>
</svg>
