<?xml version="1.0" encoding="UTF-8"?>
<!DOCTYPE svg PUBLIC "-//W3C//DTD SVG 1.1//EN" "http://www.w3.org/Graphics/SVG/1.1/DTD/svg11.dtd">
<!-- Creator: CorelDRAW -->
<svg xmlns="http://www.w3.org/2000/svg" xml:space="preserve" width="4.82489in" height="3.21662in" style="shape-rendering:geometricPrecision; text-rendering:geometricPrecision; image-rendering:optimizeQuality; fill-rule:evenodd; clip-rule:evenodd"
viewBox="0 0 4.64062 3.09377"
 xmlns:xlink="http://www.w3.org/1999/xlink">
 <defs>
  <style type="text/css">
   <![CDATA[
    .fil2 {fill:black}
    .fil3 {fill:#C7E598}
    .fil1 {fill:#E8ACA6}
    .fil0 {fill:#F1F1F1}
   ]]>
  </style>
 </defs>
 <g id="Layer_x0020_1">
  <metadata id="CorelCorpID_0Corel-Layer"/>
  <polygon class="fil0" points="4.64059,3.09373 0,3.09373 0,0 4.64059,0 "/>
  <path class="fil1" d="M2.66756 1.43834c0.18937,-0.146187 0.279939,-0.390668 0.247692,-0.628526 -0.0169149,-0.124732 -0.0673113,-0.245568 -0.150481,-0.339552 -0.0380027,-0.0429784 -0.0831168,-0.0800193 -0.13357,-0.10681 -0.0441712,-0.0234431 -0.0796482,-0.041051 -0.120177,-0.0414448 -0.0281347,-0.000276425 -0.0548041,-0.000514983 -0.0738925,0.000745968 -0.0690153,0.00455912 -0.0744189,0.0239959 -0.124463,0.0531569 -0.0463409,0.0270177 -0.091455,0.0562127 -0.133922,0.089236 -0.100611,0.0783305 -0.198882,0.175113 -0.257738,0.291893 -0.113459,0.224923 -0.00833819,0.477973 0.142908,0.655699 0.07454,0.0876077 0.172747,0.139178 0.287694,0.139549 0.114542,0.000367304 0.225377,-0.0440576 0.31595,-0.113948z"/>
  <path class="fil2" d="M2.24383 1.68186c0.0169717,-0.109248 -0.0826472,-0.174644 -0.162061,-0.226006 -0.106901,-0.0691138 -0.170804,-0.168203 -0.213976,-0.286444 -0.0234355,-0.0642252 -0.0403353,-0.132298 -0.0366471,-0.201143 0.00357838,-0.0666184 0.0284831,-0.129579 0.0576743,-0.188775 0.0527479,-0.106999 0.121585,-0.208739 0.215093,-0.284328 0.0925152,-0.0748127 0.206228,-0.121029 0.326227,-0.118083 0.110195,0.00269609 0.217444,0.0428648 0.307903,0.104833 0.0943328,0.0646342 0.181615,0.158418 0.219031,0.268215 0.0411191,0.120964 0.0219095,0.266137 -0.0190317,0.384814 -0.0441674,0.128178 -0.134683,0.229664 -0.245639,0.305184 -0.0508054,0.034591 -0.109718,0.0580909 -0.158179,0.0957112 -0.0411722,0.0319706 -0.0703672,0.0819202 -0.0534522,0.134649 0.00346856,0.0107616 0.0205009,0.00616087 0.0170361,-0.00468029 -0.0252001,-0.0785501 0.056917,-0.125482 0.114126,-0.156547 0.0479313,-0.026071 0.0940981,-0.0550351 0.137035,-0.0887968 0.0906333,-0.0712343 0.163053,-0.161856 0.202585,-0.270858 0.0416455,-0.114906 0.0614383,-0.254235 0.0313648,-0.374124 -0.027491,-0.109438 -0.104083,-0.204498 -0.190309,-0.274615 -0.169513,-0.13786 -0.402232,-0.18823 -0.601466,-0.0843058 -0.104788,0.0546261 -0.188666,0.141787 -0.252864,0.239865 -0.0658421,0.100653 -0.129284,0.22103 -0.125016,0.344512 0.00248025,0.0715751 0.0238104,0.141352 0.0507713,0.20719 0.0232045,0.0567618 0.0516309,0.111763 0.0900426,0.159853 0.0423536,0.053066 0.0959194,0.0876986 0.152011,0.124429 0.0625591,0.040926 0.133748,0.101069 0.120707,0.184769 -0.0017002,0.0110873 0.0152715,0.0158698 0.0170361,0.00468029z"/>
  <path class="fil2" d="M2.23149 1.69258c0.0459926,0.00819051 0.0931552,0.00205236 0.139443,-0.000730822 0.026374,-0.00159418 0.0527441,-0.00323001 0.0791181,-0.00477117 0.0142151,-0.000821701 0.0350643,-0.00474466 0.0483971,0.00129124 0.0430011,0.0194482 0.0125717,0.0448073 -0.00493021,0.054717 -0.0447013,0.0253326 -0.104614,0.0298084 -0.15454,0.0347235 -0.0266617,0.00263172 -0.0536832,0.00667206 -0.0790575,-0.00424483 -0.0236741,-0.0101709 -0.0809433,-0.0736047 -0.0250827,-0.0831016 0.0111592,-0.00189332 0.00640321,-0.0188726 -0.00469922,-0.0169869 -0.0228448,0.00388131 -0.0365941,0.0238331 -0.0347727,0.0466666 0.00223412,0.0281915 0.0248479,0.0525624 0.0486356,0.0656074 0.0343638,0.0188272 0.0734798,0.0121173 0.110661,0.00808827 0.0406496,-0.0043925 0.081409,-0.0102542 0.120116,-0.0238634 0.0233825,-0.00820187 0.0531569,-0.0208341 0.0609687,-0.0470339 0.00669857,-0.0224699 -0.00863354,-0.0422514 -0.0288391,-0.0500821 -0.0362382,-0.0139803 -0.0869299,-0.0015866 -0.124698,0.000692955 -0.0478707,0.00288542 -0.0984451,0.0105193 -0.14602,0.00203721 -0.0110986,-0.00197284 -0.0158585,0.0150065 -0.00469922,0.0169907z"/>
  <path class="fil2" d="M2.2248 1.76571c-0.0103375,0.0303727 -0.0225002,0.0787962 0.0166234,0.0934467 0.0217883,0.00815643 0.0482229,0.00293465 0.0707155,0.00117386 0.0297251,-0.00232121 0.0593859,-0.0051877 0.0889293,-0.00919397 0.0391236,-0.0053013 0.0972713,-0.00766038 0.123937,-0.042062 0.0176192,-0.0227161 0.0150368,-0.0574661 -0.0107503,-0.0723438 -0.0098642,-0.0056686 -0.0187363,0.00954991 -0.0089289,0.0152185 0.0151579,0.008732 0.0164454,0.028858 0.00822459,0.0429897 -0.00875093,0.0149951 -0.0285475,0.0219322 -0.0441106,0.0262604 -0.0312512,0.00867898 -0.0648462,0.0122233 -0.0969191,0.0158471 -0.0291912,0.00330574 -0.0584998,0.00581628 -0.087869,0.00766416 -0.0058125,0.000371091 -0.0116894,0.000905007 -0.0175624,0.000745968 -0.0157411,-0.000420317 -0.0168013,-0.00098074 -0.0263134,-0.0155858 -0.00957642,-0.0147565 -0.00922047,-0.0186379 -0.00605105,-0.0348106 0.00164719,-0.00845557 0.00428648,-0.0165173 0.00704694,-0.02467 0.00370334,-0.0107541 -0.0133328,-0.01537 -0.0169717,-0.00468029z"/>
  <path class="fil2" d="M2.27854 1.8626c0.0140371,0.0168051 0.0198534,0.0334626 0.0286649,0.0529183 0.00369955,0.00809205 0.00686897,0.0150822 0.014446,0.0200616 0.021031,0.013897 0.0576819,0.00605863 0.0809433,0.00413123 0.0189711,-0.00157524 0.0501579,-0.000223412 0.0648462,-0.0145975 0.0206145,-0.0201639 0.0181456,-0.0684966 0.0156805,-0.0942722 -0.00105647,-0.0111895 -0.0186795,-0.0113069 -0.017623,0 0.00241209,0.0253516 0.00534674,0.061904 -0.0149156,0.0795952 -0.0175056,0.0152905 -0.0557432,0.0126928 -0.0791787,0.0135145 -0.00828139,0.000295358 -0.0198534,0.00191604 -0.0281953,0.000257492 -0.0199102,-0.00395704 -0.0186795,-0.0151011 -0.02467,-0.0296115 -0.00675158,-0.0165135 -0.01615,-0.0307816 -0.0275478,-0.0444552 -0.00722113,-0.00871685 -0.0196754,0.00380179 -0.0124505,0.0124581z"/>
  <path class="fil2" d="M2.31948 1.67284c-0.00752027,-0.127561 -0.0152147,-0.255666 -0.0398847,-0.3813 -0.0120983,-0.0617904 -0.0271957,-0.124974 -0.0516309,-0.183183 -0.0153283,-0.0363707 -0.0430541,-0.0826851 -0.0871647,-0.0861385 -0.0355944,-0.00279076 -0.0554478,0.0272714 -0.0406458,0.0598933 0.0136281,0.0301341 0.0583824,0.0482532 0.0883992,0.0540089 0.042115,0.00808827 0.0876343,0.000325651 0.123346,-0.0239051 0.027491,-0.0186379 0.0523352,-0.0518164 0.0376506,-0.086468 -0.00956884,-0.0227009 -0.0459888,-0.0302439 -0.0602038,-0.0075127 -0.0176798,0.0282181 -0.00205615,0.0688828 0.0182062,0.0905916 0.0547473,0.0586551 0.169282,0.0252342 0.156653,-0.0634149 -0.00504759,-0.0357989 -0.0371205,-0.0371432 -0.0593821,-0.0132078 -0.0280174,0.0301833 -0.00939845,0.0734457 0.019558,0.0953817 0.042293,0.0320464 0.0993842,0.0248479 0.145846,0.00665692 0.0259044,-0.0101368 0.0690153,-0.0384912 0.0609687,-0.0723173 -0.0102164,-0.0428042 -0.0696023,-0.0174526 -0.0889293,0.00328302 -0.0406458,0.0436751 -0.0655506,0.109479 -0.0844042,0.165192 -0.0472232,0.13936 -0.0521004,0.287993 -0.056739,0.433692 -0.000352158,0.011341 0.0172671,0.0113296 0.0176192,0 0.00464242,-0.145899 0.00951583,-0.294608 0.0577387,-0.433873 0.0121021,-0.0348333 0.0268435,-0.0687351 0.0447581,-0.100963 0.0138629,-0.0249426 0.0417629,-0.081197 0.0788833,-0.0728626 0.039063,0.00877365 -0.0158585,0.0520209 -0.0207925,0.0547776 -0.0132722,0.00741803 -0.0290738,0.0121097 -0.0437584,0.0157524 -0.0404073,0.00999673 -0.0915118,0.00759979 -0.116947,-0.0307059 -0.0108677,-0.0163659 -0.0156805,-0.0344092 -0.00135183,-0.0515551 0.00628961,-0.00750134 0.0215574,-0.0116288 0.0288429,-0.00118522 0.00751648,0.0108298 -0.00305582,0.0388585 -0.00886832,0.0477874 -0.0227918,0.0350832 -0.0705451,0.0399074 -0.103557,0.0171914 -0.0172671,-0.0118598 -0.0334815,-0.0336632 -0.0336557,-0.055285 -0.000174186,-0.0161159 0.00745968,-0.0376506 0.0259612,-0.0241512 0.0338374,0.024651 -0.0173277,0.0668418 -0.0404678,0.0781222 -0.0471058,0.0229471 -0.132101,0.0216179 -0.165817,-0.0266163 -0.00651681,-0.00933786 -0.00804661,-0.0185886 -0.00293465,-0.0287936 0.00863354,-0.017074 0.026196,-0.014287 0.0428193,-0.00546412 0.0160932,0.00856538 0.0286611,0.0246548 0.037768,0.0399036 0.0190885,0.031751 0.0296002,0.0692993 0.0398809,0.104659 0.0454056,0.156491 0.0550388,0.32021 0.0646115,0.482009 0.000647516,0.011269 0.0182668,0.0113486 0.017623,0z"/>
  <path class="fil2" d="M2.37405 1.94302c-0.00434328,0.134748 -0.00869413,0.269492 -0.0130412,0.404247 -0.00181759,0.0561559 -0.00610785,0.114811 0.0121589,0.168945 0.0130412,0.0385139 0.0425278,0.0787356 0.0861082,0.0831812 0.0765356,0.00780048 0.0956241,-0.103428 0.0192096,-0.120184 -0.109131,-0.0239316 -0.10244,0.126652 -0.107079,0.193198 -0.00985663,0.141495 -0.0169414,0.283877 -0.054077,0.421298l0.0182365 0c0.0217391,-0.0817271 0.0334285,-0.165514 0.0409525,-0.24974 0.00434328,-0.0478934 0.0073991,-0.0958929 0.0106291,-0.14387 0.00323001,-0.0475375 0.00352158,-0.0970744 0.0120983,-0.144006 0.00382072,-0.0209818 0.0118673,-0.0434138 0.0317775,-0.0542323 0.0198534,-0.0108146 0.0473406,-0.00913338 0.065259,0.00459698 0.0206183,0.0158244 0.0190279,0.0469392 0.000643729,0.0640548 -0.0233181,0.0216331 -0.0570912,0.00938709 -0.0771793,-0.00994372 -0.0352385,-0.0339586 -0.0415849,-0.0886642 -0.0425846,-0.135054 -0.00105647,-0.0471967 0.00199556,-0.0946017 0.00352536,-0.141776 0.00364275,-0.113573 0.0073423,-0.227146 0.0109813,-0.340714 0.000352158,-0.0113448 -0.0172671,-0.0113296 -0.0176192,0z"/>
  <path class="fil3" d="M2.4343 2.52919c0.0509758,0.0170929 0.108624,0.0114962 0.159967,-0.00580114 0.0497338,-0.0167521 0.0974644,-0.0464886 0.13056,-0.0893269 0.0315995,-0.0408995 0.0459168,-0.0917428 0.0411911,-0.142647 -0.00446066,-0.0480752 -0.0239354,-0.0934467 -0.0508849,-0.131908 -0.00412365,-0.00978847 -0.0094666,-0.0189446 -0.0167824,-0.0269457 -0.0189862,-0.0207735 -0.0457843,-0.0314859 -0.0715827,-0.0407329 -0.0253932,-0.00910309 -0.0510288,-0.0180699 -0.0775163,-0.0236249 -0.0528237,-0.0110721 -0.105821,-0.00294601 -0.148637,0.0349734 -0.0442015,0.0391425 -0.0668872,0.0960557 -0.0754072,0.153594 -0.0152223,0.102758 0.000692955,0.236078 0.109093,0.272419z"/>
  <path class="fil2" d="M2.8872 2.11222c0.0107881,-0.0293957 -0.0108828,-0.0565005 -0.0373363,-0.0673757 -0.0327582,-0.0134577 -0.0700226,-0.0132949 -0.103603,-0.0254008 -0.0792733,-0.0285664 -0.136319,-0.0888649 -0.158395,-0.170357 -0.0403088,-0.148785 0.00825867,-0.320066 0.126065,-0.420847 0.115364,-0.0986912 0.289322,-0.124554 0.423649,-0.0497943 0.0624569,0.0347576 0.11433,0.0883007 0.14705,0.151852 0.0399188,0.0775163 0.0429329,0.163094 0.0283127,0.247771 -0.0154987,0.0897396 -0.0469695,0.188469 -0.130537,0.237135 -0.0202547,0.0117954 -0.0418689,0.0186833 -0.0649409,0.0222503 -0.021724,0.00336254 -0.0445006,0.00475224 -0.0646721,0.0143211 -0.0264762,0.0125603 -0.0477155,0.0427853 -0.035761,0.0722302 0.00277182,0.0068311 0.0139992,0.00383965 0.0111895,-0.00308611 -0.00931893,-0.0229433 0.00572919,-0.0455533 0.0258135,-0.0567958 0.0210196,-0.0117689 0.0467309,-0.0121097 0.0699166,-0.0159948 0.0354127,-0.00593367 0.067247,-0.0213453 0.094613,-0.0445309 0.0633013,-0.0536226 0.0898078,-0.136099 0.10425,-0.21507 0.0146997,-0.0803525 0.0157486,-0.162598 -0.0164378,-0.23893 -0.0271124,-0.0643048 -0.0729724,-0.120184 -0.129927,-0.160376 -0.121532,-0.0857637 -0.284752,-0.0845936 -0.41185,-0.0109055 -0.130321,0.0755511 -0.204801,0.223139 -0.202104,0.372166 0.0015298,0.0845216 0.0257643,0.173057 0.0921744,0.229565 0.0305393,0.0259802 0.0668986,0.0447089 0.105272,0.056084 0.034519,0.0102353 0.138254,0.0125527 0.116068,0.0730065 -0.00257492,0.00702043 0.00863733,0.0100497 0.0111895,0.00308233z"/>
  <path class="fil2" d="M2.88017 2.12482c0.0262301,0.00954234 0.0535204,0.0119923 0.0812992,0.0105609 0.0137152,-0.000704315 0.0273698,-0.00225305 0.040979,-0.00399491 0.00791408,-0.00101482 0.0178464,-0.000344584 0.0231856,-0.00701286 0.00462728,-0.00577463 -0.00353294,-0.0140295 -0.00820187,-0.00820187 -0.00444173,0.00553986 -0.0242231,0.00480525 -0.0320236,0.00563831 -0.0113561,0.00120415 -0.0227464,0.00210916 -0.0341707,0.00232121 -0.0233598,0.000427891 -0.0459736,-0.00249161 -0.0679854,-0.0105004 -0.00702422,-0.00255598 -0.0100535,0.00865248 -0.00308233,0.0111895z"/>
  <path class="fil2" d="M2.87261 2.11152c-0.00925455,0.0330801 -0.00918261,0.0696288 0.00446445,0.101626 0.011731,0.0275175 0.0492112,0.0247911 0.0748278,0.0253251 0.0242951,0.00049605 0.0637973,0.00419181 0.076191,-0.0224245 0.0145104,-0.0311792 0.011235,-0.0733397 0.00411229,-0.105818 -0.00159418,-0.00728929 -0.0127837,-0.00420317 -0.0111857,0.00308233 0.00595639,0.0271767 0.00680081,0.0549593 0.00096938,0.0822648 -0.0036579,0.0171232 -0.0107238,0.0271313 -0.0289299,0.0295169 -0.0135713,0.00177594 -0.0274948,0.00205615 -0.041157,0.00177594 -0.0144536,-0.000306718 -0.0289489,-0.00146922 -0.0432018,-0.00387373 -0.0164189,-0.00277182 -0.0216823,-0.0139386 -0.025806,-0.0288012 -0.00731201,-0.0263361 -0.00642214,-0.0534106 0.000897434,-0.0795914 0.00201449,-0.00719841 -0.00917503,-0.0102732 -0.011182,-0.00308233z"/>
  <path class="fil2" d="M2.8744 2.16213c0.0520474,0.011235 0.102875,0.011163 0.154896,-0.000208265 0.00728929,-0.00159418 0.00420317,-0.0127875 -0.00308611,-0.0111895 -0.0500783,0.010951 -0.0986079,0.0110267 -0.148724,0.000212052 -0.0072855,-0.00156767 -0.0103943,0.0096105 -0.00308611,0.0111857z"/>
  <path class="fil2" d="M2.87467 2.19807c0.0524791,0.0142416 0.10712,0.020304 0.157839,-0.00330574 0.00676673,-0.00315049 0.000878501,-0.0131548 -0.00585415,-0.0100195 -0.04767,0.0221897 -0.0997515,0.0154722 -0.148898,0.00214324 -0.00721355,-0.00196148 -0.0102959,0.00922805 -0.00308611,0.011182z"/>
  <path class="fil2" d="M2.90718 2.24103c0.00591473,0.0190089 0.00954234,0.0423422 0.019221,0.0597873 0.00729686,0.0131472 0.0212809,0.014802 0.0351476,0.0125224 0.0385821,-0.00633884 0.040411,-0.0486886 0.0443037,-0.0807047 0.000897434,-0.00739153 -0.0107124,-0.00733094 -0.0115985,0 -0.0030331,0.024901 -0.00528994,0.0695682 -0.0389077,0.0698976 -0.0260672,0.000249918 -0.0309028,-0.0450686 -0.0369803,-0.064585 -0.0022114,-0.00711131 -0.0134161,-0.00407821 -0.0111857,0.00308233z"/>
  <path class="fil2" d="M2.93563 2.1221c-0.00748998,-0.0628469 -0.0190695,-0.125054 -0.0355301,-0.186185 -0.00865626,-0.0321524 -0.0185659,-0.0639677 -0.0294904,-0.0954272 -0.00705073,-0.0202964 -0.0140484,-0.0439894 -0.0318797,-0.0576857 -0.0338261,-0.0259764 -0.0787584,0.0074824 -0.0539483,0.0457616 0.0114925,0.0177291 0.033436,0.0235832 0.0531114,0.0263399 0.0269836,0.00377528 0.0564285,0.00471437 0.0821739,-0.00559666 0.0302477,-0.012121 0.0724006,-0.0615102 0.0383549,-0.0924244 -0.012814,-0.011625 -0.032762,-0.00875093 -0.0443416,0.00322622 -0.0132722,0.0137379 -0.012867,0.0354165 -0.00568754,0.05193 0.0171232,0.0393849 0.0660315,0.0514453 0.105189,0.0489916 0.0197738,-0.00123823 0.0433911,-0.00553986 0.0545579,-0.0239126 0.00808827,-0.0133176 0.00753163,-0.031679 -0.0059526,-0.0411381 -0.0152072,-0.0106632 -0.0367494,-0.00368819 -0.0479957,0.00940602 -0.0186568,0.0217315 -0.0165741,0.0588785 -0.019168,0.0854683 -0.00769446,0.0787584 -0.0153889,0.157517 -0.0230796,0.236279 -0.000723249,0.0074256 0.0108828,0.00737638 0.0115985,0 0.00781942,-0.0800117 0.0156275,-0.16002 0.0234469,-0.240031 0.00174564,-0.0178843 0.00203721,-0.0369538 0.00672508,-0.0543535 0.00258628,-0.00959535 0.00697121,-0.0198079 0.0156275,-0.0256091 0.00383208,-0.00256734 0.0102656,-0.00474466 0.0151428,-0.00471058 0.0134767,9.4666e-005 0.0204668,0.0180964 0.0136357,0.0288391 -0.0171497,0.0269533 -0.07092,0.0205463 -0.0963928,0.0118522 -0.014571,-0.00497565 -0.0286308,-0.0133668 -0.0375446,-0.026249 -0.0054149,-0.00783078 -0.00913338,-0.0174337 -0.00925077,-0.0270291 -0.000230985,-0.0187666 0.021777,-0.0412327 0.0369728,-0.0205085 0.0126966,0.0173163 0.00259764,0.0396272 -0.0112766,0.0532818 -0.0147944,0.0145596 -0.0352764,0.0210727 -0.0555765,0.0227274 -0.0184296,0.0015033 -0.0381391,0.000230985 -0.0562278,-0.00365411 -0.0186379,-0.00400248 -0.0512068,-0.0224359 -0.0373325,-0.0468483 0.0158017,-0.0278129 0.0479275,0.00193497 0.0562278,0.0184372 0.00857674,0.0170475 0.0138667,0.0361852 0.0198041,0.054255 0.027226,0.0828479 0.0461819,0.167968 0.0565043,0.254568 0.000882288,0.00731579 0.0124883,0.00740667 0.0116023,0z"/>
  <path class="fil2" d="M2.95046 2.30801c-0.0172898,0.053918 -0.0343751,0.108268 -0.0425959,0.16445 -0.00632369,0.0432586 -0.0123142,0.0970706 0.00622145,0.138315 0.0119696,0.0266201 0.041229,0.0471172 0.0709957,0.0357838 0.0284301,-0.0108184 0.0306491,-0.0469279 0.0119696,-0.0678415 -0.023197,-0.0259802 -0.0639488,-0.0174072 -0.0872215,0.00364275 -0.0318608,0.0288315 -0.0443681,0.0785274 -0.0488287,0.119514 -0.00588065,0.0539634 0.0180888,0.108423 -0.00692955,0.159274 -0.009921,0.0201601 -0.0248707,0.0440197 -0.048007,0.0503245 -0.0147528,0.00402141 -0.0365487,-0.00355944 -0.0399718,-0.0204289 -0.00563452,-0.0278129 0.0309066,-0.0294336 0.0471323,-0.0198988 0.0462084,0.0271578 0.0621615,0.0809508 0.075002,0.128988 0.00839499,0.0314291 0.0107465,0.0617412 0.0112274,0.0935944l0.0116856 0c-0.000128746,-0.0249956 -0.000939087,-0.0498019 -0.00625553,-0.0744189 -0.00784592,-0.0363555 -0.0165287,-0.0780351 -0.0377755,-0.109154 -0.0169301,-0.0248025 -0.0462728,-0.0606431 -0.079936,-0.0567769 -0.0304295,0.00349128 -0.0440311,0.0373931 -0.0208871,0.0587952 0.0269836,0.0249464 0.0616882,0.00684246 0.0809357,-0.0178162 0.0269533,-0.0345266 0.0345645,-0.072961 0.0281007,-0.11544 -0.00819051,-0.0538233 -0.00458562,-0.111539 0.0216255,-0.16044 0.0126587,-0.0236059 0.0346819,-0.0455912 0.0635588,-0.0443454 0.0286157,0.00124202 0.0559704,0.0441901 0.0229698,0.0606128 -0.0345493,0.0171989 -0.0597191,-0.0222503 -0.0654067,-0.0501882 -0.005839,-0.02868 -0.00440386,-0.0597456 -0.0015033,-0.0887248 0.00632369,-0.0632899 0.0257454,-0.124448 0.0450838,-0.184735 0.00228713,-0.00712646 -0.00891376,-0.0101785 -0.0111895,-0.00308611z"/>
  <path class="fil2" d="M2.47709 2.54343c-0.0310088,-0.0115 -0.0604045,-0.0241474 -0.084658,-0.0473709 -0.0210348,-0.0201487 -0.0367115,-0.0452617 -0.0487985,-0.071613 -0.0242345,-0.0528653 -0.0282105,-0.10887 -0.00633884,-0.163352 0.0446597,-0.111263 0.171486,-0.185875 0.289958,-0.174962 0.105715,0.00973546 0.205671,0.0895579 0.227782,0.195198 0.0214021,0.102254 -0.0372871,0.216422 -0.135338,0.254413 -0.0197436,0.00764523 -0.04185,0.0139045 -0.056739,0.0299069 -0.00632369,0.00679702 -0.0104511,0.015033 -0.0119771,0.0242004 -0.00143514,0.00862976 0.000533917,0.0206713 -0.00904629,0.0258438 -0.00586551,0.00317321 -0.015813,0.00220004 -0.0222579,0.00259764 -0.0199821,0.00124959 -0.0400134,0.00207508 -0.0600372,0.00222655 -0.00737638,5.67996e-005 -0.0155517,0.00050741 -0.0226631,-0.00180623 -0.0131548,-0.00429027 -0.0171005,-0.0150936 -0.0197436,-0.0271389 -0.00563452,-0.0256696 -0.0154116,-0.0380936 -0.0401422,-0.0481434 -0.00691062,-0.0028059 -0.009921,0.00841392 -0.00308233,0.0111895 0.0203002,0.00824352 0.027491,0.019115 0.032035,0.04004 0.00252569,0.0115947 0.00597532,0.0224359 0.0160137,0.0296343 0.022114,0.0158509 0.0613171,0.00758843 0.0863733,0.00625175 0.0175776,-0.000931514 0.0468673,0.00182895 0.0527366,-0.0200351 0.00262036,-0.00973546 -0.00043925,-0.0196413 0.00454776,-0.0290625 0.00369955,-0.00698257 0.00982255,-0.0123104 0.0163129,-0.016612 0.0112274,-0.00743318 0.0242118,-0.0117007 0.0367153,-0.0164075 0.100941,-0.0379649 0.164359,-0.147013 0.150231,-0.253838 -0.0146922,-0.111081 -0.113027,-0.199162 -0.221106,-0.217368 -0.1219,-0.0205312 -0.253338,0.0478859 -0.310683,0.156767 -0.0305393,0.0579924 -0.0345266,0.123161 -0.00909551,0.183709 0.0129958,0.0309369 0.0299713,0.0606317 0.0539596,0.0844005 0.0260824,0.02584 0.0580871,0.0399566 0.0919586,0.0525207 0.00701286,0.00259764 0.0100346,-0.00860704 0.00308233,-0.0111895z"/>
  <path class="fil2" d="M2.52367 2.61674c-0.00919397,0.00969002 -0.0119279,0.0241512 -0.000378664,0.0337466 0.00711131,0.00590337 0.0162561,0.00580871 0.0250221,0.00652438 0.0157638,0.00129882 0.0316412,0.00188953 0.047458,0.00163962 0.0176458,-0.000283998 0.0475792,0.00217732 0.0605446,-0.0130791 0.00868277,-0.0102201 0.00714161,-0.0240262 -0.00528237,-0.0300622 -0.00668721,-0.00325273 -0.0125754,0.00675158 -0.00585794,0.0100157 0.000586929,0.0138856 -0.00495671,0.0204062 -0.0166309,0.019558 -0.00483933,0.00053013 -0.00969002,0.000950447 -0.0145445,0.00126095 -0.00850101,0.000556636 -0.0170172,0.000764902 -0.0255371,0.000753542 -0.00852752,-1.51466e-005 -0.0170437,-0.000276425 -0.0255598,-0.000730822 -0.00412365,-0.000219625 -0.0503055,-0.00110949 -0.0310315,-0.021421 0.00514226,-0.0054149 -0.00305203,-0.0136357 -0.00820187,-0.00820565z"/>
  <path class="fil2" d="M2.52747 2.64597c-0.00803525,0.0103603 -0.0170399,0.0251433 -0.00561938,0.0367948 0.0127799,0.0130412 0.0405246,0.00962564 0.0563869,0.00872064 0.0250827,-0.00143514 0.108143,-0.00102997 0.0756192,-0.0445347 -0.00441522,-0.00591095 -0.0144991,-0.000132532 -0.0100195,0.00585794 0.00299145,0.00399869 0.00619116,0.0135865 0.00131396,0.0177556 -0.00267337,0.00229092 -0.0124581,0.00233636 -0.0160326,0.00293465 -0.0131472,0.00220383 -0.0263361,0.00429405 -0.0396121,0.00553986 -0.00998537,0.000939087 -0.0200238,0.00146543 -0.0300508,0.00128367 -0.00583522,-0.000106026 -0.0140409,0.000931514 -0.0192816,-0.00164719 -0.0100535,-0.00494914 -0.0115417,-0.015423 -0.00449474,-0.0245034 0.00451746,-0.00583143 -0.00363518,-0.0140977 -0.00820944,-0.00820187z"/>
  <path class="fil2" d="M2.54228 2.69359c0.00319971,0.0115379 0.00631233,0.0231099 0.00960292,0.0346251 0.00112842,0.00395325 0.00199177,0.0102277 0.0054717,0.0130677 0.0103565,0.00846314 0.0357345,0.00429784 0.0478783,0.00333603 0.00872821,-0.000681596 0.0281272,0.000128746 0.0339775,-0.00772096 0.00852373,-0.0114394 0.00689169,-0.040714 0.00733473,-0.0540998 0.000242345,-0.00746726 -0.0113599,-0.00745968 -0.0116023,0 -0.000374878,0.0114546 0.00125338,0.0306983 -0.00404035,0.0404943 -0.00046197,0.00230228 -0.000920154,0.00461213 -0.00137834,0.00691441 -0.00395325,0.000234772 -0.00789136,0.000685382 -0.0118067,0.00135183 -0.00641457,0.000780048 -0.0126815,0.00157524 -0.0191528,0.00188575 -0.0104625,0.000499837 -0.0229963,0.00253705 -0.0310959,-0.00434328 -0.00878122,-0.00746347 -0.0109737,-0.0276501 -0.0140068,-0.0385935 -0.00199177,-0.00718705 -0.0131889,-0.00413501 -0.011182,0.00308233z"/>
  <path class="fil2" d="M2.57864 2.62109c-0.0246813,-0.0841846 -0.044955,-0.16952 -0.060768,-0.255807 -0.00283619,0.00218111 -0.00567996,0.00436221 -0.00851994,0.00655089 0.0154268,0.0107238 0.0298615,0.0223525 0.04366,0.0350832 0.00266958,0.0024651 0.00724006,0.0022114 0.00910687,-0.00117386 0.00832304,-0.0150443 0.0143362,-0.0303802 0.0183614,-0.0471096 -0.00353294,0.000465757 -0.00706966,0.000923941 -0.0105988,0.00138591 0.0070583,0.0103527 0.0140863,0.0207205 0.0211787,0.0310505 0.0028627,0.00416909 0.00570268,0.0102921 0.0110949,0.0117348 0.0122536,0.00327923 0.0281878,-0.0224283 0.0350378,-0.0297857 -0.00329817,-0.00136698 -0.00660012,-0.00273396 -0.00990207,-0.00410093 0.00767174,0.0857031 -0.0326106,0.167563 -0.0225002,0.253341 0.000863354,0.00732337 0.012477,0.00741424 0.0116023,0 -0.010099,-0.085722 0.0301757,-0.167604 0.0225002,-0.253341 -0.000420317,-0.00468029 -0.00621388,-0.00806555 -0.00990586,-0.00410472 -0.00571026,0.00613436 -0.0179752,0.0258022 -0.0279113,0.0203986 -0.00302553,-0.0016434 -0.0064903,-0.00951583 -0.0084745,-0.0124202 -0.00422968,-0.00620631 -0.00846314,-0.0124164 -0.0127042,-0.0186227 -0.00265822,-0.00390403 -0.00936058,-0.00376392 -0.0105988,0.00138212 -0.00377528,0.0156767 -0.00937951,0.0302023 -0.0171914,0.0443378 0.00303689,-0.000393811 0.00607377,-0.000780048 0.00911066,-0.00117386 -0.0145142,-0.0133934 -0.0298009,-0.025628 -0.0460077,-0.0369008 -0.00454776,-0.00316563 -0.00934922,0.002041 -0.00852373,0.00655089 0.0158092,0.0862862 0.0360829,0.17163 0.0607605,0.255807 0.0020978,0.00715297 0.0132987,0.00410851 0.0111933,-0.00308233z"/>
  <path class="fil2" d="M2.73068 2.18304c0.0434214,0.023818 0.0727452,0.0650394 0.0808827,0.113891 0.00122687,0.00734609 0.012405,0.00422968 0.0111895,-0.00308233 -0.00859568,-0.0516119 -0.0404262,-0.0957074 -0.0862218,-0.120824 -0.00654332,-0.00359352 -0.0124088,0.00641836 -0.00585036,0.0100157z"/>
  <path class="fil2" d="M2.58874 2.73885c-0.0142908,0.118635 0.0207016,0.236279 0.0121551,0.354877l0.0116023 0c0.00854645,-0.118598 -0.0264497,-0.236237 -0.0121551,-0.354877 0.000889861,-0.00739531 -0.0107162,-0.00733094 -0.0116023,0z"/>
  <path class="fil2" d="M2.01725 2.83612c-0.001757,-0.0314594 -0.0175435,-0.0589126 -0.0421529,-0.0783646 -0.0157941,-0.0124846 -0.0324174,-0.0227047 -0.0461667,-0.0377225 -0.0147414,-0.0161008 -0.0265709,-0.0350567 -0.0344319,-0.055444 -0.0306832,-0.0795308 0.00359352,-0.178124 0.0593405,-0.238831 0.0315276,-0.0343411 0.0780427,-0.0482797 0.123259,-0.0523693 0.0424785,-0.00383587 0.0890997,0.000208265 0.126311,0.0227236 0.0766189,0.0463674 0.105886,0.152196 0.0688033,0.232144 -0.0194671,0.0419749 -0.0514945,0.0768348 -0.0849117,0.108203 -0.0139803,0.0131245 -0.0367569,0.0264308 -0.0451709,0.0441144 -0.00698635,0.0146846 -4.92263e-005,0.0333679 0.0045932,0.0475792 0.00231364,0.00706587 0.0135259,0.00404035 0.0111933,-0.00308233 -0.00314291,-0.0096105 -0.00831547,-0.0217618 -0.00699014,-0.0321221 0.00184031,-0.0143362 0.0176079,-0.0238937 0.0274001,-0.0326181 0.0180396,-0.0160629 0.0355793,-0.0327393 0.0517596,-0.0506918 0.0268397,-0.0297706 0.0506274,-0.0635361 0.0624644,-0.10222 0.0234848,-0.0767136 -0.00776262,-0.167188 -0.0727452,-0.214278 -0.0644865,-0.0467423 -0.171762,-0.0426982 -0.239043,-0.00377528 -0.0361246,0.0209023 -0.0597835,0.0570117 -0.0782888,0.0934392 -0.0193535,0.038105 -0.032372,0.0802806 -0.0312852,0.123361 0.00104511,0.0411191 0.0160023,0.0812386 0.0418954,0.113175 0.0325803,0.0401763 0.0892777,0.0579091 0.0925645,0.11678 0.000412744,0.00742182 0.012015,0.00747483 0.0116023,0z"/>
  <path class="fil2" d="M2.01302 2.83504c-0.0101255,0.00411987 -0.0192324,0.0117878 -0.0104739,0.0227918 0.00808827,0.0101596 0.0245715,0.0108412 0.0363177,0.0120832 0.0390062,0.00412744 0.0833781,0.00672886 0.121483,-0.00534295 0.0087017,-0.00275668 0.0206523,-0.00739531 0.0225381,-0.0176798 0.00210537,-0.0114508 -0.00859568,-0.0195959 -0.0184447,-0.0221746 -0.0222389,-0.00582764 -0.0515703,0.0013594 -0.0742788,0.00292329 -0.0255333,0.00176458 -0.0520247,0.00230228 -0.0771415,0.0073991 -0.00730822,0.00148436 -0.00421832,0.0126701 0.00308611,0.0111895 0.0287936,-0.00584658 0.0594048,-0.00597911 0.0886529,-0.00798224 0.0133403,-0.000908794 0.026764,-0.00242345 0.040127,-0.0028627 0.00791787,-0.000265065 0.0323606,0.00151466 0.0192399,0.0153018 -0.0026923,0.00282862 -0.00969759,0.00353294 -0.013329,0.00441522 -0.0214703,0.00521042 -0.0446331,0.00610407 -0.0666108,0.00619116 -0.0129314,4.92263e-005 -0.0256318,-0.000995887 -0.0384836,-0.00232121 -0.00443037,-0.000458184 -0.0088721,-0.000798981 -0.0132835,-0.00142378 -3.02931e-005,0 -0.0270063,-0.00697121 -0.0163129,-0.0113183 0.00682732,-0.00277561 0.00383587,-0.014003 -0.00308611,-0.0111895z"/>
  <path class="fil2" d="M2.01185 2.85746c-0.0163394,0.00721355 -0.0255409,0.0246435 -0.00380558,0.0320312 0.0152942,0.00520285 0.0346478,0.00403656 0.0505744,0.00468786 0.0210272,0.000863354 0.0420431,0.000806555 0.0630703,6.81596e-005 0.0178162,-0.000624796 0.0464242,0.00304067 0.0617828,-0.00826245 0.0162674,-0.0119734 0.00199935,-0.0289034 -0.0104966,-0.0367304 -0.0063502,-0.00397219 -0.0121778,0.00605484 -0.00585794,0.0100195 0.00965972,0.00604727 0.0148701,0.0168013 0.00154116,0.0203002 -0.0056118,0.001473 -0.0115341,0.00167748 -0.0172974,0.00201828 -0.0131964,0.000772475 -0.0264913,0.00103754 -0.0397029,0.00138212 -0.0188802,0.000492263 -0.0377755,0.000321865 -0.0566406,-0.00054149 -0.00953855,-0.000435464 -0.019096,-0.000995887 -0.0286043,-0.00188196 -0.00519906,-0.000124959 -0.0102959,-0.000874714 -0.0152829,-0.00224169 -0.000984527,-0.00625932 0.00120415,-0.00987178 0.00656982,-0.0108336 0.00681974,-0.00301038 0.000920154,-0.0130109 -0.00585036,-0.0100157z"/>
  <path class="fil2" d="M2.01069 2.88356c-0.0144082,0.0125944 -0.00414637,0.0278848 0.0118673,0.0320653 0.0276993,0.0072287 0.0599009,0.00132911 0.0879485,0.000374878 0.02261,-0.000772475 0.0559855,0.00549442 0.0768726,-0.00621767 0.0153018,-0.00858053 0.0165135,-0.0246624 0.00168884,-0.0334928 -0.00642972,-0.00382451 -0.0122687,0.00620252 -0.00585794,0.0100195 0.00205993,0.00964836 -0.000560423,0.0147831 -0.00784214,0.0153965 -0.00425619,0.000908794 -0.00855024,0.00149194 -0.0128822,0.00176458 -0.00481282,0.000390024 -0.00967487,0.000446824 -0.0144953,0.000556636 -0.0147452,0.000329438 -0.0295017,-9.84527e-005 -0.0442356,0.000681596 -0.0145559,0.000772475 -0.028983,0.00210537 -0.0435691,0.00186303 -0.00509303,-7.95195e-005 -0.0101861,-0.000283998 -0.0152715,-0.00054149 -0.00151844,-7.57328e-005 -0.0393129,-0.00265444 -0.0260218,-0.0142643 0.00563074,-0.00492263 -0.00260521,-0.0131018 -0.00820187,-0.00820565z"/>
  <path class="fil2" d="M2.02206 2.90744c-0.0143059,0.00639185 -0.014518,0.0274986 -0.00176079,0.0355528 0.00973924,0.00614951 0.0219057,0.00487341 0.0327658,0.00463485 0.0202017,-0.000443037 0.0403807,-0.00146922 0.0605673,-0.00238937 0.0200692,-0.000908794 0.0408541,0.000117386 0.0607983,-0.00191983 0.00819808,-0.000836848 0.0186984,-0.002041 0.0249729,-0.00778534 0.010951,-0.010027 0.0041956,-0.028059 -0.00775883,-0.0337844 -0.00670614,-0.00320729 -0.0125982,0.00679324 -0.00586172,0.0100195 0.0105193,0.00502866 0.00432435,0.0153094 -0.00293465,0.0184107 -0.00655846,0.00279454 -0.0167786,0.00162068 -0.0237422,0.00176836 -0.0139045,0.000302931 -0.0278053,0.000889861 -0.0417023,0.00151844 -0.013844,0.000621009 -0.0276879,0.00131775 -0.0415357,0.00184788 -0.00759979,0.000291571 -0.0151996,0.000545276 -0.0228032,0.000711889 -0.00254462,4.92263e-005 -0.00510061,9.4666e-005 -0.00764902,0.000147679 -0.011004,0.00240452 -0.0168354,-0.00383587 -0.0175019,-0.0187174 0.00680838,-0.00304067 0.000908794,-0.0130412 -0.00585415,-0.0100157z"/>
  <path class="fil2" d="M2.06824 2.8316c-0.00449096,-0.0462879 -0.0139576,-0.0918109 -0.0290473,-0.135827 -0.00659254,-0.0192324 -0.018085,-0.0658043 -0.0474201,-0.0605825 -0.00902735,0.00160932 -0.0176306,0.0105572 -0.0196602,0.0194444 -0.00324515,0.014181 0.0110191,0.0246245 0.0220951,0.0301833 0.0265103,0.0133063 0.0625364,0.00944767 0.0831206,-0.0128481 0.0112312,-0.0121627 0.0213567,-0.0450648 -0.00219625,-0.0508432 -0.0254273,-0.00624039 -0.0346667,0.0181532 -0.0226403,0.036863 0.0163204,0.0253856 0.0563566,0.0276198 0.0831584,0.0228259 0.021156,-0.00378664 0.0308308,-0.0230758 0.0158168,-0.0413123 -0.0253743,-0.0308195 -0.0497716,0.0151731 -0.0533576,0.0364994 -0.00848965,0.0505479 -0.00848208,0.103905 -0.00853509,0.155029 -3.78664e-006,0.00746726 0.0115947,0.00747862 0.0116023,0 2.65065e-005,-0.0281537 0.000749755,-0.056296 0.00237422,-0.0844042 0.00145786,-0.0251887 0.00110949,-0.0528767 0.00772854,-0.0773649 0.00296494,-0.0109623 0.0240565,-0.0462349 0.0340381,-0.0169831 0.00610785,0.0179032 -0.0166612,0.0179714 -0.0271124,0.0179903 -0.0109964,1.89332e-005 -0.0229508,0.000382451 -0.0334663,-0.00295358 -0.00814507,-0.00259006 -0.0173845,-0.00781184 -0.0222314,-0.0151806 -0.00382829,-0.00582764 -0.0108412,-0.0228183 0.00696742,-0.0198609 0.0175359,0.00290814 0.00414259,0.0269685 -0.00213567,0.0332543 -0.0097809,0.0097809 -0.0239657,0.0149269 -0.0376582,0.0153321 -0.0123823,0.000367304 -0.032993,-0.00305961 -0.0413463,-0.0138591 -0.0101633,-0.0131548 0.00441901,-0.0221519 0.0144536,-0.0179335 0.00595639,0.00251054 0.0107692,0.0127004 0.0132949,0.0181418 0.0234772,0.0506047 0.0352082,0.109218 0.0405549,0.164389 0.000711889,0.00736123 0.0123217,0.00743318 0.0116023,0z"/>
  <path class="fil2" d="M2.09149 2.93914c-0.00360488,0.0269344 0.00120794,0.0502487 0.0104322,0.0755284 0.0109282,0.0299486 0.00145028,0.0542361 -0.0133555,0.0790613l0.0136319 0c0.0109548,-0.0187817 0.0197511,-0.0392107 0.0167673,-0.0612565 -0.0018138,-0.0133934 -0.00819429,-0.025522 -0.0120907,-0.0383284 -0.0054982,-0.0181039 -0.00627825,-0.0363593 -0.00378286,-0.0550048 0.000984527,-0.00737259 -0.0106291,-0.00730443 -0.0116023,0z"/>
 </g>
</svg>
